{
DisplayStrings = (
d
);
copyright = "Copyright (c) 2010-2014 by tyPoland Lukasz Dziedzic with Reserved Font Name \"Lato\". Licensed under the SIL Open Font License, Version 1.1. ";
customParameters = (
{
name = vendorID;
value = tyPL;
}
);
date = "2014-08-18 18:16:30 +0000";
designer = "Steven Ng";
designerURL = "http://www.assignittous.com";
familyName = "Aitu";
featurePrefixes = (
{
automatic = 1;
code = "languagesystem DFLT dflt;\012languagesystem latn dflt;\012languagesystem math dflt;\012";
name = Languagesystems;
}
);
features = (
{
automatic = 1;
code = "feature frac;\012";
name = aalt;
},
{
automatic = 1;
code = "sub one slash four by onequarter;\012sub one slash two by onehalf;\012sub three slash four by threequarters;\012";
name = frac;
},
{
automatic = 1;
code = "sub f f i by f_f_i;\012sub f f l by f_f_l;\012sub f i by fi;\012sub f l by fl;\012";
name = liga;
}
);
fontMaster = (
{
alignmentZones = (
"{1415, 19}",
"{995, 15}",
"{0, -16}",
"{-352, -3}"
);
ascender = 1610;
capHeight = 1415;
customParameters = (
{
name = typoAscender;
value = 1610;
},
{
name = typoDescender;
value = "-390";
},
{
name = typoLineGap;
value = 400;
},
{
name = underlinePosition;
value = "-6";
}
);
descender = "-390";
id = "97227C28-C7C3-40A5-B3DE-4B1AC4F48489";
italicAngle = 7;
weight = Light;
weightValue = 300;
widthValue = 5;
xHeight = 995;
}
);
glyphs = (
{
glyphname = A;
layers = (
{
layerId = "97227C28-C7C3-40A5-B3DE-4B1AC4F48489";
name = "Light Italic";
paths = (
{
closed = 1;
nodes = (
"1117 0 LINE",
"758 1415 LINE",
"659 1415 LINE",
"-47 0 LINE",
"29 0 LINE SMOOTH",
"37.6667 0 OFFCURVE",
"45.6667 2.5 OFFCURVE",
"53 7.5 CURVE SMOOTH",
"60.3333 12.5 OFFCURVE",
"65.6667 18.6667 OFFCURVE",
"69 26 CURVE SMOOTH",
"272 440 LINE",
"906 440 LINE",
"1007 26 LINE SMOOTH",
"1009 18.6667 OFFCURVE",
"1012.67 12.5 OFFCURVE",
"1018 7.5 CURVE SMOOTH",
"1023.33 2.5 OFFCURVE",
"1030.67 0 OFFCURVE",
"1040 0 CURVE SMOOTH"
);
},
{
closed = 1;
nodes = (
"308 513 LINE",
"660 1232 LINE",
"665.333 1244 OFFCURVE",
"671.167 1257.33 OFFCURVE",
"677.5 1272 CURVE SMOOTH",
"683.833 1286.67 OFFCURVE",
"690.333 1302 OFFCURVE",
"697 1318 CURVE",
"699.667 1302 OFFCURVE",
"702.333 1286.83 OFFCURVE",
"705 1272.5 CURVE SMOOTH",
"707.667 1258.17 OFFCURVE",
"710.333 1245 OFFCURVE",
"713 1233 CURVE SMOOTH",
"888 513 LINE"
);
}
);
width = 1217;
}
);
leftKerningGroup = A;
rightKerningGroup = A;
unicode = 0041;
},
{
glyphname = Aacute;
layers = (
{
layerId = "97227C28-C7C3-40A5-B3DE-4B1AC4F48489";
name = "Light Italic";
paths = (
{
closed = 1;
nodes = (
"0 0 LINE"
);
},
{
closed = 1;
nodes = (
"1117 0 LINE",
"758 1415 LINE",
"659 1415 LINE",
"-47 0 LINE",
"29 0 LINE SMOOTH",
"37.6667 0 OFFCURVE",
"45.6667 2.5 OFFCURVE",
"53 7.5 CURVE SMOOTH",
"60.3333 12.5 OFFCURVE",
"65.6667 18.6667 OFFCURVE",
"69 26 CURVE SMOOTH",
"272 440 LINE",
"906 440 LINE",
"1007 26 LINE SMOOTH",
"1009 18.6667 OFFCURVE",
"1012.67 12.5 OFFCURVE",
"1018 7.5 CURVE SMOOTH",
"1023.33 2.5 OFFCURVE",
"1030.67 0 OFFCURVE",
"1040 0 CURVE SMOOTH"
);
},
{
closed = 1;
nodes = (
"308 513 LINE",
"660 1232 LINE",
"665.333 1244 OFFCURVE",
"671.167 1257.33 OFFCURVE",
"677.5 1272 CURVE SMOOTH",
"683.833 1286.67 OFFCURVE",
"690.333 1302 OFFCURVE",
"697 1318 CURVE",
"699.667 1302 OFFCURVE",
"702.333 1286.83 OFFCURVE",
"705 1272.5 CURVE SMOOTH",
"707.667 1258.17 OFFCURVE",
"710.333 1245 OFFCURVE",
"713 1233 CURVE SMOOTH",
"888 513 LINE"
);
},
{
closed = 1;
nodes = (
"1049 1841 LINE",
"946 1841 LINE SMOOTH",
"931.333 1841 OFFCURVE",
"920.167 1839.67 OFFCURVE",
"912.5 1837 CURVE SMOOTH",
"904.833 1834.33 OFFCURVE",
"896.667 1828.33 OFFCURVE",
"888 1819 CURVE SMOOTH",
"618 1542 LINE",
"678 1542 LINE SMOOTH",
"686 1542 OFFCURVE",
"692.667 1542.67 OFFCURVE",
"698 1544 CURVE SMOOTH",
"703.333 1545.33 OFFCURVE",
"709.333 1548.67 OFFCURVE",
"716 1554 CURVE"
);
}
);
width = 1217;
}
);
leftKerningGroup = A;
rightKerningGroup = A;
unicode = 00C1;
},
{
glyphname = Acircumflex;
layers = (
{
layerId = "97227C28-C7C3-40A5-B3DE-4B1AC4F48489";
name = "Light Italic";
paths = (
{
closed = 1;
nodes = (
"0 0 LINE"
);
},
{
closed = 1;
nodes = (
"1117 0 LINE",
"758 1415 LINE",
"659 1415 LINE",
"-47 0 LINE",
"29 0 LINE SMOOTH",
"37.6667 0 OFFCURVE",
"45.6667 2.5 OFFCURVE",
"53 7.5 CURVE SMOOTH",
"60.3333 12.5 OFFCURVE",
"65.6667 18.6667 OFFCURVE",
"69 26 CURVE SMOOTH",
"272 440 LINE",
"906 440 LINE",
"1007 26 LINE SMOOTH",
"1009 18.6667 OFFCURVE",
"1012.67 12.5 OFFCURVE",
"1018 7.5 CURVE SMOOTH",
"1023.33 2.5 OFFCURVE",
"1030.67 0 OFFCURVE",
"1040 0 CURVE SMOOTH"
);
},
{
closed = 1;
nodes = (
"308 513 LINE",
"660 1232 LINE",
"665.333 1244 OFFCURVE",
"671.167 1257.33 OFFCURVE",
"677.5 1272 CURVE SMOOTH",
"683.833 1286.67 OFFCURVE",
"690.333 1302 OFFCURVE",
"697 1318 CURVE",
"699.667 1302 OFFCURVE",
"702.333 1286.83 OFFCURVE",
"705 1272.5 CURVE SMOOTH",
"707.667 1258.17 OFFCURVE",
"710.333 1245 OFFCURVE",
"713 1233 CURVE SMOOTH",
"888 513 LINE"
);
},
{
closed = 1;
nodes = (
"990 1542 LINE",
"804 1809 LINE",
"728 1809 LINE",
"481 1542 LINE",
"545 1542 LINE SMOOTH",
"549.667 1542 OFFCURVE",
"555.333 1543 OFFCURVE",
"562 1545 CURVE SMOOTH",
"568.667 1547 OFFCURVE",
"575.667 1551.67 OFFCURVE",
"583 1559 CURVE",
"751 1745 LINE",
"752.333 1746.33 OFFCURVE",
"753.5 1747.83 OFFCURVE",
"754.5 1749.5 CURVE SMOOTH",
"755.5 1751.17 OFFCURVE",
"756.667 1753 OFFCURVE",
"758 1755 CURVE",
"764 1745 LINE",
"890 1559 LINE SMOOTH",
"895.333 1551.67 OFFCURVE",
"901.167 1547 OFFCURVE",
"907.5 1545 CURVE SMOOTH",
"913.833 1543 OFFCURVE",
"919.333 1542 OFFCURVE",
"924 1542 CURVE SMOOTH"
);
}
);
width = 1217;
}
);
leftKerningGroup = A;
rightKerningGroup = A;
unicode = 00C2;
},
{
glyphname = Adieresis;
layers = (
{
layerId = "97227C28-C7C3-40A5-B3DE-4B1AC4F48489";
name = "Light Italic";
paths = (
{
closed = 1;
nodes = (
"0 0 LINE"
);
},
{
closed = 1;
nodes = (
"1117 0 LINE",
"758 1415 LINE",
"659 1415 LINE",
"-47 0 LINE",
"29 0 LINE SMOOTH",
"37.6667 0 OFFCURVE",
"45.6667 2.5 OFFCURVE",
"53 7.5 CURVE SMOOTH",
"60.3333 12.5 OFFCURVE",
"65.6667 18.6667 OFFCURVE",
"69 26 CURVE SMOOTH",
"272 440 LINE",
"906 440 LINE",
"1007 26 LINE SMOOTH",
"1009 18.6667 OFFCURVE",
"1012.67 12.5 OFFCURVE",
"1018 7.5 CURVE SMOOTH",
"1023.33 2.5 OFFCURVE",
"1030.67 0 OFFCURVE",
"1040 0 CURVE SMOOTH"
);
},
{
closed = 1;
nodes = (
"308 513 LINE",
"660 1232 LINE",
"665.333 1244 OFFCURVE",
"671.167 1257.33 OFFCURVE",
"677.5 1272 CURVE SMOOTH",
"683.833 1286.67 OFFCURVE",
"690.333 1302 OFFCURVE",
"697 1318 CURVE",
"699.667 1302 OFFCURVE",
"702.333 1286.83 OFFCURVE",
"705 1272.5 CURVE SMOOTH",
"707.667 1258.17 OFFCURVE",
"710.333 1245 OFFCURVE",
"713 1233 CURVE SMOOTH",
"888 513 LINE"
);
},
{
closed = 1;
nodes = (
"639 1673.33 OFFCURVE",
"636.667 1684 OFFCURVE",
"632 1694 CURVE SMOOTH",
"627.333 1704 OFFCURVE",
"621.167 1712.83 OFFCURVE",
"613.5 1720.5 CURVE SMOOTH",
"605.833 1728.17 OFFCURVE",
"597 1734.17 OFFCURVE",
"587 1738.5 CURVE SMOOTH",
"577 1742.83 OFFCURVE",
"566.667 1745 OFFCURVE",
"556 1745 CURVE SMOOTH",
"544.667 1745 OFFCURVE",
"534.167 1742.83 OFFCURVE",
"524.5 1738.5 CURVE SMOOTH",
"514.833 1734.17 OFFCURVE",
"506.167 1728.17 OFFCURVE",
"498.5 1720.5 CURVE SMOOTH",
"490.833 1712.83 OFFCURVE",
"484.833 1704 OFFCURVE",
"480.5 1694 CURVE SMOOTH",
"476.167 1684 OFFCURVE",
"474 1673.33 OFFCURVE",
"474 1662 CURVE SMOOTH",
"474 1640 OFFCURVE",
"482.167 1621 OFFCURVE",
"498.5 1605 CURVE SMOOTH",
"514.833 1589 OFFCURVE",
"534 1581 OFFCURVE",
"556 1581 CURVE SMOOTH",
"566.667 1581 OFFCURVE",
"577 1583.17 OFFCURVE",
"587 1587.5 CURVE SMOOTH",
"597 1591.83 OFFCURVE",
"605.833 1597.67 OFFCURVE",
"613.5 1605 CURVE SMOOTH",
"621.167 1612.33 OFFCURVE",
"627.333 1620.83 OFFCURVE",
"632 1630.5 CURVE SMOOTH",
"636.667 1640.17 OFFCURVE",
"639 1650.67 OFFCURVE",
"639 1662 CURVE SMOOTH"
);
},
{
closed = 1;
nodes = (
"996 1673.33 OFFCURVE",
"993.667 1684 OFFCURVE",
"989 1694 CURVE SMOOTH",
"984.333 1704 OFFCURVE",
"978.333 1712.83 OFFCURVE",
"971 1720.5 CURVE SMOOTH",
"963.667 1728.17 OFFCURVE",
"955 1734.17 OFFCURVE",
"945 1738.5 CURVE SMOOTH",
"935 1742.83 OFFCURVE",
"924.667 1745 OFFCURVE",
"914 1745 CURVE SMOOTH",
"891.333 1745 OFFCURVE",
"872 1736.83 OFFCURVE",
"856 1720.5 CURVE SMOOTH",
"840 1704.17 OFFCURVE",
"832 1684.67 OFFCURVE",
"832 1662 CURVE SMOOTH",
"832 1640 OFFCURVE",
"840 1621 OFFCURVE",
"856 1605 CURVE SMOOTH",
"872 1589 OFFCURVE",
"891.333 1581 OFFCURVE",
"914 1581 CURVE SMOOTH",
"924.667 1581 OFFCURVE",
"935 1583.17 OFFCURVE",
"945 1587.5 CURVE SMOOTH",
"955 1591.83 OFFCURVE",
"963.667 1597.67 OFFCURVE",
"971 1605 CURVE SMOOTH",
"978.333 1612.33 OFFCURVE",
"984.333 1620.83 OFFCURVE",
"989 1630.5 CURVE SMOOTH",
"993.667 1640.17 OFFCURVE",
"996 1650.67 OFFCURVE",
"996 1662 CURVE SMOOTH"
);
}
);
width = 1217;
}
);
leftKerningGroup = A;
rightKerningGroup = A;
unicode = 00C4;
},
{
glyphname = Agrave;
layers = (
{
layerId = "97227C28-C7C3-40A5-B3DE-4B1AC4F48489";
name = "Light Italic";
paths = (
{
closed = 1;
nodes = (
"0 0 LINE"
);
},
{
closed = 1;
nodes = (
"1117 0 LINE",
"758 1415 LINE",
"659 1415 LINE",
"-47 0 LINE",
"29 0 LINE SMOOTH",
"37.6667 0 OFFCURVE",
"45.6667 2.5 OFFCURVE",
"53 7.5 CURVE SMOOTH",
"60.3333 12.5 OFFCURVE",
"65.6667 18.6667 OFFCURVE",
"69 26 CURVE SMOOTH",
"272 440 LINE",
"906 440 LINE",
"1007 26 LINE SMOOTH",
"1009 18.6667 OFFCURVE",
"1012.67 12.5 OFFCURVE",
"1018 7.5 CURVE SMOOTH",
"1023.33 2.5 OFFCURVE",
"1030.67 0 OFFCURVE",
"1040 0 CURVE SMOOTH"
);
},
{
closed = 1;
nodes = (
"308 513 LINE",
"660 1232 LINE",
"665.333 1244 OFFCURVE",
"671.167 1257.33 OFFCURVE",
"677.5 1272 CURVE SMOOTH",
"683.833 1286.67 OFFCURVE",
"690.333 1302 OFFCURVE",
"697 1318 CURVE",
"699.667 1302 OFFCURVE",
"702.333 1286.83 OFFCURVE",
"705 1272.5 CURVE SMOOTH",
"707.667 1258.17 OFFCURVE",
"710.333 1245 OFFCURVE",
"713 1233 CURVE SMOOTH",
"888 513 LINE"
);
},
{
closed = 1;
nodes = (
"448 1841 LINE",
"695 1554 LINE SMOOTH",
"699.667 1548.67 OFFCURVE",
"704.5 1545.33 OFFCURVE",
"709.5 1544 CURVE SMOOTH",
"714.5 1542.67 OFFCURVE",
"720.667 1542 OFFCURVE",
"728 1542 CURVE SMOOTH",
"789 1542 LINE",
"600 1819 LINE",
"594 1829 OFFCURVE",
"587.333 1835.17 OFFCURVE",
"580 1837.5 CURVE SMOOTH",
"572.667 1839.83 OFFCURVE",
"561.333 1841 OFFCURVE",
"546 1841 CURVE SMOOTH"
);
}
);
width = 1217;
}
);
leftKerningGroup = A;
rightKerningGroup = A;
unicode = 00C0;
},
{
glyphname = Aring;
layers = (
{
layerId = "97227C28-C7C3-40A5-B3DE-4B1AC4F48489";
name = "Light Italic";
paths = (
{
closed = 1;
nodes = (
"0 0 LINE"
);
},
{
closed = 1;
nodes = (
"1117 0 LINE",
"758 1415 LINE",
"659 1415 LINE",
"-47 0 LINE",
"29 0 LINE SMOOTH",
"37.6667 0 OFFCURVE",
"45.6667 2.5 OFFCURVE",
"53 7.5 CURVE SMOOTH",
"60.3333 12.5 OFFCURVE",
"65.6667 18.6667 OFFCURVE",
"69 26 CURVE SMOOTH",
"272 440 LINE",
"906 440 LINE",
"1007 26 LINE SMOOTH",
"1009 18.6667 OFFCURVE",
"1012.67 12.5 OFFCURVE",
"1018 7.5 CURVE SMOOTH",
"1023.33 2.5 OFFCURVE",
"1030.67 0 OFFCURVE",
"1040 0 CURVE SMOOTH"
);
},
{
closed = 1;
nodes = (
"308 513 LINE",
"660 1232 LINE",
"665.333 1244 OFFCURVE",
"671.167 1257.33 OFFCURVE",
"677.5 1272 CURVE SMOOTH",
"683.833 1286.67 OFFCURVE",
"690.333 1302 OFFCURVE",
"697 1318 CURVE",
"699.667 1302 OFFCURVE",
"702.333 1286.83 OFFCURVE",
"705 1272.5 CURVE SMOOTH",
"707.667 1258.17 OFFCURVE",
"710.333 1245 OFFCURVE",
"713 1233 CURVE SMOOTH",
"888 513 LINE"
);
},
{
closed = 1;
nodes = (
"585.333 1661.67 OFFCURVE",
"587 1640.33 OFFCURVE",
"593 1621 CURVE SMOOTH",
"599 1601.67 OFFCURVE",
"608.333 1585 OFFCURVE",
"621 1571 CURVE SMOOTH",
"633.667 1557 OFFCURVE",
"648.833 1546 OFFCURVE",
"666.5 1538 CURVE SMOOTH",
"684.167 1530 OFFCURVE",
"703.333 1526 OFFCURVE",
"724 1526 CURVE SMOOTH",
"744.667 1526 OFFCURVE",
"764.833 1530 OFFCURVE",
"784.5 1538 CURVE SMOOTH",
"804.167 1546 OFFCURVE",
"821.833 1557 OFFCURVE",
"837.5 1571 CURVE SMOOTH",
"853.167 1585 OFFCURVE",
"866.333 1601.67 OFFCURVE",
"877 1621 CURVE SMOOTH",
"887.667 1640.33 OFFCURVE",
"894.333 1661.67 OFFCURVE",
"897 1685 CURVE SMOOTH",
"899.667 1707.67 OFFCURVE",
"898 1728.83 OFFCURVE",
"892 1748.5 CURVE SMOOTH",
"886 1768.17 OFFCURVE",
"876.667 1785 OFFCURVE",
"864 1799 CURVE SMOOTH",
"851.333 1813 OFFCURVE",
"836.167 1824 OFFCURVE",
"818.5 1832 CURVE SMOOTH",
"800.833 1840 OFFCURVE",
"781.333 1844 OFFCURVE",
"760 1844 CURVE SMOOTH",
"739.333 1844 OFFCURVE",
"719.167 1840 OFFCURVE",
"699.5 1832 CURVE SMOOTH",
"679.833 1824 OFFCURVE",
"662.333 1813 OFFCURVE",
"647 1799 CURVE SMOOTH",
"631.667 1785 OFFCURVE",
"618.667 1768.17 OFFCURVE",
"608 1748.5 CURVE SMOOTH",
"597.333 1728.83 OFFCURVE",
"590.667 1707.67 OFFCURVE",
"588 1685 CURVE SMOOTH"
);
},
{
closed = 1;
nodes = (
"641.333 1718.33 OFFCURVE",
"654 1745.67 OFFCURVE",
"676 1767 CURVE SMOOTH",
"698 1788.33 OFFCURVE",
"724.667 1799 OFFCURVE",
"756 1799 CURVE SMOOTH",
"786.667 1799 OFFCURVE",
"810.5 1788.33 OFFCURVE",
"827.5 1767 CURVE SMOOTH",
"844.5 1745.67 OFFCURVE",
"851.333 1718.33 OFFCURVE",
"848 1685 CURVE SMOOTH",
"846 1668.33 OFFCURVE",
"841.667 1653 OFFCURVE",
"835 1639 CURVE SMOOTH",
"828.333 1625 OFFCURVE",
"819.667 1613 OFFCURVE",
"809 1603 CURVE SMOOTH",
"798.333 1593 OFFCURVE",
"786.333 1585.17 OFFCURVE",
"773 1579.5 CURVE SMOOTH",
"759.667 1573.83 OFFCURVE",
"745.667 1571 OFFCURVE",
"731 1571 CURVE SMOOTH",
"699.667 1571 OFFCURVE",
"675.333 1581.67 OFFCURVE",
"658 1603 CURVE SMOOTH",
"640.667 1624.33 OFFCURVE",
"634 1651.67 OFFCURVE",
"638 1685 CURVE SMOOTH"
);
}
);
width = 1217;
}
);
leftKerningGroup = A;
rightKerningGroup = A;
unicode = 00C5;
},
{
glyphname = Atilde;
layers = (
{
layerId = "97227C28-C7C3-40A5-B3DE-4B1AC4F48489";
name = "Light Italic";
paths = (
{
closed = 1;
nodes = (
"0 0 LINE"
);
},
{
closed = 1;
nodes = (
"1117 0 LINE",
"758 1415 LINE",
"659 1415 LINE",
"-47 0 LINE",
"29 0 LINE SMOOTH",
"37.6667 0 OFFCURVE",
"45.6667 2.5 OFFCURVE",
"53 7.5 CURVE SMOOTH",
"60.3333 12.5 OFFCURVE",
"65.6667 18.6667 OFFCURVE",
"69 26 CURVE SMOOTH",
"272 440 LINE",
"906 440 LINE",
"1007 26 LINE SMOOTH",
"1009 18.6667 OFFCURVE",
"1012.67 12.5 OFFCURVE",
"1018 7.5 CURVE SMOOTH",
"1023.33 2.5 OFFCURVE",
"1030.67 0 OFFCURVE",
"1040 0 CURVE SMOOTH"
);
},
{
closed = 1;
nodes = (
"308 513 LINE",
"660 1232 LINE",
"665.333 1244 OFFCURVE",
"671.167 1257.33 OFFCURVE",
"677.5 1272 CURVE SMOOTH",
"683.833 1286.67 OFFCURVE",
"690.333 1302 OFFCURVE",
"697 1318 CURVE",
"699.667 1302 OFFCURVE",
"702.333 1286.83 OFFCURVE",
"705 1272.5 CURVE SMOOTH",
"707.667 1258.17 OFFCURVE",
"710.333 1245 OFFCURVE",
"713 1233 CURVE SMOOTH",
"888 513 LINE"
);
},
{
closed = 1;
nodes = (
"842.667 1616 OFFCURVE",
"826 1621.83 OFFCURVE",
"810 1633.5 CURVE SMOOTH",
"794 1645.17 OFFCURVE",
"777.5 1657.83 OFFCURVE",
"760.5 1671.5 CURVE SMOOTH",
"743.5 1685.17 OFFCURVE",
"725.333 1697.83 OFFCURVE",
"706 1709.5 CURVE SMOOTH",
"686.667 1721.17 OFFCURVE",
"665 1727 OFFCURVE",
"641 1727 CURVE SMOOTH",
"619 1727 OFFCURVE",
"598.833 1722.17 OFFCURVE",
"580.5 1712.5 CURVE SMOOTH",
"562.167 1702.83 OFFCURVE",
"546 1690 OFFCURVE",
"532 1674 CURVE SMOOTH",
"518 1658 OFFCURVE",
"506.667 1639.5 OFFCURVE",
"498 1618.5 CURVE SMOOTH",
"489.333 1597.5 OFFCURVE",
"483.667 1575.67 OFFCURVE",
"481 1553 CURVE",
"537 1553 LINE",
"539 1567 OFFCURVE",
"542.833 1580.5 OFFCURVE",
"548.5 1593.5 CURVE SMOOTH",
"554.167 1606.5 OFFCURVE",
"561.667 1618 OFFCURVE",
"571 1628 CURVE SMOOTH",
"580.333 1638 OFFCURVE",
"591 1646 OFFCURVE",
"603 1652 CURVE SMOOTH",
"615 1658 OFFCURVE",
"628.333 1661 OFFCURVE",
"643 1661 CURVE SMOOTH",
"660.333 1661 OFFCURVE",
"677.167 1655.17 OFFCURVE",
"693.5 1643.5 CURVE SMOOTH",
"709.833 1631.83 OFFCURVE",
"726.5 1619.17 OFFCURVE",
"743.5 1605.5 CURVE SMOOTH",
"760.5 1591.83 OFFCURVE",
"778.5 1579.17 OFFCURVE",
"797.5 1567.5 CURVE SMOOTH",
"816.5 1555.83 OFFCURVE",
"837.667 1550 OFFCURVE",
"861 1550 CURVE SMOOTH",
"883.667 1550 OFFCURVE",
"904.167 1554.67 OFFCURVE",
"922.5 1564 CURVE SMOOTH",
"940.833 1573.33 OFFCURVE",
"956.833 1586 OFFCURVE",
"970.5 1602 CURVE SMOOTH",
"984.167 1618 OFFCURVE",
"995.167 1636.5 OFFCURVE",
"1003.5 1657.5 CURVE SMOOTH",
"1011.83 1678.5 OFFCURVE",
"1017.33 1700.67 OFFCURVE",
"1020 1724 CURVE",
"966 1724 LINE",
"964 1710 OFFCURVE",
"960.167 1696.5 OFFCURVE",
"954.5 1683.5 CURVE SMOOTH",
"948.833 1670.5 OFFCURVE",
"941.5 1659 OFFCURVE",
"932.5 1649 CURVE SMOOTH",
"923.5 1639 OFFCURVE",
"912.833 1631 OFFCURVE",
"900.5 1625 CURVE SMOOTH",
"888.167 1619 OFFCURVE",
"874.667 1616 OFFCURVE",
"860 1616 CURVE SMOOTH"
);
}
);
width = 1217;
}
);
leftKerningGroup = A;
rightKerningGroup = A;
unicode = 00C3;
},
{
glyphname = AE;
layers = (
{
layerId = "97227C28-C7C3-40A5-B3DE-4B1AC4F48489";
name = "Light Italic";
paths = (
{
closed = 1;
nodes = (
"1715 1333 LINE",
"1725 1415 LINE",
"835 1415 LINE",
"-52 0 LINE",
"25 0 LINE SMOOTH",
"34.3333 0 OFFCURVE",
"42.6667 2.5 OFFCURVE",
"50 7.5 CURVE SMOOTH",
"57.3333 12.5 OFFCURVE",
"63.3333 18.6667 OFFCURVE",
"68 26 CURVE SMOOTH",
"326 440 LINE",
"871 440 LINE",
"871 0 LINE",
"1551 0 LINE",
"1563 82 LINE",
"964 82 LINE",
"964 676 LINE",
"1519 676 LINE",
"1530 756 LINE",
"964 756 LINE",
"964 1333 LINE"
);
},
{
closed = 1;
nodes = (
"371 513 LINE",
"827 1245 LINE",
"835 1259 OFFCURVE",
"842.667 1273.17 OFFCURVE",
"850 1287.5 CURVE SMOOTH",
"857.333 1301.83 OFFCURVE",
"864.333 1317.33 OFFCURVE",
"871 1334 CURVE",
"871 513 LINE"
);
}
);
width = 1725;
}
);
leftKerningGroup = AE;
rightKerningGroup = E;
unicode = 00C6;
},
{
glyphname = B;
layers = (
{
layerId = "97227C28-C7C3-40A5-B3DE-4B1AC4F48489";
name = "Light Italic";
paths = (
{
closed = 1;
nodes = (
"124 0 LINE",
"549 0 LINE SMOOTH",
"625.667 0 OFFCURVE",
"694.333 10 OFFCURVE",
"755 30 CURVE SMOOTH",
"815.667 50 OFFCURVE",
"867.167 78.6667 OFFCURVE",
"909.5 116 CURVE SMOOTH",
"951.833 153.333 OFFCURVE",
"984.167 198.5 OFFCURVE",
"1006.5 251.5 CURVE SMOOTH",
"1028.83 304.5 OFFCURVE",
"1040 363.667 OFFCURVE",
"1040 429 CURVE SMOOTH",
"1040 509.667 OFFCURVE",
"1015.67 575.167 OFFCURVE",
"967 625.5 CURVE SMOOTH",
"918.333 675.833 OFFCURVE",
"848 708.667 OFFCURVE",
"756 724 CURVE",
"804.667 736 OFFCURVE",
"848.333 754.167 OFFCURVE",
"887 778.5 CURVE SMOOTH",
"925.667 802.833 OFFCURVE",
"958.5 831.833 OFFCURVE",
"985.5 865.5 CURVE SMOOTH",
"1012.5 899.167 OFFCURVE",
"1033.33 936.667 OFFCURVE",
"1048 978 CURVE SMOOTH",
"1062.67 1019.33 OFFCURVE",
"1070 1062.67 OFFCURVE",
"1070 1108 CURVE SMOOTH",
"1070 1156 OFFCURVE",
"1062.17 1199 OFFCURVE",
"1046.5 1237 CURVE SMOOTH",
"1030.83 1275 OFFCURVE",
"1006.67 1307.17 OFFCURVE",
"974 1333.5 CURVE SMOOTH",
"941.333 1359.83 OFFCURVE",
"900.333 1380 OFFCURVE",
"851 1394 CURVE SMOOTH",
"801.667 1408 OFFCURVE",
"743 1415 OFFCURVE",
"675 1415 CURVE SMOOTH",
"298 1415 LINE"
);
},
{
closed = 1;
nodes = (
"307 679 LINE",
"632 679 LINE SMOOTH",
"681.333 679 OFFCURVE",
"725.167 673 OFFCURVE",
"763.5 661 CURVE SMOOTH",
"801.833 649 OFFCURVE",
"834.167 632 OFFCURVE",
"860.5 610 CURVE SMOOTH",
"886.833 588 OFFCURVE",
"906.833 561.5 OFFCURVE",
"920.5 530.5 CURVE SMOOTH",
"934.167 499.5 OFFCURVE",
"941 464.667 OFFCURVE",
"941 426 CURVE SMOOTH",
"941 315.333 OFFCURVE",
"908 229.833 OFFCURVE",
"842 169.5 CURVE SMOOTH",
"776 109.167 OFFCURVE",
"681 79 OFFCURVE",
"557 79 CURVE SMOOTH",
"233 79 LINE"
);
},
{
closed = 1;
nodes = (
"316 751 LINE",
"388 1336 LINE",
"666 1336 LINE SMOOTH",
"769.333 1336 OFFCURVE",
"845.833 1315 OFFCURVE",
"895.5 1273 CURVE SMOOTH",
"945.167 1231 OFFCURVE",
"970 1170.33 OFFCURVE",
"970 1091 CURVE SMOOTH",
"970 1047.67 OFFCURVE",
"962.667 1005.67 OFFCURVE",
"948 965 CURVE SMOOTH",
"933.333 924.333 OFFCURVE",
"910.667 888.167 OFFCURVE",
"880 856.5 CURVE SMOOTH",
"849.333 824.833 OFFCURVE",
"810.333 799.333 OFFCURVE",
"763 780 CURVE SMOOTH",
"715.667 760.667 OFFCURVE",
"659.667 751 OFFCURVE",
"595 751 CURVE SMOOTH"
);
}
);
width = 1176;
}
);
leftKerningGroup = B;
rightKerningGroup = B;
unicode = 0042;
},
{
glyphname = C;
layers = (
{
layerId = "97227C28-C7C3-40A5-B3DE-4B1AC4F48489";
name = "Light Italic";
paths = (
{
closed = 1;
nodes = (
"601 69 OFFCURVE",
"540.667 81.3333 OFFCURVE",
"486 106 CURVE SMOOTH",
"431.333 130.667 OFFCURVE",
"384.333 166.167 OFFCURVE",
"345 212.5 CURVE SMOOTH",
"305.667 258.833 OFFCURVE",
"275 315.167 OFFCURVE",
"253 381.5 CURVE SMOOTH",
"231 447.833 OFFCURVE",
"220 522.333 OFFCURVE",
"220 605 CURVE SMOOTH",
"220 718.333 OFFCURVE",
"236 820.667 OFFCURVE",
"268 912 CURVE SMOOTH",
"300 1003.33 OFFCURVE",
"344 1081 OFFCURVE",
"400 1145 CURVE SMOOTH",
"456 1209 OFFCURVE",
"522 1258.33 OFFCURVE",
"598 1293 CURVE SMOOTH",
"674 1327.67 OFFCURVE",
"756 1345 OFFCURVE",
"844 1345 CURVE SMOOTH",
"886.667 1345 OFFCURVE",
"924.333 1341.5 OFFCURVE",
"957 1334.5 CURVE SMOOTH",
"989.667 1327.5 OFFCURVE",
"1018.17 1318.83 OFFCURVE",
"1042.5 1308.5 CURVE SMOOTH",
"1066.83 1298.17 OFFCURVE",
"1087.5 1286.83 OFFCURVE",
"1104.5 1274.5 CURVE SMOOTH",
"1121.5 1262.17 OFFCURVE",
"1135.83 1250.83 OFFCURVE",
"1147.5 1240.5 CURVE SMOOTH",
"1159.17 1230.17 OFFCURVE",
"1168.83 1221.5 OFFCURVE",
"1176.5 1214.5 CURVE SMOOTH",
"1184.17 1207.5 OFFCURVE",
"1191 1204 OFFCURVE",
"1197 1204 CURVE SMOOTH",
"1207 1204 OFFCURVE",
"1215.67 1208 OFFCURVE",
"1223 1216 CURVE",
"1255 1256 LINE",
"1229.67 1284 OFFCURVE",
"1203.5 1309 OFFCURVE",
"1176.5 1331 CURVE SMOOTH",
"1149.5 1353 OFFCURVE",
"1119.83 1371.33 OFFCURVE",
"1087.5 1386 CURVE SMOOTH",
"1055.17 1400.67 OFFCURVE",
"1019.67 1411.83 OFFCURVE",
"981 1419.5 CURVE SMOOTH",
"942.333 1427.17 OFFCURVE",
"898.667 1431 OFFCURVE",
"850 1431 CURVE SMOOTH",
"746.667 1431 OFFCURVE",
"650.5 1410.83 OFFCURVE",
"561.5 1370.5 CURVE SMOOTH",
"472.5 1330.17 OFFCURVE",
"395.167 1273.33 OFFCURVE",
"329.5 1200 CURVE SMOOTH",
"263.833 1126.67 OFFCURVE",
"212.167 1038.83 OFFCURVE",
"174.5 936.499 CURVE SMOOTH",
"136.833 834.166 OFFCURVE",
"118 721.333 OFFCURVE",
"118 597.999 CURVE SMOOTH",
"118 505.999 OFFCURVE",
"130.5 422.333 OFFCURVE",
"155.5 346.999 CURVE SMOOTH",
"180.5 271.666 OFFCURVE",
"216.167 206.999 OFFCURVE",
"262.5 152.999 CURVE SMOOTH",
"308.833 98.9993 OFFCURVE",
"364.833 57.3327 OFFCURVE",
"430.5 27.9993 CURVE SMOOTH",
"496.167 -1 OFFCURVE",
"569.667 -16 OFFCURVE",
"651 -16 CURVE SMOOTH",
"757.667 -16 OFFCURVE",
"850.833 2.49934 OFFCURVE",
"930.5 39.4993 CURVE SMOOTH",
"1010.17 76.4993 OFFCURVE",
"1080.67 125.999 OFFCURVE",
"1142 187.999 CURVE",
"1106 229.999 LINE",
"1103.33 233.999 OFFCURVE",
"1099 235.999 OFFCURVE",
"1093 235.999 CURVE SMOOTH",
"1087.67 235.999 OFFCURVE",
"1080.33 231.833 OFFCURVE",
"1071 223.499 CURVE SMOOTH",
"1061.67 215.166 OFFCURVE",
"1049.33 204.833 OFFCURVE",
"1034 192.499 CURVE SMOOTH",
"1018.67 180.166 OFFCURVE",
"1000.17 166.833 OFFCURVE",
"978.5 152.499 CURVE SMOOTH",
"956.833 138.166 OFFCURVE",
"931 124.833 OFFCURVE",
"901 112.499 CURVE SMOOTH",
"871 100.166 OFFCURVE",
"836.666 89.8327 OFFCURVE",
"798 81.4993 CURVE SMOOTH",
"759.333 73.166 OFFCURVE",
"715.666 68.9993 OFFCURVE",
"667 68.9993 CURVE SMOOTH"
);
}
);
width = 1258;
}
);
leftKerningGroup = C;
rightKerningGroup = C;
unicode = 0043;
},
{
glyphname = Ccedilla;
layers = (
{
layerId = "97227C28-C7C3-40A5-B3DE-4B1AC4F48489";
name = "Light Italic";
paths = (
{
closed = 1;
nodes = (
"501.667 -276 OFFCURVE",
"496 -280 OFFCURVE",
"492 -287 CURVE",
"478 -315 LINE",
"493.333 -328 OFFCURVE",
"512.333 -338 OFFCURVE",
"535 -346 CURVE SMOOTH",
"557.667 -353 OFFCURVE",
"581.333 -357 OFFCURVE",
"606 -357 CURVE SMOOTH",
"632.667 -357 OFFCURVE",
"657.667 -354 OFFCURVE",
"681 -348 CURVE SMOOTH",
"704.333 -341 OFFCURVE",
"724.333 -332 OFFCURVE",
"741 -320 CURVE SMOOTH",
"757.667 -307 OFFCURVE",
"770.833 -292 OFFCURVE",
"780.5 -275 CURVE SMOOTH",
"790.167 -257 OFFCURVE",
"795 -237 OFFCURVE",
"795 -214 CURVE SMOOTH",
"795 -180 OFFCURVE",
"782 -154 OFFCURVE",
"756 -136 CURVE SMOOTH",
"730 -117 OFFCURVE",
"692 -103 OFFCURVE",
"642 -94 CURVE",
"674 -16 LINE",
"775.333 -13 OFFCURVE",
"863.667 7 OFFCURVE",
"939 43 CURVE SMOOTH",
"1014.33 79 OFFCURVE",
"1082 127.333 OFFCURVE",
"1142 188 CURVE",
"1106 230 LINE",
"1103.33 234 OFFCURVE",
"1099 236 OFFCURVE",
"1093 236 CURVE SMOOTH",
"1087.67 236 OFFCURVE",
"1080.33 231.833 OFFCURVE",
"1071 223.5 CURVE SMOOTH",
"1061.67 215.167 OFFCURVE",
"1049.33 204.833 OFFCURVE",
"1034 192.5 CURVE SMOOTH",
"1018.67 180.167 OFFCURVE",
"1000.17 166.833 OFFCURVE",
"978.5 152.5 CURVE SMOOTH",
"956.833 138.167 OFFCURVE",
"931 124.833 OFFCURVE",
"901 112.5 CURVE SMOOTH",
"871 100.167 OFFCURVE",
"836.666 89.8333 OFFCURVE",
"798 81.5 CURVE SMOOTH",
"759.333 73.1667 OFFCURVE",
"715.666 69 OFFCURVE",
"667 69 CURVE SMOOTH",
"601 69 OFFCURVE",
"540.666 81.3333 OFFCURVE",
"486 106 CURVE SMOOTH",
"431.333 130.667 OFFCURVE",
"384.333 166.167 OFFCURVE",
"345 212.5 CURVE SMOOTH",
"305.666 258.833 OFFCURVE",
"275 315.167 OFFCURVE",
"253 381.5 CURVE SMOOTH",
"231 447.833 OFFCURVE",
"220 522.333 OFFCURVE",
"220 605 CURVE SMOOTH",
"220 718.333 OFFCURVE",
"236 820.667 OFFCURVE",
"268 912 CURVE SMOOTH",
"300 1003.33 OFFCURVE",
"344 1081 OFFCURVE",
"400 1145 CURVE SMOOTH",
"456 1209 OFFCURVE",
"522 1258.33 OFFCURVE",
"598 1293 CURVE SMOOTH",
"674 1327.67 OFFCURVE",
"756 1345 OFFCURVE",
"844 1345 CURVE SMOOTH",
"886.666 1345 OFFCURVE",
"924.333 1341.5 OFFCURVE",
"957 1334.5 CURVE SMOOTH",
"989.666 1327.5 OFFCURVE",
"1018.17 1318.83 OFFCURVE",
"1042.5 1308.5 CURVE SMOOTH",
"1066.83 1298.17 OFFCURVE",
"1087.5 1286.83 OFFCURVE",
"1104.5 1274.5 CURVE SMOOTH",
"1121.5 1262.17 OFFCURVE",
"1135.83 1250.83 OFFCURVE",
"1147.5 1240.5 CURVE SMOOTH",
"1159.17 1230.17 OFFCURVE",
"1168.83 1221.5 OFFCURVE",
"1176.5 1214.5 CURVE SMOOTH",
"1184.17 1207.5 OFFCURVE",
"1191 1204 OFFCURVE",
"1197 1204 CURVE SMOOTH",
"1207 1204 OFFCURVE",
"1215.67 1208 OFFCURVE",
"1223 1216 CURVE",
"1255 1256 LINE",
"1229.67 1284 OFFCURVE",
"1203.5 1309 OFFCURVE",
"1176.5 1331 CURVE SMOOTH",
"1149.5 1353 OFFCURVE",
"1119.83 1371.33 OFFCURVE",
"1087.5 1386 CURVE SMOOTH",
"1055.17 1400.67 OFFCURVE",
"1019.67 1411.83 OFFCURVE",
"981 1419.5 CURVE SMOOTH",
"942.333 1427.17 OFFCURVE",
"898.666 1431 OFFCURVE",
"850 1431 CURVE SMOOTH",
"746.666 1431 OFFCURVE",
"650.5 1410.83 OFFCURVE",
"561.5 1370.5 CURVE SMOOTH",
"472.5 1330.17 OFFCURVE",
"395.166 1273.33 OFFCURVE",
"329.5 1200 CURVE SMOOTH",
"263.833 1126.67 OFFCURVE",
"212.166 1038.83 OFFCURVE",
"174.5 936.499 CURVE SMOOTH",
"136.833 834.166 OFFCURVE",
"118 721.333 OFFCURVE",
"118 597.999 CURVE SMOOTH",
"118 509.333 OFFCURVE",
"129.666 428.333 OFFCURVE",
"153 354.999 CURVE SMOOTH",
"176.333 281.666 OFFCURVE",
"209.666 218.166 OFFCURVE",
"253 164.499 CURVE SMOOTH",
"296.333 110.833 OFFCURVE",
"348.666 68.4993 OFFCURVE",
"410 37.4993 CURVE SMOOTH",
"471.333 6.49934 OFFCURVE",
"540.333 -11 OFFCURVE",
"617 -15 CURVE",
"568 -131 LINE",
"590 -134 OFFCURVE",
"610.166 -138 OFFCURVE",
"628.5 -142 CURVE SMOOTH",
"646.833 -145 OFFCURVE",
"662.666 -150 OFFCURVE",
"676 -157 CURVE SMOOTH",
"689.333 -164 OFFCURVE",
"699.666 -172 OFFCURVE",
"707 -182 CURVE SMOOTH",
"714.333 -192 OFFCURVE",
"718 -204 OFFCURVE",
"718 -219 CURVE SMOOTH",
"718 -247 OFFCURVE",
"708.666 -269 OFFCURVE",
"690 -286 CURVE SMOOTH",
"671.333 -302 OFFCURVE",
"645 -310 OFFCURVE",
"611 -310 CURVE SMOOTH",
"593.666 -310 OFFCURVE",
"579.333 -308 OFFCURVE",
"568 -305 CURVE SMOOTH",
"556.666 -301 OFFCURVE",
"547.166 -297 OFFCURVE",
"539.5 -293 CURVE SMOOTH",
"531.833 -289 OFFCURVE",
"525.666 -285 OFFCURVE",
"521 -282 CURVE SMOOTH",
"516.333 -278 OFFCURVE",
"512.333 -276 OFFCURVE",
"509 -276 CURVE SMOOTH"
);
}
);
width = 1258;
}
);
leftKerningGroup = C;
rightKerningGroup = C;
unicode = 00C7;
},
{
glyphname = D;
layers = (
{
layerId = "97227C28-C7C3-40A5-B3DE-4B1AC4F48489";
name = "Light Italic";
paths = (
{
closed = 1;
nodes = (
"1318 906.333 OFFCURVE",
"1305.33 989 OFFCURVE",
"1280 1063 CURVE SMOOTH",
"1254.67 1137 OFFCURVE",
"1218.5 1200 OFFCURVE",
"1171.5 1252 CURVE SMOOTH",
"1124.5 1304 OFFCURVE",
"1067.33 1344.17 OFFCURVE",
"1000 1372.5 CURVE SMOOTH",
"932.667 1400.83 OFFCURVE",
"857.333 1415 OFFCURVE",
"774 1415 CURVE SMOOTH",
"298 1415 LINE",
"124 0 LINE",
"600 0 LINE SMOOTH",
"668.667 0 OFFCURVE",
"734 8.5 OFFCURVE",
"796 25.5 CURVE SMOOTH",
"858 42.5 OFFCURVE",
"915.667 67.3333 OFFCURVE",
"969 100 CURVE SMOOTH",
"1022.33 132.667 OFFCURVE",
"1070.5 172.667 OFFCURVE",
"1113.5 220 CURVE SMOOTH",
"1156.5 267.333 OFFCURVE",
"1193.17 321.167 OFFCURVE",
"1223.5 381.5 CURVE SMOOTH",
"1253.83 441.833 OFFCURVE",
"1277.17 508.333 OFFCURVE",
"1293.5 581 CURVE SMOOTH",
"1309.83 653.667 OFFCURVE",
"1318 731.667 OFFCURVE",
"1318 815 CURVE SMOOTH"
);
},
{
closed = 1;
nodes = (
"1215 697.667 OFFCURVE",
"1200 594.667 OFFCURVE",
"1170 504 CURVE SMOOTH",
"1140 413.333 OFFCURVE",
"1098 336.667 OFFCURVE",
"1044 274 CURVE SMOOTH",
"990 211.333 OFFCURVE",
"926 163.5 OFFCURVE",
"852 130.5 CURVE SMOOTH",
"778 97.5 OFFCURVE",
"697 81 OFFCURVE",
"609 81 CURVE SMOOTH",
"233 81 LINE",
"388 1334 LINE",
"764 1334 LINE SMOOTH",
"833.333 1334 OFFCURVE",
"895.833 1322 OFFCURVE",
"951.5 1298 CURVE SMOOTH",
"1007.17 1274 OFFCURVE",
"1054.5 1239.67 OFFCURVE",
"1093.5 1195 CURVE SMOOTH",
"1132.5 1150.33 OFFCURVE",
"1162.5 1095.67 OFFCURVE",
"1183.5 1031 CURVE SMOOTH",
"1204.5 966.333 OFFCURVE",
"1215 893.667 OFFCURVE",
"1215 813 CURVE SMOOTH"
);
}
);
width = 1413;
}
);
leftKerningGroup = B;
rightKerningGroup = D;
unicode = 0044;
},
{
glyphname = Eth;
layers = (
{
layerId = "97227C28-C7C3-40A5-B3DE-4B1AC4F48489";
name = "Light Italic";
paths = (
{
closed = 1;
nodes = (
"28 748 LINE",
"20 686 LINE",
"218 686 LINE",
"134 0 LINE",
"610 0 LINE SMOOTH",
"712.667 0 OFFCURVE",
"807.833 19 OFFCURVE",
"895.5 57 CURVE SMOOTH",
"983.167 95 OFFCURVE",
"1059 149.333 OFFCURVE",
"1123 220 CURVE SMOOTH",
"1187 290.667 OFFCURVE",
"1237 376.333 OFFCURVE",
"1273 477 CURVE SMOOTH",
"1309 577.667 OFFCURVE",
"1327 690.333 OFFCURVE",
"1327 815 CURVE SMOOTH",
"1327 906.333 OFFCURVE",
"1314.33 989 OFFCURVE",
"1289 1063 CURVE SMOOTH",
"1263.67 1137 OFFCURVE",
"1227.5 1200 OFFCURVE",
"1180.5 1252 CURVE SMOOTH",
"1133.5 1304 OFFCURVE",
"1076.5 1344.17 OFFCURVE",
"1009.5 1372.5 CURVE SMOOTH",
"942.5 1400.83 OFFCURVE",
"867.333 1415 OFFCURVE",
"784 1415 CURVE SMOOTH",
"308 1415 LINE",
"226 748 LINE"
);
},
{
closed = 1;
nodes = (
"1224 697.667 OFFCURVE",
"1209 594.667 OFFCURVE",
"1179 504 CURVE SMOOTH",
"1149 413.333 OFFCURVE",
"1107.17 336.667 OFFCURVE",
"1053.5 274 CURVE SMOOTH",
"999.833 211.333 OFFCURVE",
"936.167 163.5 OFFCURVE",
"862.5 130.5 CURVE SMOOTH",
"788.833 97.5 OFFCURVE",
"708 81 OFFCURVE",
"620 81 CURVE SMOOTH",
"244 81 LINE",
"318 686 LINE",
"689 686 LINE",
"696 748 LINE",
"325 748 LINE",
"397 1334 LINE",
"774 1334 LINE SMOOTH",
"842.667 1334 OFFCURVE",
"904.833 1322 OFFCURVE",
"960.5 1298 CURVE SMOOTH",
"1016.17 1274 OFFCURVE",
"1063.5 1239.67 OFFCURVE",
"1102.5 1195 CURVE SMOOTH",
"1141.5 1150.33 OFFCURVE",
"1171.5 1095.67 OFFCURVE",
"1192.5 1031 CURVE SMOOTH",
"1213.5 966.333 OFFCURVE",
"1224 893.667 OFFCURVE",
"1224 813 CURVE SMOOTH"
);
}
);
width = 1420;
}
);
leftKerningGroup = B;
rightKerningGroup = D;
unicode = 00D0;
},
{
glyphname = E;
layers = (
{
layerId = "97227C28-C7C3-40A5-B3DE-4B1AC4F48489";
name = "Light Italic";
paths = (
{
closed = 1;
nodes = (
"1069 1333 LINE",
"1080 1415 LINE",
"298 1415 LINE",
"124 0 LINE",
"907 0 LINE",
"918 82 LINE",
"234 82 LINE",
"307 677 LINE",
"873 677 LINE",
"884 757 LINE",
"317 757 LINE",
"388 1333 LINE"
);
}
);
width = 1078;
}
);
leftKerningGroup = B;
rightKerningGroup = E;
unicode = 0045;
},
{
glyphname = Eacute;
layers = (
{
layerId = "97227C28-C7C3-40A5-B3DE-4B1AC4F48489";
name = "Light Italic";
paths = (
{
closed = 1;
nodes = (
"124 0 LINE"
);
},
{
closed = 1;
nodes = (
"1069 1333 LINE",
"1080 1415 LINE",
"298 1415 LINE",
"124 0 LINE",
"907 0 LINE",
"918 82 LINE",
"234 82 LINE",
"307 677 LINE",
"873 677 LINE",
"884 757 LINE",
"317 757 LINE",
"388 1333 LINE"
);
},
{
closed = 1;
nodes = (
"1056 1841 LINE",
"953 1841 LINE SMOOTH",
"938.333 1841 OFFCURVE",
"927.167 1839.67 OFFCURVE",
"919.5 1837 CURVE SMOOTH",
"911.833 1834.33 OFFCURVE",
"903.667 1828.33 OFFCURVE",
"895 1819 CURVE SMOOTH",
"625 1542 LINE",
"685 1542 LINE SMOOTH",
"693 1542 OFFCURVE",
"699.667 1542.67 OFFCURVE",
"705 1544 CURVE SMOOTH",
"710.333 1545.33 OFFCURVE",
"716.333 1548.67 OFFCURVE",
"723 1554 CURVE"
);
}
);
width = 1078;
}
);
leftKerningGroup = B;
rightKerningGroup = E;
unicode = 00C9;
},
{
glyphname = Ecircumflex;
layers = (
{
layerId = "97227C28-C7C3-40A5-B3DE-4B1AC4F48489";
name = "Light Italic";
paths = (
{
closed = 1;
nodes = (
"124 0 LINE"
);
},
{
closed = 1;
nodes = (
"1069 1333 LINE",
"1080 1415 LINE",
"298 1415 LINE",
"124 0 LINE",
"907 0 LINE",
"918 82 LINE",
"234 82 LINE",
"307 677 LINE",
"873 677 LINE",
"884 757 LINE",
"317 757 LINE",
"388 1333 LINE"
);
},
{
closed = 1;
nodes = (
"955 1542 LINE",
"769 1809 LINE",
"693 1809 LINE",
"446 1542 LINE",
"510 1542 LINE SMOOTH",
"514.667 1542 OFFCURVE",
"520.333 1543 OFFCURVE",
"527 1545 CURVE SMOOTH",
"533.667 1547 OFFCURVE",
"540.667 1551.67 OFFCURVE",
"548 1559 CURVE",
"716 1745 LINE",
"717.333 1746.33 OFFCURVE",
"718.5 1747.83 OFFCURVE",
"719.5 1749.5 CURVE SMOOTH",
"720.5 1751.17 OFFCURVE",
"721.667 1753 OFFCURVE",
"723 1755 CURVE",
"729 1745 LINE",
"855 1559 LINE SMOOTH",
"860.333 1551.67 OFFCURVE",
"866.167 1547 OFFCURVE",
"872.5 1545 CURVE SMOOTH",
"878.833 1543 OFFCURVE",
"884.333 1542 OFFCURVE",
"889 1542 CURVE SMOOTH"
);
}
);
width = 1078;
}
);
leftKerningGroup = B;
rightKerningGroup = E;
unicode = 00CA;
},
{
glyphname = Edieresis;
layers = (
{
layerId = "97227C28-C7C3-40A5-B3DE-4B1AC4F48489";
name = "Light Italic";
paths = (
{
closed = 1;
nodes = (
"124 0 LINE"
);
},
{
closed = 1;
nodes = (
"1069 1333 LINE",
"1080 1415 LINE",
"298 1415 LINE",
"124 0 LINE",
"907 0 LINE",
"918 82 LINE",
"234 82 LINE",
"307 677 LINE",
"873 677 LINE",
"884 757 LINE",
"317 757 LINE",
"388 1333 LINE"
);
},
{
closed = 1;
nodes = (
"622 1673.33 OFFCURVE",
"619.667 1684 OFFCURVE",
"615 1694 CURVE SMOOTH",
"610.333 1704 OFFCURVE",
"604.167 1712.83 OFFCURVE",
"596.5 1720.5 CURVE SMOOTH",
"588.833 1728.17 OFFCURVE",
"580 1734.17 OFFCURVE",
"570 1738.5 CURVE SMOOTH",
"560 1742.83 OFFCURVE",
"549.667 1745 OFFCURVE",
"539 1745 CURVE SMOOTH",
"527.667 1745 OFFCURVE",
"517.167 1742.83 OFFCURVE",
"507.5 1738.5 CURVE SMOOTH",
"497.833 1734.17 OFFCURVE",
"489.167 1728.17 OFFCURVE",
"481.5 1720.5 CURVE SMOOTH",
"473.833 1712.83 OFFCURVE",
"467.833 1704 OFFCURVE",
"463.5 1694 CURVE SMOOTH",
"459.167 1684 OFFCURVE",
"457 1673.33 OFFCURVE",
"457 1662 CURVE SMOOTH",
"457 1640 OFFCURVE",
"465.167 1621 OFFCURVE",
"481.5 1605 CURVE SMOOTH",
"497.833 1589 OFFCURVE",
"517 1581 OFFCURVE",
"539 1581 CURVE SMOOTH",
"549.667 1581 OFFCURVE",
"560 1583.17 OFFCURVE",
"570 1587.5 CURVE SMOOTH",
"580 1591.83 OFFCURVE",
"588.833 1597.67 OFFCURVE",
"596.5 1605 CURVE SMOOTH",
"604.167 1612.33 OFFCURVE",
"610.333 1620.83 OFFCURVE",
"615 1630.5 CURVE SMOOTH",
"619.667 1640.17 OFFCURVE",
"622 1650.67 OFFCURVE",
"622 1662 CURVE SMOOTH"
);
},
{
closed = 1;
nodes = (
"979 1673.33 OFFCURVE",
"976.667 1684 OFFCURVE",
"972 1694 CURVE SMOOTH",
"967.333 1704 OFFCURVE",
"961.333 1712.83 OFFCURVE",
"954 1720.5 CURVE SMOOTH",
"946.667 1728.17 OFFCURVE",
"938 1734.17 OFFCURVE",
"928 1738.5 CURVE SMOOTH",
"918 1742.83 OFFCURVE",
"907.667 1745 OFFCURVE",
"897 1745 CURVE SMOOTH",
"874.333 1745 OFFCURVE",
"855 1736.83 OFFCURVE",
"839 1720.5 CURVE SMOOTH",
"823 1704.17 OFFCURVE",
"815 1684.67 OFFCURVE",
"815 1662 CURVE SMOOTH",
"815 1640 OFFCURVE",
"823 1621 OFFCURVE",
"839 1605 CURVE SMOOTH",
"855 1589 OFFCURVE",
"874.333 1581 OFFCURVE",
"897 1581 CURVE SMOOTH",
"907.667 1581 OFFCURVE",
"918 1583.17 OFFCURVE",
"928 1587.5 CURVE SMOOTH",
"938 1591.83 OFFCURVE",
"946.667 1597.67 OFFCURVE",
"954 1605 CURVE SMOOTH",
"961.333 1612.33 OFFCURVE",
"967.333 1620.83 OFFCURVE",
"972 1630.5 CURVE SMOOTH",
"976.667 1640.17 OFFCURVE",
"979 1650.67 OFFCURVE",
"979 1662 CURVE SMOOTH"
);
}
);
width = 1078;
}
);
leftKerningGroup = B;
rightKerningGroup = E;
unicode = 00CB;
},
{
glyphname = Egrave;
layers = (
{
layerId = "97227C28-C7C3-40A5-B3DE-4B1AC4F48489";
name = "Light Italic";
paths = (
{
closed = 1;
nodes = (
"124 0 LINE"
);
},
{
closed = 1;
nodes = (
"1069 1333 LINE",
"1080 1415 LINE",
"298 1415 LINE",
"124 0 LINE",
"907 0 LINE",
"918 82 LINE",
"234 82 LINE",
"307 677 LINE",
"873 677 LINE",
"884 757 LINE",
"317 757 LINE",
"388 1333 LINE"
);
},
{
closed = 1;
nodes = (
"470 1841 LINE",
"717 1554 LINE SMOOTH",
"721.667 1548.67 OFFCURVE",
"726.5 1545.33 OFFCURVE",
"731.5 1544 CURVE SMOOTH",
"736.5 1542.67 OFFCURVE",
"742.667 1542 OFFCURVE",
"750 1542 CURVE SMOOTH",
"811 1542 LINE",
"622 1819 LINE",
"616 1829 OFFCURVE",
"609.333 1835.17 OFFCURVE",
"602 1837.5 CURVE SMOOTH",
"594.667 1839.83 OFFCURVE",
"583.333 1841 OFFCURVE",
"568 1841 CURVE SMOOTH"
);
}
);
width = 1078;
}
);
leftKerningGroup = B;
rightKerningGroup = E;
unicode = 00C8;
},
{
glyphname = F;
layers = (
{
layerId = "97227C28-C7C3-40A5-B3DE-4B1AC4F48489";
name = "Light Italic";
paths = (
{
closed = 1;
nodes = (
"1069 1333 LINE",
"1080 1415 LINE",
"298 1415 LINE",
"124 0 LINE",
"224 0 LINE",
"304 651 LINE",
"893 651 LINE",
"905 734 LINE",
"314 734 LINE",
"388 1333 LINE"
);
}
);
width = 1058;
}
);
leftKerningGroup = B;
rightKerningGroup = F;
unicode = 0046;
},
{
glyphname = G;
layers = (
{
layerId = "97227C28-C7C3-40A5-B3DE-4B1AC4F48489";
name = "Light Italic";
paths = (
{
closed = 1;
nodes = (
"615.667 65 OFFCURVE",
"551.333 77.5 OFFCURVE",
"494 102.5 CURVE SMOOTH",
"436.667 127.5 OFFCURVE",
"387.667 163.333 OFFCURVE",
"347 210 CURVE SMOOTH",
"306.333 256.667 OFFCURVE",
"275 313.167 OFFCURVE",
"253 379.5 CURVE SMOOTH",
"231 445.833 OFFCURVE",
"220 520.333 OFFCURVE",
"220 603 CURVE SMOOTH",
"220 717 OFFCURVE",
"235.5 819.833 OFFCURVE",
"266.5 911.5 CURVE SMOOTH",
"297.5 1003.17 OFFCURVE",
"341.167 1081 OFFCURVE",
"397.5 1145 CURVE SMOOTH",
"453.833 1209 OFFCURVE",
"521 1258.33 OFFCURVE",
"599 1293 CURVE SMOOTH",
"677 1327.67 OFFCURVE",
"763 1345 OFFCURVE",
"857 1345 CURVE SMOOTH",
"919.667 1345 OFFCURVE",
"972.333 1338.67 OFFCURVE",
"1015 1326 CURVE SMOOTH",
"1057.67 1313.33 OFFCURVE",
"1092.83 1299 OFFCURVE",
"1120.5 1283 CURVE SMOOTH",
"1148.17 1267 OFFCURVE",
"1169.83 1251.67 OFFCURVE",
"1185.5 1237 CURVE SMOOTH",
"1201.17 1222.33 OFFCURVE",
"1213.67 1213 OFFCURVE",
"1223 1209 CURVE",
"1240.33 1199.67 OFFCURVE",
"1254.33 1203.33 OFFCURVE",
"1265 1220 CURVE",
"1296 1259 LINE",
"1270.67 1286.33 OFFCURVE",
"1243.67 1310.67 OFFCURVE",
"1215 1332 CURVE SMOOTH",
"1186.33 1353.33 OFFCURVE",
"1154.67 1371.33 OFFCURVE",
"1120 1386 CURVE SMOOTH",
"1085.33 1400.67 OFFCURVE",
"1047 1411.83 OFFCURVE",
"1005 1419.5 CURVE SMOOTH",
"963 1427.17 OFFCURVE",
"916.333 1431 OFFCURVE",
"865 1431 CURVE SMOOTH",
"755.667 1431 OFFCURVE",
"655.333 1411.17 OFFCURVE",
"564 1371.5 CURVE SMOOTH",
"472.667 1331.83 OFFCURVE",
"394 1275.67 OFFCURVE",
"328 1203 CURVE SMOOTH",
"262 1130.33 OFFCURVE",
"210.667 1042.83 OFFCURVE",
"174 940.5 CURVE SMOOTH",
"137.333 838.167 OFFCURVE",
"119 724.667 OFFCURVE",
"119 600 CURVE SMOOTH",
"119 508 OFFCURVE",
"131.833 424.167 OFFCURVE",
"157.5 348.5 CURVE SMOOTH",
"183.167 272.833 OFFCURVE",
"220 208 OFFCURVE",
"268 154 CURVE SMOOTH",
"316 100 OFFCURVE",
"374.167 58.1667 OFFCURVE",
"442.5 28.5 CURVE SMOOTH",
"510.833 -1 OFFCURVE",
"587.333 -16 OFFCURVE",
"672 -16 CURVE SMOOTH",
"726.667 -16 OFFCURVE",
"777.333 -13 OFFCURVE",
"824 -5 CURVE SMOOTH",
"870.667 1.50005 OFFCURVE",
"914.833 11.5 OFFCURVE",
"956.5 24.5 CURVE SMOOTH",
"998.167 37.5 OFFCURVE",
"1037.5 53.6667 OFFCURVE",
"1074.5 73 CURVE SMOOTH",
"1111.5 92.3334 OFFCURVE",
"1147.67 114.333 OFFCURVE",
"1183 139 CURVE",
"1246 641 LINE",
"883 641 LINE",
"877 586 LINE",
"875.667 580 OFFCURVE",
"877.167 574.833 OFFCURVE",
"881.5 570.5 CURVE SMOOTH",
"885.833 566.167 OFFCURVE",
"891.667 564 OFFCURVE",
"899 564 CURVE SMOOTH",
"1146 564 LINE",
"1098 179 LINE",
"1068 161 OFFCURVE",
"1038 145 OFFCURVE",
"1008 131 CURVE SMOOTH",
"978 117 OFFCURVE",
"946.667 105 OFFCURVE",
"914 95 CURVE SMOOTH",
"881.333 85 OFFCURVE",
"846.5 77.5001 OFFCURVE",
"809.5 72.5001 CURVE SMOOTH",
"772.5 67.5001 OFFCURVE",
"731.667 65 OFFCURVE",
"687 65 CURVE SMOOTH"
);
}
);
width = 1367;
}
);
leftKerningGroup = C;
rightKerningGroup = G;
unicode = 0047;
},
{
glyphname = H;
layers = (
{
layerId = "97227C28-C7C3-40A5-B3DE-4B1AC4F48489";
name = "Light Italic";
paths = (
{
closed = 1;
nodes = (
"1132 0 LINE",
"1306 1415 LINE",
"1206 1415 LINE",
"1124 754 LINE",
"316 754 LINE",
"398 1415 LINE",
"298 1415 LINE",
"124 0 LINE",
"224 0 LINE",
"307 679 LINE",
"1115 679 LINE",
"1032 0 LINE"
);
}
);
width = 1403;
}
);
leftKerningGroup = B;
rightKerningGroup = H;
unicode = 0048;
},
{
glyphname = I;
layers = (
{
layerId = "97227C28-C7C3-40A5-B3DE-4B1AC4F48489";
name = "Light Italic";
paths = (
{
closed = 1;
nodes = (
"224 0 LINE",
"397 1415 LINE",
"297 1415 LINE",
"124 0 LINE"
);
}
);
width = 495;
}
);
leftKerningGroup = B;
rightKerningGroup = H;
unicode = 0049;
},
{
glyphname = Iacute;
layers = (
{
layerId = "97227C28-C7C3-40A5-B3DE-4B1AC4F48489";
name = "Light Italic";
paths = (
{
closed = 1;
nodes = (
"124 0 LINE"
);
},
{
closed = 1;
nodes = (
"224 0 LINE",
"397 1415 LINE",
"297 1415 LINE",
"124 0 LINE"
);
},
{
closed = 1;
nodes = (
"713 1841 LINE",
"610 1841 LINE SMOOTH",
"595.333 1841 OFFCURVE",
"584.167 1839.67 OFFCURVE",
"576.5 1837 CURVE SMOOTH",
"568.833 1834.33 OFFCURVE",
"560.667 1828.33 OFFCURVE",
"552 1819 CURVE SMOOTH",
"282 1542 LINE",
"342 1542 LINE SMOOTH",
"350 1542 OFFCURVE",
"356.667 1542.67 OFFCURVE",
"362 1544 CURVE SMOOTH",
"367.333 1545.33 OFFCURVE",
"373.333 1548.67 OFFCURVE",
"380 1554 CURVE"
);
}
);
width = 495;
}
);
leftKerningGroup = B;
rightKerningGroup = H;
unicode = 00CD;
},
{
glyphname = Icircumflex;
layers = (
{
layerId = "97227C28-C7C3-40A5-B3DE-4B1AC4F48489";
name = "Light Italic";
paths = (
{
closed = 1;
nodes = (
"113 0 LINE"
);
},
{
closed = 1;
nodes = (
"224 0 LINE",
"397 1415 LINE",
"297 1415 LINE",
"124 0 LINE"
);
},
{
closed = 1;
nodes = (
"622 1542 LINE",
"436 1809 LINE",
"360 1809 LINE",
"113 1542 LINE",
"177 1542 LINE SMOOTH",
"181.667 1542 OFFCURVE",
"187.333 1543 OFFCURVE",
"194 1545 CURVE SMOOTH",
"200.667 1547 OFFCURVE",
"207.667 1551.67 OFFCURVE",
"215 1559 CURVE",
"383 1745 LINE",
"384.333 1746.33 OFFCURVE",
"385.5 1747.83 OFFCURVE",
"386.5 1749.5 CURVE SMOOTH",
"387.5 1751.17 OFFCURVE",
"388.667 1753 OFFCURVE",
"390 1755 CURVE",
"396 1745 LINE",
"522 1559 LINE SMOOTH",
"527.333 1551.67 OFFCURVE",
"533.167 1547 OFFCURVE",
"539.5 1545 CURVE SMOOTH",
"545.833 1543 OFFCURVE",
"551.333 1542 OFFCURVE",
"556 1542 CURVE SMOOTH"
);
}
);
width = 495;
}
);
leftKerningGroup = B;
rightKerningGroup = H;
unicode = 00CE;
},
{
glyphname = Idieresis;
layers = (
{
layerId = "97227C28-C7C3-40A5-B3DE-4B1AC4F48489";
name = "Light Italic";
paths = (
{
closed = 1;
nodes = (
"124 0 LINE"
);
},
{
closed = 1;
nodes = (
"224 0 LINE",
"397 1415 LINE",
"297 1415 LINE",
"124 0 LINE"
);
},
{
closed = 1;
nodes = (
"289 1673.33 OFFCURVE",
"286.667 1684 OFFCURVE",
"282 1694 CURVE SMOOTH",
"277.333 1704 OFFCURVE",
"271.167 1712.83 OFFCURVE",
"263.5 1720.5 CURVE SMOOTH",
"255.833 1728.17 OFFCURVE",
"247 1734.17 OFFCURVE",
"237 1738.5 CURVE SMOOTH",
"227 1742.83 OFFCURVE",
"216.667 1745 OFFCURVE",
"206 1745 CURVE SMOOTH",
"194.667 1745 OFFCURVE",
"184.167 1742.83 OFFCURVE",
"174.5 1738.5 CURVE SMOOTH",
"164.833 1734.17 OFFCURVE",
"156.167 1728.17 OFFCURVE",
"148.5 1720.5 CURVE SMOOTH",
"140.833 1712.83 OFFCURVE",
"134.833 1704 OFFCURVE",
"130.5 1694 CURVE SMOOTH",
"126.167 1684 OFFCURVE",
"124 1673.33 OFFCURVE",
"124 1662 CURVE SMOOTH",
"124 1640 OFFCURVE",
"132.167 1621 OFFCURVE",
"148.5 1605 CURVE SMOOTH",
"164.833 1589 OFFCURVE",
"184 1581 OFFCURVE",
"206 1581 CURVE SMOOTH",
"216.667 1581 OFFCURVE",
"227 1583.17 OFFCURVE",
"237 1587.5 CURVE SMOOTH",
"247 1591.83 OFFCURVE",
"255.833 1597.67 OFFCURVE",
"263.5 1605 CURVE SMOOTH",
"271.167 1612.33 OFFCURVE",
"277.333 1620.83 OFFCURVE",
"282 1630.5 CURVE SMOOTH",
"286.667 1640.17 OFFCURVE",
"289 1650.67 OFFCURVE",
"289 1662 CURVE SMOOTH"
);
},
{
closed = 1;
nodes = (
"646 1673.33 OFFCURVE",
"643.667 1684 OFFCURVE",
"639 1694 CURVE SMOOTH",
"634.333 1704 OFFCURVE",
"628.333 1712.83 OFFCURVE",
"621 1720.5 CURVE SMOOTH",
"613.667 1728.17 OFFCURVE",
"605 1734.17 OFFCURVE",
"595 1738.5 CURVE SMOOTH",
"585 1742.83 OFFCURVE",
"574.667 1745 OFFCURVE",
"564 1745 CURVE SMOOTH",
"541.333 1745 OFFCURVE",
"522 1736.83 OFFCURVE",
"506 1720.5 CURVE SMOOTH",
"490 1704.17 OFFCURVE",
"482 1684.67 OFFCURVE",
"482 1662 CURVE SMOOTH",
"482 1640 OFFCURVE",
"490 1621 OFFCURVE",
"506 1605 CURVE SMOOTH",
"522 1589 OFFCURVE",
"541.333 1581 OFFCURVE",
"564 1581 CURVE SMOOTH",
"574.667 1581 OFFCURVE",
"585 1583.17 OFFCURVE",
"595 1587.5 CURVE SMOOTH",
"605 1591.83 OFFCURVE",
"613.667 1597.67 OFFCURVE",
"621 1605 CURVE SMOOTH",
"628.333 1612.33 OFFCURVE",
"634.333 1620.83 OFFCURVE",
"639 1630.5 CURVE SMOOTH",
"643.667 1640.17 OFFCURVE",
"646 1650.67 OFFCURVE",
"646 1662 CURVE SMOOTH"
);
}
);
width = 495;
}
);
leftKerningGroup = B;
rightKerningGroup = H;
unicode = 00CF;
},
{
glyphname = Igrave;
layers = (
{
layerId = "97227C28-C7C3-40A5-B3DE-4B1AC4F48489";
name = "Light Italic";
paths = (
{
closed = 1;
nodes = (
"106 0 LINE"
);
},
{
closed = 1;
nodes = (
"224 0 LINE",
"397 1415 LINE",
"297 1415 LINE",
"124 0 LINE"
);
},
{
closed = 1;
nodes = (
"106 1841 LINE",
"353 1554 LINE SMOOTH",
"357.667 1548.67 OFFCURVE",
"362.5 1545.33 OFFCURVE",
"367.5 1544 CURVE SMOOTH",
"372.5 1542.67 OFFCURVE",
"378.667 1542 OFFCURVE",
"386 1542 CURVE SMOOTH",
"447 1542 LINE",
"258 1819 LINE",
"252 1829 OFFCURVE",
"245.333 1835.17 OFFCURVE",
"238 1837.5 CURVE SMOOTH",
"230.667 1839.83 OFFCURVE",
"219.333 1841 OFFCURVE",
"204 1841 CURVE SMOOTH"
);
}
);
width = 495;
}
);
leftKerningGroup = B;
rightKerningGroup = H;
unicode = 00CC;
},
{
glyphname = J;
layers = (
{
layerId = "97227C28-C7C3-40A5-B3DE-4B1AC4F48489";
name = "Light Italic";
paths = (
{
closed = 1;
nodes = (
"697 1415 LINE",
"598 1415 LINE",
"478 439 LINE SMOOTH",
"469.333 369 OFFCURVE",
"454.833 310.167 OFFCURVE",
"434.5 262.5 CURVE SMOOTH",
"414.167 214.833 OFFCURVE",
"389.5 176.5 OFFCURVE",
"360.5 147.5 CURVE SMOOTH",
"331.5 118.5 OFFCURVE",
"299 97.8333 OFFCURVE",
"263 85.5 CURVE SMOOTH",
"227 73.1667 OFFCURVE",
"189.333 67 OFFCURVE",
"150 67 CURVE SMOOTH",
"126.667 67 OFFCURVE",
"106.833 68.1667 OFFCURVE",
"90.5 70.5 CURVE SMOOTH",
"74.1667 72.8333 OFFCURVE",
"60.1667 75.3333 OFFCURVE",
"48.5 78 CURVE SMOOTH",
"36.8333 80.6667 OFFCURVE",
"27 83.1667 OFFCURVE",
"19 85.5 CURVE SMOOTH",
"11 87.8333 OFFCURVE",
"3.66667 89 OFFCURVE",
"-3 89 CURVE SMOOTH",
"-12 89 OFFCURVE",
"-19 86.6667 OFFCURVE",
"-23 82 CURVE SMOOTH",
"-26 77.3333 OFFCURVE",
"-29 72.3333 OFFCURVE",
"-30 67 CURVE",
"-37 13 LINE",
"-8 3 OFFCURVE",
"20.6667 -4 OFFCURVE",
"50 -9 CURVE SMOOTH",
"79.3333 -14 OFFCURVE",
"112 -16 OFFCURVE",
"148 -16 CURVE SMOOTH",
"206 -16 OFFCURVE",
"259.167 -7 OFFCURVE",
"307.5 11.5 CURVE SMOOTH",
"355.833 29.8333 OFFCURVE",
"398.333 57.8333 OFFCURVE",
"435 95.5 CURVE SMOOTH",
"471.667 133.167 OFFCURVE",
"502.167 180.667 OFFCURVE",
"526.5 238 CURVE SMOOTH",
"550.833 295.333 OFFCURVE",
"567.667 363 OFFCURVE",
"577 441 CURVE SMOOTH"
);
}
);
width = 781;
}
);
leftKerningGroup = J;
rightKerningGroup = J;
unicode = 004A;
},
{
glyphname = K;
lastChange = "2014-08-21 04:36:32 -0500";
layers = (
{
layerId = "97227C28-C7C3-40A5-B3DE-4B1AC4F48489";
name = "Light Italic";
paths = (
{
closed = 1;
nodes = (
"316 760 LINE",
"397 1417 LINE",
"297 1417 LINE",
"124 0 LINE",
"223 0 LINE",
"307 683 LINE",
"391 683 LINE SMOOTH",
"405.667 683 OFFCURVE",
"417.667 682.167 OFFCURVE",
"427 680.5 CURVE SMOOTH",
"436.333 678.833 OFFCURVE",
"444.5 676.167 OFFCURVE",
"451.5 672.5 CURVE SMOOTH",
"458.5 668.833 OFFCURVE",
"464.5 664.333 OFFCURVE",
"469.5 659 CURVE SMOOTH",
"474.5 653.667 OFFCURVE",
"479.667 647.333 OFFCURVE",
"485 640 CURVE SMOOTH",
"955 25.9999 LINE",
"960.333 17.3333 OFFCURVE",
"966.333 10.8333 OFFCURVE",
"973 6.49994 CURVE SMOOTH",
"979.667 2.16661 OFFCURVE",
"976 -6 OFFCURVE",
"1005 -6 CURVE SMOOTH",
"1089 -6 LINE",
"578 680 LINE",
"562.667 705.333 OFFCURVE",
"543.333 722 OFFCURVE",
"520 730 CURVE",
"531.333 734 OFFCURVE",
"542 739.833 OFFCURVE",
"552 747.5 CURVE SMOOTH",
"562 755.167 OFFCURVE",
"573 765.333 OFFCURVE",
"585 778 CURVE SMOOTH",
"1227 1415 LINE",
"1146 1415 LINE SMOOTH",
"1133.33 1415 OFFCURVE",
"1122.17 1413.17 OFFCURVE",
"1112.5 1409.5 CURVE SMOOTH",
"1102.83 1405.83 OFFCURVE",
"1092.67 1398 OFFCURVE",
"1082 1386 CURVE",
"490 798 LINE",
"482.667 790 OFFCURVE",
"475.667 783.667 OFFCURVE",
"469 779 CURVE SMOOTH",
"462.334 774.333 OFFCURVE",
"455.167 770.5 OFFCURVE",
"447.5 767.5 CURVE SMOOTH",
"439.834 764.5 OFFCURVE",
"431.667 762.5 OFFCURVE",
"423 761.5 CURVE SMOOTH",
"414.334 760.5 OFFCURVE",
"404.334 760 OFFCURVE",
"393 760 CURVE SMOOTH"
);
}
);
width = 1180;
}
);
leftKerningGroup = B;
rightKerningGroup = K;
unicode = 004B;
},
{
glyphname = L;
layers = (
{
layerId = "97227C28-C7C3-40A5-B3DE-4B1AC4F48489";
name = "Light Italic";
paths = (
{
closed = 1;
nodes = (
"233 85 LINE",
"397 1415 LINE",
"298 1415 LINE",
"124 0 LINE",
"838 0 LINE",
"849 85 LINE"
);
}
);
width = 933;
}
);
leftKerningGroup = B;
rightKerningGroup = L;
unicode = 004C;
},
{
glyphname = M;
layers = (
{
layerId = "97227C28-C7C3-40A5-B3DE-4B1AC4F48489";
name = "Light Italic";
paths = (
{
closed = 1;
nodes = (
"806 400 LINE",
"402 1396 LINE",
"396.667 1404 OFFCURVE",
"391.667 1409.17 OFFCURVE",
"387 1411.5 CURVE SMOOTH",
"382.333 1413.83 OFFCURVE",
"375.333 1415 OFFCURVE",
"366 1415 CURVE SMOOTH",
"298 1415 LINE",
"124 0 LINE",
"211 0 LINE",
"359 1210 LINE SMOOTH",
"361 1226 OFFCURVE",
"362 1244 OFFCURVE",
"362 1264 CURVE",
"764 272 LINE",
"769.333 255.333 OFFCURVE",
"781 247 OFFCURVE",
"799 247 CURVE SMOOTH",
"815 247 LINE SMOOTH",
"831.667 247 OFFCURVE",
"845.333 255.333 OFFCURVE",
"856 272 CURVE SMOOTH",
"1486 1261 LINE",
"1484 1251.67 OFFCURVE",
"1482.33 1242.5 OFFCURVE",
"1481 1233.5 CURVE SMOOTH",
"1479.67 1224.5 OFFCURVE",
"1478.33 1216.33 OFFCURVE",
"1477 1209 CURVE",
"1328 0 LINE",
"1415 0 LINE",
"1589 1415 LINE",
"1520 1415 LINE SMOOTH",
"1510.67 1415 OFFCURVE",
"1503.5 1413.83 OFFCURVE",
"1498.5 1411.5 CURVE SMOOTH",
"1493.5 1409.17 OFFCURVE",
"1487.67 1404 OFFCURVE",
"1481 1396 CURVE",
"843 400 LINE",
"833.667 384 OFFCURVE",
"825.667 368.667 OFFCURVE",
"819 354 CURVE",
"817 361.333 OFFCURVE",
"815 369 OFFCURVE",
"813 377 CURVE SMOOTH",
"811 385 OFFCURVE",
"808.667 392.667 OFFCURVE",
"806 400 CURVE"
);
}
);
width = 1686;
}
);
leftKerningGroup = B;
rightKerningGroup = H;
unicode = 004D;
},
{
glyphname = N;
layers = (
{
layerId = "97227C28-C7C3-40A5-B3DE-4B1AC4F48489";
name = "Light Italic";
paths = (
{
closed = 1;
nodes = (
"347 1415 LINE",
"298 1415 LINE",
"124 0 LINE",
"211 0 LINE",
"359 1209 LINE",
"362 1254 LINE",
"1049 22 LINE",
"1054.33 14.6667 OFFCURVE",
"1059.67 9.16667 OFFCURVE",
"1065 5.5 CURVE SMOOTH",
"1070.33 1.83333 OFFCURVE",
"1077.33 0 OFFCURVE",
"1086 0 CURVE SMOOTH",
"1132 0 LINE",
"1306 1415 LINE",
"1219 1415 LINE",
"1071 214 LINE",
"1069.67 206.667 OFFCURVE",
"1068.83 198.833 OFFCURVE",
"1068.5 190.5 CURVE SMOOTH",
"1068.17 182.167 OFFCURVE",
"1067.67 173.333 OFFCURVE",
"1067 164 CURVE",
"381 1396 LINE",
"375.667 1404 OFFCURVE",
"371 1409.17 OFFCURVE",
"367 1411.5 CURVE SMOOTH",
"363 1413.83 OFFCURVE",
"356.333 1415 OFFCURVE",
"347 1415 CURVE SMOOTH"
);
}
);
width = 1403;
}
);
leftKerningGroup = B;
rightKerningGroup = H;
unicode = 004E;
},
{
glyphname = Ntilde;
layers = (
{
layerId = "97227C28-C7C3-40A5-B3DE-4B1AC4F48489";
name = "Light Italic";
paths = (
{
closed = 1;
nodes = (
"298 1415 LINE",
"124 0 LINE",
"211 0 LINE",
"359 1209 LINE",
"362 1254 LINE",
"1049 22 LINE",
"1054.33 14.6667 OFFCURVE",
"1059.67 9.16667 OFFCURVE",
"1065 5.5 CURVE SMOOTH",
"1070.33 1.83333 OFFCURVE",
"1077.33 0 OFFCURVE",
"1086 0 CURVE SMOOTH",
"1132 0 LINE",
"1306 1415 LINE",
"1219 1415 LINE",
"1071 214 LINE",
"1069.67 206.667 OFFCURVE",
"1068.83 198.833 OFFCURVE",
"1068.5 190.5 CURVE SMOOTH",
"1068.17 182.167 OFFCURVE",
"1067.67 173.333 OFFCURVE",
"1067 164 CURVE",
"381 1396 LINE",
"375.667 1404 OFFCURVE",
"371 1409.17 OFFCURVE",
"367 1411.5 CURVE SMOOTH",
"363 1413.83 OFFCURVE",
"356.333 1415 OFFCURVE",
"347 1415 CURVE SMOOTH"
);
},
{
closed = 1;
nodes = (
"937.667 1615 OFFCURVE",
"921 1620.83 OFFCURVE",
"905 1632.5 CURVE SMOOTH",
"889 1644.17 OFFCURVE",
"872.5 1656.83 OFFCURVE",
"855.5 1670.5 CURVE SMOOTH",
"838.5 1684.17 OFFCURVE",
"820.333 1696.83 OFFCURVE",
"801 1708.5 CURVE SMOOTH",
"781.667 1720.17 OFFCURVE",
"760 1726 OFFCURVE",
"736 1726 CURVE SMOOTH",
"714 1726 OFFCURVE",
"693.833 1721.17 OFFCURVE",
"675.5 1711.5 CURVE SMOOTH",
"657.167 1701.83 OFFCURVE",
"641 1689 OFFCURVE",
"627 1673 CURVE SMOOTH",
"613 1657 OFFCURVE",
"601.667 1638.5 OFFCURVE",
"593 1617.5 CURVE SMOOTH",
"584.333 1596.5 OFFCURVE",
"578.667 1574.67 OFFCURVE",
"576 1552 CURVE",
"632 1552 LINE",
"634 1566 OFFCURVE",
"637.833 1579.5 OFFCURVE",
"643.5 1592.5 CURVE SMOOTH",
"649.167 1605.5 OFFCURVE",
"656.667 1617 OFFCURVE",
"666 1627 CURVE SMOOTH",
"675.333 1637 OFFCURVE",
"686 1645 OFFCURVE",
"698 1651 CURVE SMOOTH",
"710 1657 OFFCURVE",
"723.333 1660 OFFCURVE",
"738 1660 CURVE SMOOTH",
"755.333 1660 OFFCURVE",
"772.167 1654.17 OFFCURVE",
"788.5 1642.5 CURVE SMOOTH",
"804.833 1630.83 OFFCURVE",
"821.5 1618.17 OFFCURVE",
"838.5 1604.5 CURVE SMOOTH",
"855.5 1590.83 OFFCURVE",
"873.5 1578.17 OFFCURVE",
"892.5 1566.5 CURVE SMOOTH",
"911.5 1554.83 OFFCURVE",
"932.667 1549 OFFCURVE",
"956 1549 CURVE SMOOTH",
"978.667 1549 OFFCURVE",
"999.167 1553.67 OFFCURVE",
"1017.5 1563 CURVE SMOOTH",
"1035.83 1572.33 OFFCURVE",
"1051.83 1585 OFFCURVE",
"1065.5 1601 CURVE SMOOTH",
"1079.17 1617 OFFCURVE",
"1090.17 1635.5 OFFCURVE",
"1098.5 1656.5 CURVE SMOOTH",
"1106.83 1677.5 OFFCURVE",
"1112.33 1699.67 OFFCURVE",
"1115 1723 CURVE",
"1061 1723 LINE",
"1059 1709 OFFCURVE",
"1055.17 1695.5 OFFCURVE",
"1049.5 1682.5 CURVE SMOOTH",
"1043.83 1669.5 OFFCURVE",
"1036.5 1658 OFFCURVE",
"1027.5 1648 CURVE SMOOTH",
"1018.5 1638 OFFCURVE",
"1007.83 1630 OFFCURVE",
"995.5 1624 CURVE SMOOTH",
"983.167 1618 OFFCURVE",
"969.667 1615 OFFCURVE",
"955 1615 CURVE SMOOTH"
);
}
);
width = 1403;
}
);
leftKerningGroup = B;
rightKerningGroup = H;
unicode = 00D1;
},
{
glyphname = O;
lastChange = "2014-08-21 04:35:13 -0500";
layers = (
{
layerId = "97227C28-C7C3-40A5-B3DE-4B1AC4F48489";
name = "Light Italic";
paths = (
{
closed = 1;
nodes = (
"1381 907.333 OFFCURVE",
"1368.33 990.833 OFFCURVE",
"1343 1066.5 CURVE SMOOTH",
"1317.67 1142.17 OFFCURVE",
"1281.5 1207 OFFCURVE",
"1234.5 1261 CURVE SMOOTH",
"1187.5 1315 OFFCURVE",
"1130.5 1356.83 OFFCURVE",
"1063.5 1386.5 CURVE SMOOTH",
"996.5 1416.17 OFFCURVE",
"921.333 1431 OFFCURVE",
"838 1431 CURVE SMOOTH",
"736 1431 OFFCURVE",
"641.167 1411 OFFCURVE",
"553.5 1371 CURVE SMOOTH",
"465.833 1331 OFFCURVE",
"389.833 1274.5 OFFCURVE",
"325.5 1201.5 CURVE SMOOTH",
"261.167 1128.5 OFFCURVE",
"210.667 1040.83 OFFCURVE",
"174 938.5 CURVE SMOOTH",
"137.333 836.167 OFFCURVE",
"119 723 OFFCURVE",
"119 599 CURVE SMOOTH",
"119 507.667 OFFCURVE",
"131.667 424.333 OFFCURVE",
"157 349 CURVE SMOOTH",
"182.333 273.667 OFFCURVE",
"218.5 209 OFFCURVE",
"265.5 155 CURVE SMOOTH",
"312.5 101 OFFCURVE",
"369.333 59.1667 OFFCURVE",
"436 29.5001 CURVE SMOOTH",
"502.667 0 OFFCURVE",
"577.333 -15 OFFCURVE",
"660 -15 CURVE SMOOTH",
"762.667 -15 OFFCURVE",
"858 5 OFFCURVE",
"946 45 CURVE SMOOTH",
"1034 85 OFFCURVE",
"1110.33 141.333 OFFCURVE",
"1175 214 CURVE SMOOTH",
"1239.67 286.667 OFFCURVE",
"1290.17 374 OFFCURVE",
"1326.5 476 CURVE SMOOTH",
"1362.83 578 OFFCURVE",
"1381 691.333 OFFCURVE",
"1381 816 CURVE SMOOTH"
);
},
{
closed = 1;
nodes = (
"1278 698.667 OFFCURVE",
"1262.83 595.167 OFFCURVE",
"1232.5 503.5 CURVE SMOOTH",
"1202.17 411.833 OFFCURVE",
"1160 333.667 OFFCURVE",
"1106 269 CURVE SMOOTH",
"1052 204.333 OFFCURVE",
"988 154.833 OFFCURVE",
"914 120.5 CURVE SMOOTH",
"840 86.1667 OFFCURVE",
"759 69 OFFCURVE",
"671 69 CURVE SMOOTH",
"602.333 69 OFFCURVE",
"540.333 81.5001 OFFCURVE",
"485 106.5 CURVE SMOOTH",
"429.667 131.5 OFFCURVE",
"382.333 167 OFFCURVE",
"343 213 CURVE SMOOTH",
"303.667 259 OFFCURVE",
"273.333 314.833 OFFCURVE",
"252 380.5 CURVE SMOOTH",
"230.667 446.167 OFFCURVE",
"220 520 OFFCURVE",
"220 602 CURVE SMOOTH",
"220 716.667 OFFCURVE",
"235.333 820 OFFCURVE",
"266 912 CURVE SMOOTH",
"296.667 1004 OFFCURVE",
"339.167 1082.33 OFFCURVE",
"393.5 1147 CURVE SMOOTH",
"447.833 1211.67 OFFCURVE",
"512 1261.33 OFFCURVE",
"586 1296 CURVE SMOOTH",
"660 1330.67 OFFCURVE",
"740.333 1348 OFFCURVE",
"827 1348 CURVE SMOOTH",
"895.667 1348 OFFCURVE",
"957.833 1335.5 OFFCURVE",
"1013.5 1310.5 CURVE SMOOTH",
"1069.17 1285.5 OFFCURVE",
"1116.67 1249.83 OFFCURVE",
"1156 1203.5 CURVE SMOOTH",
"1195.33 1157.17 OFFCURVE",
"1225.5 1101.17 OFFCURVE",
"1246.5 1035.5 CURVE SMOOTH",
"1267.5 969.833 OFFCURVE",
"1278 896 OFFCURVE",
"1278 814 CURVE SMOOTH"
);
}
);
width = 1473;
}
);
leftKerningGroup = C;
rightKerningGroup = O;
unicode = 004F;
},
{
glyphname = Oacute;
layers = (
{
layerId = "97227C28-C7C3-40A5-B3DE-4B1AC4F48489";
name = "Light Italic";
paths = (
{
closed = 1;
nodes = (
"119 0 LINE"
);
},
{
closed = 1;
nodes = (
"1381 907.333 OFFCURVE",
"1368.33 990.833 OFFCURVE",
"1343 1066.5 CURVE SMOOTH",
"1317.67 1142.17 OFFCURVE",
"1281.5 1207 OFFCURVE",
"1234.5 1261 CURVE SMOOTH",
"1187.5 1315 OFFCURVE",
"1130.5 1356.83 OFFCURVE",
"1063.5 1386.5 CURVE SMOOTH",
"996.5 1416.17 OFFCURVE",
"921.333 1431 OFFCURVE",
"838 1431 CURVE SMOOTH",
"736 1431 OFFCURVE",
"641.167 1411 OFFCURVE",
"553.5 1371 CURVE SMOOTH",
"465.833 1331 OFFCURVE",
"389.833 1274.5 OFFCURVE",
"325.5 1201.5 CURVE SMOOTH",
"261.167 1128.5 OFFCURVE",
"210.667 1040.83 OFFCURVE",
"174 938.5 CURVE SMOOTH",
"137.333 836.167 OFFCURVE",
"119 723 OFFCURVE",
"119 599 CURVE SMOOTH",
"119 507.667 OFFCURVE",
"131.667 424.333 OFFCURVE",
"157 349 CURVE SMOOTH",
"182.333 273.667 OFFCURVE",
"218.5 209 OFFCURVE",
"265.5 155 CURVE SMOOTH",
"312.5 101 OFFCURVE",
"369.333 59.1667 OFFCURVE",
"436 29.5001 CURVE SMOOTH",
"502.667 0 OFFCURVE",
"577.333 -15 OFFCURVE",
"660 -15 CURVE SMOOTH",
"762.667 -15 OFFCURVE",
"858 5 OFFCURVE",
"946 45 CURVE SMOOTH",
"1034 85 OFFCURVE",
"1110.33 141.333 OFFCURVE",
"1175 214 CURVE SMOOTH",
"1239.67 286.667 OFFCURVE",
"1290.17 374 OFFCURVE",
"1326.5 476 CURVE SMOOTH",
"1362.83 578 OFFCURVE",
"1381 691.333 OFFCURVE",
"1381 816 CURVE SMOOTH"
);
},
{
closed = 1;
nodes = (
"1278 698.667 OFFCURVE",
"1262.83 595.167 OFFCURVE",
"1232.5 503.5 CURVE SMOOTH",
"1202.17 411.833 OFFCURVE",
"1160 333.667 OFFCURVE",
"1106 269 CURVE SMOOTH",
"1052 204.333 OFFCURVE",
"988 154.833 OFFCURVE",
"914 120.5 CURVE SMOOTH",
"840 86.1667 OFFCURVE",
"759 69 OFFCURVE",
"671 69 CURVE SMOOTH",
"602.333 69 OFFCURVE",
"540.333 81.5001 OFFCURVE",
"485 106.5 CURVE SMOOTH",
"429.667 131.5 OFFCURVE",
"382.333 167 OFFCURVE",
"343 213 CURVE SMOOTH",
"303.667 259 OFFCURVE",
"273.333 314.833 OFFCURVE",
"252 380.5 CURVE SMOOTH",
"230.667 446.167 OFFCURVE",
"220 520 OFFCURVE",
"220 602 CURVE SMOOTH",
"220 716.667 OFFCURVE",
"235.333 820 OFFCURVE",
"266 912 CURVE SMOOTH",
"296.667 1004 OFFCURVE",
"339.167 1082.33 OFFCURVE",
"393.5 1147 CURVE SMOOTH",
"447.833 1211.67 OFFCURVE",
"512 1261.33 OFFCURVE",
"586 1296 CURVE SMOOTH",
"660 1330.67 OFFCURVE",
"740.333 1348 OFFCURVE",
"827 1348 CURVE SMOOTH",
"895.667 1348 OFFCURVE",
"957.833 1335.5 OFFCURVE",
"1013.5 1310.5 CURVE SMOOTH",
"1069.17 1285.5 OFFCURVE",
"1116.67 1249.83 OFFCURVE",
"1156 1203.5 CURVE SMOOTH",
"1195.33 1157.17 OFFCURVE",
"1225.5 1101.17 OFFCURVE",
"1246.5 1035.5 CURVE SMOOTH",
"1267.5 969.833 OFFCURVE",
"1278 896 OFFCURVE",
"1278 814 CURVE SMOOTH"
);
},
{
closed = 1;
nodes = (
"1169 1841 LINE",
"1066 1841 LINE SMOOTH",
"1051.33 1841 OFFCURVE",
"1040.17 1839.67 OFFCURVE",
"1032.5 1837 CURVE SMOOTH",
"1024.83 1834.33 OFFCURVE",
"1016.67 1828.33 OFFCURVE",
"1008 1819 CURVE SMOOTH",
"738 1542 LINE",
"798 1542 LINE SMOOTH",
"806 1542 OFFCURVE",
"812.667 1542.67 OFFCURVE",
"818 1544 CURVE SMOOTH",
"823.334 1545.33 OFFCURVE",
"829.334 1548.67 OFFCURVE",
"836 1554 CURVE"
);
}
);
width = 1473;
}
);
leftKerningGroup = C;
rightKerningGroup = O;
unicode = 00D3;
},
{
glyphname = Ocircumflex;
layers = (
{
layerId = "97227C28-C7C3-40A5-B3DE-4B1AC4F48489";
name = "Light Italic";
paths = (
{
closed = 1;
nodes = (
"119 0 LINE"
);
},
{
closed = 1;
nodes = (
"1381 907.333 OFFCURVE",
"1368.33 990.833 OFFCURVE",
"1343 1066.5 CURVE SMOOTH",
"1317.67 1142.17 OFFCURVE",
"1281.5 1207 OFFCURVE",
"1234.5 1261 CURVE SMOOTH",
"1187.5 1315 OFFCURVE",
"1130.5 1356.83 OFFCURVE",
"1063.5 1386.5 CURVE SMOOTH",
"996.5 1416.17 OFFCURVE",
"921.333 1431 OFFCURVE",
"838 1431 CURVE SMOOTH",
"736 1431 OFFCURVE",
"641.167 1411 OFFCURVE",
"553.5 1371 CURVE SMOOTH",
"465.833 1331 OFFCURVE",
"389.833 1274.5 OFFCURVE",
"325.5 1201.5 CURVE SMOOTH",
"261.167 1128.5 OFFCURVE",
"210.667 1040.83 OFFCURVE",
"174 938.5 CURVE SMOOTH",
"137.333 836.167 OFFCURVE",
"119 723 OFFCURVE",
"119 599 CURVE SMOOTH",
"119 507.667 OFFCURVE",
"131.667 424.333 OFFCURVE",
"157 349 CURVE SMOOTH",
"182.333 273.667 OFFCURVE",
"218.5 209 OFFCURVE",
"265.5 155 CURVE SMOOTH",
"312.5 101 OFFCURVE",
"369.333 59.1667 OFFCURVE",
"436 29.5001 CURVE SMOOTH",
"502.667 0 OFFCURVE",
"577.333 -15 OFFCURVE",
"660 -15 CURVE SMOOTH",
"762.667 -15 OFFCURVE",
"858 5 OFFCURVE",
"946 45 CURVE SMOOTH",
"1034 85 OFFCURVE",
"1110.33 141.333 OFFCURVE",
"1175 214 CURVE SMOOTH",
"1239.67 286.667 OFFCURVE",
"1290.17 374 OFFCURVE",
"1326.5 476 CURVE SMOOTH",
"1362.83 578 OFFCURVE",
"1381 691.333 OFFCURVE",
"1381 816 CURVE SMOOTH"
);
},
{
closed = 1;
nodes = (
"1278 698.667 OFFCURVE",
"1262.83 595.167 OFFCURVE",
"1232.5 503.5 CURVE SMOOTH",
"1202.17 411.833 OFFCURVE",
"1160 333.667 OFFCURVE",
"1106 269 CURVE SMOOTH",
"1052 204.333 OFFCURVE",
"988 154.833 OFFCURVE",
"914 120.5 CURVE SMOOTH",
"840 86.1667 OFFCURVE",
"759 69 OFFCURVE",
"671 69 CURVE SMOOTH",
"602.333 69 OFFCURVE",
"540.333 81.5001 OFFCURVE",
"485 106.5 CURVE SMOOTH",
"429.667 131.5 OFFCURVE",
"382.333 167 OFFCURVE",
"343 213 CURVE SMOOTH",
"303.667 259 OFFCURVE",
"273.333 314.833 OFFCURVE",
"252 380.5 CURVE SMOOTH",
"230.667 446.167 OFFCURVE",
"220 520 OFFCURVE",
"220 602 CURVE SMOOTH",
"220 716.667 OFFCURVE",
"235.333 820 OFFCURVE",
"266 912 CURVE SMOOTH",
"296.667 1004 OFFCURVE",
"339.167 1082.33 OFFCURVE",
"393.5 1147 CURVE SMOOTH",
"447.833 1211.67 OFFCURVE",
"512 1261.33 OFFCURVE",
"586 1296 CURVE SMOOTH",
"660 1330.67 OFFCURVE",
"740.333 1348 OFFCURVE",
"827 1348 CURVE SMOOTH",
"895.667 1348 OFFCURVE",
"957.833 1335.5 OFFCURVE",
"1013.5 1310.5 CURVE SMOOTH",
"1069.17 1285.5 OFFCURVE",
"1116.67 1249.83 OFFCURVE",
"1156 1203.5 CURVE SMOOTH",
"1195.33 1157.17 OFFCURVE",
"1225.5 1101.17 OFFCURVE",
"1246.5 1035.5 CURVE SMOOTH",
"1267.5 969.833 OFFCURVE",
"1278 896 OFFCURVE",
"1278 814 CURVE SMOOTH"
);
},
{
closed = 1;
nodes = (
"1101 1542 LINE",
"915 1809 LINE",
"839 1809 LINE",
"592 1542 LINE",
"656 1542 LINE SMOOTH",
"660.667 1542 OFFCURVE",
"666.333 1543 OFFCURVE",
"673 1545 CURVE SMOOTH",
"679.667 1547 OFFCURVE",
"686.667 1551.67 OFFCURVE",
"694 1559 CURVE",
"862 1745 LINE",
"863.333 1746.33 OFFCURVE",
"864.5 1747.83 OFFCURVE",
"865.5 1749.5 CURVE SMOOTH",
"866.5 1751.17 OFFCURVE",
"867.667 1753 OFFCURVE",
"869 1755 CURVE",
"875 1745 LINE",
"1001 1559 LINE SMOOTH",
"1006.33 1551.67 OFFCURVE",
"1012.17 1547 OFFCURVE",
"1018.5 1545 CURVE SMOOTH",
"1024.83 1543 OFFCURVE",
"1030.33 1542 OFFCURVE",
"1035 1542 CURVE SMOOTH"
);
}
);
width = 1473;
}
);
leftKerningGroup = C;
rightKerningGroup = O;
unicode = 00D4;
},
{
glyphname = Odieresis;
layers = (
{
layerId = "97227C28-C7C3-40A5-B3DE-4B1AC4F48489";
name = "Light Italic";
paths = (
{
closed = 1;
nodes = (
"119 0 LINE"
);
},
{
closed = 1;
nodes = (
"1381 907.333 OFFCURVE",
"1368.33 990.833 OFFCURVE",
"1343 1066.5 CURVE SMOOTH",
"1317.67 1142.17 OFFCURVE",
"1281.5 1207 OFFCURVE",
"1234.5 1261 CURVE SMOOTH",
"1187.5 1315 OFFCURVE",
"1130.5 1356.83 OFFCURVE",
"1063.5 1386.5 CURVE SMOOTH",
"996.5 1416.17 OFFCURVE",
"921.333 1431 OFFCURVE",
"838 1431 CURVE SMOOTH",
"736 1431 OFFCURVE",
"641.167 1411 OFFCURVE",
"553.5 1371 CURVE SMOOTH",
"465.833 1331 OFFCURVE",
"389.833 1274.5 OFFCURVE",
"325.5 1201.5 CURVE SMOOTH",
"261.167 1128.5 OFFCURVE",
"210.667 1040.83 OFFCURVE",
"174 938.5 CURVE SMOOTH",
"137.333 836.167 OFFCURVE",
"119 723 OFFCURVE",
"119 599 CURVE SMOOTH",
"119 507.667 OFFCURVE",
"131.667 424.333 OFFCURVE",
"157 349 CURVE SMOOTH",
"182.333 273.667 OFFCURVE",
"218.5 209 OFFCURVE",
"265.5 155 CURVE SMOOTH",
"312.5 101 OFFCURVE",
"369.333 59.1667 OFFCURVE",
"436 29.5001 CURVE SMOOTH",
"502.667 0 OFFCURVE",
"577.333 -15 OFFCURVE",
"660 -15 CURVE SMOOTH",
"762.667 -15 OFFCURVE",
"858 5 OFFCURVE",
"946 45 CURVE SMOOTH",
"1034 85 OFFCURVE",
"1110.33 141.333 OFFCURVE",
"1175 214 CURVE SMOOTH",
"1239.67 286.667 OFFCURVE",
"1290.17 374 OFFCURVE",
"1326.5 476 CURVE SMOOTH",
"1362.83 578 OFFCURVE",
"1381 691.333 OFFCURVE",
"1381 816 CURVE SMOOTH"
);
},
{
closed = 1;
nodes = (
"1278 698.667 OFFCURVE",
"1262.83 595.167 OFFCURVE",
"1232.5 503.5 CURVE SMOOTH",
"1202.17 411.833 OFFCURVE",
"1160 333.667 OFFCURVE",
"1106 269 CURVE SMOOTH",
"1052 204.333 OFFCURVE",
"988 154.833 OFFCURVE",
"914 120.5 CURVE SMOOTH",
"840 86.1667 OFFCURVE",
"759 69 OFFCURVE",
"671 69 CURVE SMOOTH",
"602.333 69 OFFCURVE",
"540.333 81.5001 OFFCURVE",
"485 106.5 CURVE SMOOTH",
"429.667 131.5 OFFCURVE",
"382.333 167 OFFCURVE",
"343 213 CURVE SMOOTH",
"303.667 259 OFFCURVE",
"273.333 314.833 OFFCURVE",
"252 380.5 CURVE SMOOTH",
"230.667 446.167 OFFCURVE",
"220 520 OFFCURVE",
"220 602 CURVE SMOOTH",
"220 716.667 OFFCURVE",
"235.333 820 OFFCURVE",
"266 912 CURVE SMOOTH",
"296.667 1004 OFFCURVE",
"339.167 1082.33 OFFCURVE",
"393.5 1147 CURVE SMOOTH",
"447.833 1211.67 OFFCURVE",
"512 1261.33 OFFCURVE",
"586 1296 CURVE SMOOTH",
"660 1330.67 OFFCURVE",
"740.333 1348 OFFCURVE",
"827 1348 CURVE SMOOTH",
"895.667 1348 OFFCURVE",
"957.833 1335.5 OFFCURVE",
"1013.5 1310.5 CURVE SMOOTH",
"1069.17 1285.5 OFFCURVE",
"1116.67 1249.83 OFFCURVE",
"1156 1203.5 CURVE SMOOTH",
"1195.33 1157.17 OFFCURVE",
"1225.5 1101.17 OFFCURVE",
"1246.5 1035.5 CURVE SMOOTH",
"1267.5 969.833 OFFCURVE",
"1278 896 OFFCURVE",
"1278 814 CURVE SMOOTH"
);
},
{
closed = 1;
nodes = (
"782 1673.33 OFFCURVE",
"779.667 1684 OFFCURVE",
"775 1694 CURVE SMOOTH",
"770.333 1704 OFFCURVE",
"764.167 1712.83 OFFCURVE",
"756.5 1720.5 CURVE SMOOTH",
"748.833 1728.17 OFFCURVE",
"740 1734.17 OFFCURVE",
"730 1738.5 CURVE SMOOTH",
"720 1742.83 OFFCURVE",
"709.667 1745 OFFCURVE",
"699 1745 CURVE SMOOTH",
"687.667 1745 OFFCURVE",
"677.167 1742.83 OFFCURVE",
"667.5 1738.5 CURVE SMOOTH",
"657.833 1734.17 OFFCURVE",
"649.167 1728.17 OFFCURVE",
"641.5 1720.5 CURVE SMOOTH",
"633.833 1712.83 OFFCURVE",
"627.833 1704 OFFCURVE",
"623.5 1694 CURVE SMOOTH",
"619.167 1684 OFFCURVE",
"617 1673.33 OFFCURVE",
"617 1662 CURVE SMOOTH",
"617 1640 OFFCURVE",
"625.167 1621 OFFCURVE",
"641.5 1605 CURVE SMOOTH",
"657.833 1589 OFFCURVE",
"677 1581 OFFCURVE",
"699 1581 CURVE SMOOTH",
"709.667 1581 OFFCURVE",
"720 1583.17 OFFCURVE",
"730 1587.5 CURVE SMOOTH",
"740 1591.83 OFFCURVE",
"748.833 1597.67 OFFCURVE",
"756.5 1605 CURVE SMOOTH",
"764.167 1612.33 OFFCURVE",
"770.333 1620.83 OFFCURVE",
"775 1630.5 CURVE SMOOTH",
"779.667 1640.17 OFFCURVE",
"782 1650.67 OFFCURVE",
"782 1662 CURVE SMOOTH"
);
},
{
closed = 1;
nodes = (
"1139 1673.33 OFFCURVE",
"1136.67 1684 OFFCURVE",
"1132 1694 CURVE SMOOTH",
"1127.33 1704 OFFCURVE",
"1121.33 1712.83 OFFCURVE",
"1114 1720.5 CURVE SMOOTH",
"1106.67 1728.17 OFFCURVE",
"1098 1734.17 OFFCURVE",
"1088 1738.5 CURVE SMOOTH",
"1078 1742.83 OFFCURVE",
"1067.67 1745 OFFCURVE",
"1057 1745 CURVE SMOOTH",
"1034.33 1745 OFFCURVE",
"1015 1736.83 OFFCURVE",
"999 1720.5 CURVE SMOOTH",
"983 1704.17 OFFCURVE",
"975 1684.67 OFFCURVE",
"975 1662 CURVE SMOOTH",
"975 1640 OFFCURVE",
"983 1621 OFFCURVE",
"999 1605 CURVE SMOOTH",
"1015 1589 OFFCURVE",
"1034.33 1581 OFFCURVE",
"1057 1581 CURVE SMOOTH",
"1067.67 1581 OFFCURVE",
"1078 1583.17 OFFCURVE",
"1088 1587.5 CURVE SMOOTH",
"1098 1591.83 OFFCURVE",
"1106.67 1597.67 OFFCURVE",
"1114 1605 CURVE SMOOTH",
"1121.33 1612.33 OFFCURVE",
"1127.33 1620.83 OFFCURVE",
"1132 1630.5 CURVE SMOOTH",
"1136.67 1640.17 OFFCURVE",
"1139 1650.67 OFFCURVE",
"1139 1662 CURVE SMOOTH"
);
}
);
width = 1473;
}
);
leftKerningGroup = C;
rightKerningGroup = O;
unicode = 00D6;
},
{
glyphname = Ograve;
layers = (
{
layerId = "97227C28-C7C3-40A5-B3DE-4B1AC4F48489";
name = "Light Italic";
paths = (
{
closed = 1;
nodes = (
"119 0 LINE"
);
},
{
closed = 1;
nodes = (
"1381 907.333 OFFCURVE",
"1368.33 990.833 OFFCURVE",
"1343 1066.5 CURVE SMOOTH",
"1317.67 1142.17 OFFCURVE",
"1281.5 1207 OFFCURVE",
"1234.5 1261 CURVE SMOOTH",
"1187.5 1315 OFFCURVE",
"1130.5 1356.83 OFFCURVE",
"1063.5 1386.5 CURVE SMOOTH",
"996.5 1416.17 OFFCURVE",
"921.333 1431 OFFCURVE",
"838 1431 CURVE SMOOTH",
"736 1431 OFFCURVE",
"641.167 1411 OFFCURVE",
"553.5 1371 CURVE SMOOTH",
"465.833 1331 OFFCURVE",
"389.833 1274.5 OFFCURVE",
"325.5 1201.5 CURVE SMOOTH",
"261.167 1128.5 OFFCURVE",
"210.667 1040.83 OFFCURVE",
"174 938.5 CURVE SMOOTH",
"137.333 836.167 OFFCURVE",
"119 723 OFFCURVE",
"119 599 CURVE SMOOTH",
"119 507.667 OFFCURVE",
"131.667 424.333 OFFCURVE",
"157 349 CURVE SMOOTH",
"182.333 273.667 OFFCURVE",
"218.5 209 OFFCURVE",
"265.5 155 CURVE SMOOTH",
"312.5 101 OFFCURVE",
"369.333 59.1667 OFFCURVE",
"436 29.5001 CURVE SMOOTH",
"502.667 0 OFFCURVE",
"577.333 -15 OFFCURVE",
"660 -15 CURVE SMOOTH",
"762.667 -15 OFFCURVE",
"858 5 OFFCURVE",
"946 45 CURVE SMOOTH",
"1034 85 OFFCURVE",
"1110.33 141.333 OFFCURVE",
"1175 214 CURVE SMOOTH",
"1239.67 286.667 OFFCURVE",
"1290.17 374 OFFCURVE",
"1326.5 476 CURVE SMOOTH",
"1362.83 578 OFFCURVE",
"1381 691.333 OFFCURVE",
"1381 816 CURVE SMOOTH"
);
},
{
closed = 1;
nodes = (
"1278 698.667 OFFCURVE",
"1262.83 595.167 OFFCURVE",
"1232.5 503.5 CURVE SMOOTH",
"1202.17 411.833 OFFCURVE",
"1160 333.667 OFFCURVE",
"1106 269 CURVE SMOOTH",
"1052 204.333 OFFCURVE",
"988 154.833 OFFCURVE",
"914 120.5 CURVE SMOOTH",
"840 86.1667 OFFCURVE",
"759 69 OFFCURVE",
"671 69 CURVE SMOOTH",
"602.333 69 OFFCURVE",
"540.333 81.5001 OFFCURVE",
"485 106.5 CURVE SMOOTH",
"429.667 131.5 OFFCURVE",
"382.333 167 OFFCURVE",
"343 213 CURVE SMOOTH",
"303.667 259 OFFCURVE",
"273.333 314.833 OFFCURVE",
"252 380.5 CURVE SMOOTH",
"230.667 446.167 OFFCURVE",
"220 520 OFFCURVE",
"220 602 CURVE SMOOTH",
"220 716.667 OFFCURVE",
"235.333 820 OFFCURVE",
"266 912 CURVE SMOOTH",
"296.667 1004 OFFCURVE",
"339.167 1082.33 OFFCURVE",
"393.5 1147 CURVE SMOOTH",
"447.833 1211.67 OFFCURVE",
"512 1261.33 OFFCURVE",
"586 1296 CURVE SMOOTH",
"660 1330.67 OFFCURVE",
"740.333 1348 OFFCURVE",
"827 1348 CURVE SMOOTH",
"895.667 1348 OFFCURVE",
"957.833 1335.5 OFFCURVE",
"1013.5 1310.5 CURVE SMOOTH",
"1069.17 1285.5 OFFCURVE",
"1116.67 1249.83 OFFCURVE",
"1156 1203.5 CURVE SMOOTH",
"1195.33 1157.17 OFFCURVE",
"1225.5 1101.17 OFFCURVE",
"1246.5 1035.5 CURVE SMOOTH",
"1267.5 969.833 OFFCURVE",
"1278 896 OFFCURVE",
"1278 814 CURVE SMOOTH"
);
},
{
closed = 1;
nodes = (
"618 1841 LINE",
"865 1554 LINE SMOOTH",
"869.667 1548.67 OFFCURVE",
"874.5 1545.33 OFFCURVE",
"879.5 1544 CURVE SMOOTH",
"884.5 1542.67 OFFCURVE",
"890.667 1542 OFFCURVE",
"898 1542 CURVE SMOOTH",
"959 1542 LINE",
"770 1819 LINE",
"764 1829 OFFCURVE",
"757.333 1835.17 OFFCURVE",
"750 1837.5 CURVE SMOOTH",
"742.667 1839.83 OFFCURVE",
"731.333 1841 OFFCURVE",
"716 1841 CURVE SMOOTH"
);
}
);
width = 1473;
}
);
leftKerningGroup = C;
rightKerningGroup = O;
unicode = 00D2;
},
{
glyphname = Oslash;
layers = (
{
layerId = "97227C28-C7C3-40A5-B3DE-4B1AC4F48489";
name = "Light Italic";
paths = (
{
closed = 1;
nodes = (
"1381 905.333 OFFCURVE",
"1369 987 OFFCURVE",
"1345 1061 CURVE SMOOTH",
"1321 1135 OFFCURVE",
"1286.33 1199 OFFCURVE",
"1241 1253 CURVE",
"1423 1479 LINE",
"1371 1479 LINE SMOOTH",
"1358.33 1479 OFFCURVE",
"1348.83 1476.83 OFFCURVE",
"1342.5 1472.5 CURVE SMOOTH",
"1336.17 1468.17 OFFCURVE",
"1328.33 1460.67 OFFCURVE",
"1319 1450 CURVE",
"1197 1299 LINE",
"1151 1341 OFFCURVE",
"1097.83 1373.5 OFFCURVE",
"1037.5 1396.5 CURVE SMOOTH",
"977.167 1419.5 OFFCURVE",
"910.667 1431 OFFCURVE",
"838 1431 CURVE SMOOTH",
"736 1431 OFFCURVE",
"641.167 1411 OFFCURVE",
"553.5 1371 CURVE SMOOTH",
"465.833 1331 OFFCURVE",
"389.833 1274.5 OFFCURVE",
"325.5 1201.5 CURVE SMOOTH",
"261.167 1128.5 OFFCURVE",
"210.667 1040.83 OFFCURVE",
"174 938.5 CURVE SMOOTH",
"137.333 836.167 OFFCURVE",
"119 723 OFFCURVE",
"119 599 CURVE SMOOTH",
"119 505 OFFCURVE",
"132 419.833 OFFCURVE",
"158 343.5 CURVE SMOOTH",
"184 267.167 OFFCURVE",
"221.667 202 OFFCURVE",
"271 148 CURVE",
"66.9999 -105 LINE",
"108 -105 LINE SMOOTH",
"118.667 -105 OFFCURVE",
"129.667 -103 OFFCURVE",
"141 -98 CURVE SMOOTH",
"152.333 -93 OFFCURVE",
"162.667 -85 OFFCURVE",
"172 -74 CURVE SMOOTH",
"316 104 LINE",
"360.667 66 OFFCURVE",
"411.833 36.6667 OFFCURVE",
"469.5 16 CURVE SMOOTH",
"527.167 -5 OFFCURVE",
"590.667 -15 OFFCURVE",
"660 -15 CURVE SMOOTH",
"762.667 -15 OFFCURVE",
"858 5 OFFCURVE",
"946 45 CURVE SMOOTH",
"1034 85 OFFCURVE",
"1110.33 141.333 OFFCURVE",
"1175 214 CURVE SMOOTH",
"1239.67 286.667 OFFCURVE",
"1290.17 374 OFFCURVE",
"1326.5 476 CURVE SMOOTH",
"1362.83 578 OFFCURVE",
"1381 691.333 OFFCURVE",
"1381 816 CURVE SMOOTH"
);
},
{
closed = 1;
nodes = (
"220 716.667 OFFCURVE",
"235.333 820 OFFCURVE",
"266 912 CURVE SMOOTH",
"296.667 1004 OFFCURVE",
"339.167 1082.33 OFFCURVE",
"393.5 1147 CURVE SMOOTH",
"447.833 1211.67 OFFCURVE",
"512 1261.33 OFFCURVE",
"586 1296 CURVE SMOOTH",
"660 1330.67 OFFCURVE",
"740.333 1348 OFFCURVE",
"827 1348 CURVE SMOOTH",
"891 1348 OFFCURVE",
"949 1337.33 OFFCURVE",
"1001 1316 CURVE SMOOTH",
"1053 1294.67 OFFCURVE",
"1098.33 1264 OFFCURVE",
"1137 1224 CURVE",
"332 225 LINE",
"296 271 OFFCURVE",
"268.333 325.667 OFFCURVE",
"249 389 CURVE SMOOTH",
"229.667 452.333 OFFCURVE",
"220 523.333 OFFCURVE",
"220 602 CURVE SMOOTH"
);
},
{
closed = 1;
nodes = (
"1278 698.667 OFFCURVE",
"1262.83 595.167 OFFCURVE",
"1232.5 503.5 CURVE SMOOTH",
"1202.17 411.833 OFFCURVE",
"1160 333.667 OFFCURVE",
"1106 269 CURVE SMOOTH",
"1052 204.333 OFFCURVE",
"988 154.833 OFFCURVE",
"914 120.5 CURVE SMOOTH",
"840 86.1665 OFFCURVE",
"759 68.9999 OFFCURVE",
"671 68.9999 CURVE SMOOTH",
"611 68.9999 OFFCURVE",
"556.167 78.1665 OFFCURVE",
"506.5 96.4999 CURVE SMOOTH",
"456.833 114.833 OFFCURVE",
"413 142 OFFCURVE",
"375 178 CURVE",
"1178 1175 LINE",
"1210 1129 OFFCURVE",
"1234.67 1075.83 OFFCURVE",
"1252 1015.5 CURVE SMOOTH",
"1269.33 955.167 OFFCURVE",
"1278 888 OFFCURVE",
"1278 814 CURVE SMOOTH"
);
}
);
width = 1473;
}
);
leftKerningGroup = C;
rightKerningGroup = O;
unicode = 00D8;
},
{
glyphname = Otilde;
layers = (
{
layerId = "97227C28-C7C3-40A5-B3DE-4B1AC4F48489";
name = "Light Italic";
paths = (
{
closed = 1;
nodes = (
"119 0 LINE"
);
},
{
closed = 1;
nodes = (
"1381 907.333 OFFCURVE",
"1368.33 990.833 OFFCURVE",
"1343 1066.5 CURVE SMOOTH",
"1317.67 1142.17 OFFCURVE",
"1281.5 1207 OFFCURVE",
"1234.5 1261 CURVE SMOOTH",
"1187.5 1315 OFFCURVE",
"1130.5 1356.83 OFFCURVE",
"1063.5 1386.5 CURVE SMOOTH",
"996.5 1416.17 OFFCURVE",
"921.333 1431 OFFCURVE",
"838 1431 CURVE SMOOTH",
"736 1431 OFFCURVE",
"641.167 1411 OFFCURVE",
"553.5 1371 CURVE SMOOTH",
"465.833 1331 OFFCURVE",
"389.833 1274.5 OFFCURVE",
"325.5 1201.5 CURVE SMOOTH",
"261.167 1128.5 OFFCURVE",
"210.667 1040.83 OFFCURVE",
"174 938.5 CURVE SMOOTH",
"137.333 836.167 OFFCURVE",
"119 723 OFFCURVE",
"119 599 CURVE SMOOTH",
"119 507.667 OFFCURVE",
"131.667 424.333 OFFCURVE",
"157 349 CURVE SMOOTH",
"182.333 273.667 OFFCURVE",
"218.5 209 OFFCURVE",
"265.5 155 CURVE SMOOTH",
"312.5 101 OFFCURVE",
"369.333 59.1667 OFFCURVE",
"436 29.5001 CURVE SMOOTH",
"502.667 0 OFFCURVE",
"577.333 -15 OFFCURVE",
"660 -15 CURVE SMOOTH",
"762.667 -15 OFFCURVE",
"858 5 OFFCURVE",
"946 45 CURVE SMOOTH",
"1034 85 OFFCURVE",
"1110.33 141.333 OFFCURVE",
"1175 214 CURVE SMOOTH",
"1239.67 286.667 OFFCURVE",
"1290.17 374 OFFCURVE",
"1326.5 476 CURVE SMOOTH",
"1362.83 578 OFFCURVE",
"1381 691.333 OFFCURVE",
"1381 816 CURVE SMOOTH"
);
},
{
closed = 1;
nodes = (
"1278 698.667 OFFCURVE",
"1262.83 595.167 OFFCURVE",
"1232.5 503.5 CURVE SMOOTH",
"1202.17 411.833 OFFCURVE",
"1160 333.667 OFFCURVE",
"1106 269 CURVE SMOOTH",
"1052 204.333 OFFCURVE",
"988 154.833 OFFCURVE",
"914 120.5 CURVE SMOOTH",
"840 86.1667 OFFCURVE",
"759 69 OFFCURVE",
"671 69 CURVE SMOOTH",
"602.333 69 OFFCURVE",
"540.333 81.5001 OFFCURVE",
"485 106.5 CURVE SMOOTH",
"429.667 131.5 OFFCURVE",
"382.333 167 OFFCURVE",
"343 213 CURVE SMOOTH",
"303.667 259 OFFCURVE",
"273.333 314.833 OFFCURVE",
"252 380.5 CURVE SMOOTH",
"230.667 446.167 OFFCURVE",
"220 520 OFFCURVE",
"220 602 CURVE SMOOTH",
"220 716.667 OFFCURVE",
"235.333 820 OFFCURVE",
"266 912 CURVE SMOOTH",
"296.667 1004 OFFCURVE",
"339.167 1082.33 OFFCURVE",
"393.5 1147 CURVE SMOOTH",
"447.833 1211.67 OFFCURVE",
"512 1261.33 OFFCURVE",
"586 1296 CURVE SMOOTH",
"660 1330.67 OFFCURVE",
"740.333 1348 OFFCURVE",
"827 1348 CURVE SMOOTH",
"895.667 1348 OFFCURVE",
"957.833 1335.5 OFFCURVE",
"1013.5 1310.5 CURVE SMOOTH",
"1069.17 1285.5 OFFCURVE",
"1116.67 1249.83 OFFCURVE",
"1156 1203.5 CURVE SMOOTH",
"1195.33 1157.17 OFFCURVE",
"1225.5 1101.17 OFFCURVE",
"1246.5 1035.5 CURVE SMOOTH",
"1267.5 969.833 OFFCURVE",
"1278 896 OFFCURVE",
"1278 814 CURVE SMOOTH"
);
},
{
closed = 1;
nodes = (
"953.667 1616 OFFCURVE",
"937 1621.83 OFFCURVE",
"921 1633.5 CURVE SMOOTH",
"905 1645.17 OFFCURVE",
"888.5 1657.83 OFFCURVE",
"871.5 1671.5 CURVE SMOOTH",
"854.5 1685.17 OFFCURVE",
"836.333 1697.83 OFFCURVE",
"817 1709.5 CURVE SMOOTH",
"797.667 1721.17 OFFCURVE",
"776 1727 OFFCURVE",
"752 1727 CURVE SMOOTH",
"730 1727 OFFCURVE",
"709.833 1722.17 OFFCURVE",
"691.5 1712.5 CURVE SMOOTH",
"673.167 1702.83 OFFCURVE",
"657 1690 OFFCURVE",
"643 1674 CURVE SMOOTH",
"629 1658 OFFCURVE",
"617.667 1639.5 OFFCURVE",
"609 1618.5 CURVE SMOOTH",
"600.333 1597.5 OFFCURVE",
"594.667 1575.67 OFFCURVE",
"592 1553 CURVE",
"648 1553 LINE",
"650 1567 OFFCURVE",
"653.833 1580.5 OFFCURVE",
"659.5 1593.5 CURVE SMOOTH",
"665.167 1606.5 OFFCURVE",
"672.667 1618 OFFCURVE",
"682 1628 CURVE SMOOTH",
"691.333 1638 OFFCURVE",
"702 1646 OFFCURVE",
"714 1652 CURVE SMOOTH",
"726 1658 OFFCURVE",
"739.333 1661 OFFCURVE",
"754 1661 CURVE SMOOTH",
"771.333 1661 OFFCURVE",
"788.167 1655.17 OFFCURVE",
"804.5 1643.5 CURVE SMOOTH",
"820.833 1631.83 OFFCURVE",
"837.5 1619.17 OFFCURVE",
"854.5 1605.5 CURVE SMOOTH",
"871.5 1591.83 OFFCURVE",
"889.5 1579.17 OFFCURVE",
"908.5 1567.5 CURVE SMOOTH",
"927.5 1555.83 OFFCURVE",
"948.667 1550 OFFCURVE",
"972 1550 CURVE SMOOTH",
"994.667 1550 OFFCURVE",
"1015.17 1554.67 OFFCURVE",
"1033.5 1564 CURVE SMOOTH",
"1051.83 1573.33 OFFCURVE",
"1067.83 1586 OFFCURVE",
"1081.5 1602 CURVE SMOOTH",
"1095.17 1618 OFFCURVE",
"1106.17 1636.5 OFFCURVE",
"1114.5 1657.5 CURVE SMOOTH",
"1122.83 1678.5 OFFCURVE",
"1128.33 1700.67 OFFCURVE",
"1131 1724 CURVE",
"1077 1724 LINE",
"1075 1710 OFFCURVE",
"1071.17 1696.5 OFFCURVE",
"1065.5 1683.5 CURVE SMOOTH",
"1059.83 1670.5 OFFCURVE",
"1052.5 1659 OFFCURVE",
"1043.5 1649 CURVE SMOOTH",
"1034.5 1639 OFFCURVE",
"1023.83 1631 OFFCURVE",
"1011.5 1625 CURVE SMOOTH",
"999.167 1619 OFFCURVE",
"985.667 1616 OFFCURVE",
"971 1616 CURVE SMOOTH"
);
}
);
width = 1473;
}
);
leftKerningGroup = C;
rightKerningGroup = O;
unicode = 00D5;
},
{
glyphname = OE;
layers = (
{
layerId = "97227C28-C7C3-40A5-B3DE-4B1AC4F48489";
name = "Light Italic";
paths = (
{
closed = 1;
nodes = (
"2038 1415 LINE",
"1271 1415 LINE",
"1227 1056 LINE",
"1211.67 1113.33 OFFCURVE",
"1190.5 1165.17 OFFCURVE",
"1163.5 1211.5 CURVE SMOOTH",
"1136.5 1257.83 OFFCURVE",
"1104 1297.17 OFFCURVE",
"1066 1329.5 CURVE SMOOTH",
"1028 1361.83 OFFCURVE",
"984.833 1386.83 OFFCURVE",
"936.5 1404.5 CURVE SMOOTH",
"888.167 1422.17 OFFCURVE",
"835 1431 OFFCURVE",
"777 1431 CURVE SMOOTH",
"684.333 1431 OFFCURVE",
"598.167 1410.67 OFFCURVE",
"518.5 1370 CURVE SMOOTH",
"438.833 1329.33 OFFCURVE",
"369.5 1272.17 OFFCURVE",
"310.5 1198.5 CURVE SMOOTH",
"251.5 1124.83 OFFCURVE",
"205.167 1036.33 OFFCURVE",
"171.5 933 CURVE SMOOTH",
"137.833 829.667 OFFCURVE",
"121 715 OFFCURVE",
"121 589 CURVE SMOOTH",
"121 499 OFFCURVE",
"132.167 417 OFFCURVE",
"154.5 343 CURVE SMOOTH",
"176.833 269 OFFCURVE",
"208.833 205.667 OFFCURVE",
"250.5 153 CURVE SMOOTH",
"292.167 100.334 OFFCURVE",
"342.5 59.5004 OFFCURVE",
"401.5 30.5004 CURVE SMOOTH",
"460.5 1.50043 OFFCURVE",
"527 -13 OFFCURVE",
"601 -13 CURVE SMOOTH",
"658.333 -13 OFFCURVE",
"713.167 -5 OFFCURVE",
"765.5 9.50043 CURVE SMOOTH",
"817.833 24.5004 OFFCURVE",
"866.667 46.1671 OFFCURVE",
"912 74.5004 CURVE SMOOTH",
"957.333 102.834 OFFCURVE",
"998.833 137.5 OFFCURVE",
"1036.5 178.5 CURVE SMOOTH",
"1074.17 219.5 OFFCURVE",
"1107.33 266 OFFCURVE",
"1136 318 CURVE",
"1097 0 LINE",
"1864 0 LINE",
"1875 82 LINE",
"1198 82 LINE",
"1270 676 LINE",
"1833 676 LINE",
"1842 756 LINE",
"1280 756 LINE",
"1351 1333 LINE",
"2029 1333 LINE"
);
},
{
closed = 1;
nodes = (
"1178 708 OFFCURVE",
"1164 603.334 OFFCURVE",
"1136 510 CURVE SMOOTH",
"1108 416.667 OFFCURVE",
"1069.33 337.334 OFFCURVE",
"1020 272 CURVE SMOOTH",
"970.667 206.667 OFFCURVE",
"912 156.334 OFFCURVE",
"844 121 CURVE SMOOTH",
"776 85.6672 OFFCURVE",
"702 68 OFFCURVE",
"622 68 CURVE SMOOTH",
"560.667 68 OFFCURVE",
"505.333 80.1672 OFFCURVE",
"456 104.5 CURVE SMOOTH",
"406.667 128.834 OFFCURVE",
"364.667 163.834 OFFCURVE",
"330 209.5 CURVE SMOOTH",
"295.333 255.167 OFFCURVE",
"268.666 310.334 OFFCURVE",
"250 375 CURVE SMOOTH",
"231.333 439.667 OFFCURVE",
"222 512 OFFCURVE",
"222 592 CURVE SMOOTH",
"222 707.334 OFFCURVE",
"236.166 811.667 OFFCURVE",
"264.5 905 CURVE SMOOTH",
"292.833 998.334 OFFCURVE",
"331.833 1078 OFFCURVE",
"381.5 1144 CURVE SMOOTH",
"431.167 1210 OFFCURVE",
"490 1260.83 OFFCURVE",
"558 1296.5 CURVE SMOOTH",
"626 1332.17 OFFCURVE",
"699.667 1350 OFFCURVE",
"779 1350 CURVE SMOOTH",
"841 1350 OFFCURVE",
"896.667 1337.5 OFFCURVE",
"946 1312.5 CURVE SMOOTH",
"995.333 1287.5 OFFCURVE",
"1037.17 1252.17 OFFCURVE",
"1071.5 1206.5 CURVE SMOOTH",
"1105.83 1160.83 OFFCURVE",
"1132.17 1105.67 OFFCURVE",
"1150.5 1041 CURVE SMOOTH",
"1168.83 976.334 OFFCURVE",
"1178 904 OFFCURVE",
"1178 824 CURVE SMOOTH"
);
}
);
width = 2037;
}
);
leftKerningGroup = C;
rightKerningGroup = E;
unicode = 0152;
},
{
glyphname = P;
layers = (
{
layerId = "97227C28-C7C3-40A5-B3DE-4B1AC4F48489";
name = "Light Italic";
paths = (
{
closed = 1;
nodes = (
"293 571 LINE",
"533 571 LINE SMOOTH",
"611.667 571 OFFCURVE",
"683 583 OFFCURVE",
"747 607 CURVE SMOOTH",
"811 631 OFFCURVE",
"865.667 664.5 OFFCURVE",
"911 707.5 CURVE SMOOTH",
"956.333 750.5 OFFCURVE",
"991.333 801.833 OFFCURVE",
"1016 861.5 CURVE SMOOTH",
"1040.67 921.167 OFFCURVE",
"1053 987 OFFCURVE",
"1053 1059 CURVE SMOOTH",
"1053 1171.67 OFFCURVE",
"1018.33 1259.17 OFFCURVE",
"949 1321.5 CURVE SMOOTH",
"879.667 1383.83 OFFCURVE",
"775.667 1415 OFFCURVE",
"637 1415 CURVE SMOOTH",
"297 1415 LINE",
"124 0 LINE",
"223 0 LINE"
);
},
{
closed = 1;
nodes = (
"387 1336 LINE",
"627 1336 LINE SMOOTH",
"735.667 1336 OFFCURVE",
"817.167 1310.83 OFFCURVE",
"871.5 1260.5 CURVE SMOOTH",
"925.833 1210.17 OFFCURVE",
"953 1139.67 OFFCURVE",
"953 1049 CURVE SMOOTH",
"953 991.667 OFFCURVE",
"943.333 938.667 OFFCURVE",
"924 890 CURVE SMOOTH",
"904.667 841.333 OFFCURVE",
"877.167 799.333 OFFCURVE",
"841.5 764 CURVE SMOOTH",
"805.833 728.667 OFFCURVE",
"762.833 701 OFFCURVE",
"712.5 681 CURVE SMOOTH",
"662.167 661 OFFCURVE",
"605.667 651 OFFCURVE",
"543 651 CURVE SMOOTH",
"303 651 LINE"
);
}
);
width = 1078;
}
);
leftKerningGroup = B;
rightKerningGroup = P;
unicode = 0050;
},
{
glyphname = Thorn;
layers = (
{
layerId = "97227C28-C7C3-40A5-B3DE-4B1AC4F48489";
name = "Light Italic";
paths = (
{
closed = 1;
nodes = (
"361 1129 LINE",
"397 1415 LINE",
"297 1415 LINE",
"124 0 LINE",
"223 0 LINE",
"258 286 LINE",
"499 286 LINE SMOOTH",
"577 286 OFFCURVE",
"648 298 OFFCURVE",
"712 322 CURVE SMOOTH",
"776 346 OFFCURVE",
"830.833 379.5 OFFCURVE",
"876.5 422.5 CURVE SMOOTH",
"922.167 465.5 OFFCURVE",
"957.333 516.833 OFFCURVE",
"982 576.5 CURVE SMOOTH",
"1006.67 636.167 OFFCURVE",
"1019 702 OFFCURVE",
"1019 774 CURVE SMOOTH",
"1019 886.667 OFFCURVE",
"984.167 974 OFFCURVE",
"914.5 1036 CURVE SMOOTH",
"844.833 1098 OFFCURVE",
"741 1129 OFFCURVE",
"603 1129 CURVE SMOOTH"
);
},
{
closed = 1;
nodes = (
"352 1050 LINE",
"592 1050 LINE SMOOTH",
"702 1050 OFFCURVE",
"784 1025.17 OFFCURVE",
"838 975.5 CURVE SMOOTH",
"892 925.833 OFFCURVE",
"919 855.333 OFFCURVE",
"919 764 CURVE SMOOTH",
"919 706.667 OFFCURVE",
"909.333 653.667 OFFCURVE",
"890 605 CURVE SMOOTH",
"870.667 556.333 OFFCURVE",
"843.167 514.333 OFFCURVE",
"807.5 479 CURVE SMOOTH",
"771.833 443.667 OFFCURVE",
"728.833 416 OFFCURVE",
"678.5 396 CURVE SMOOTH",
"628.167 376 OFFCURVE",
"571.667 366 OFFCURVE",
"509 366 CURVE SMOOTH",
"268 366 LINE"
);
}
);
width = 1077;
}
);
leftKerningGroup = B;
rightKerningGroup = Thorn;
unicode = 00DE;
},
{
glyphname = Q;
lastChange = "2014-08-21 04:35:43 -0500";
layers = (
{
layerId = "97227C28-C7C3-40A5-B3DE-4B1AC4F48489";
name = "Light Italic";
paths = (
{
closed = 1;
nodes = (
"826 380 LINE",
"1149 -64 LINE",
"1162 -80 OFFCURVE",
"1182 -88 OFFCURVE",
"1208 -88 CURVE SMOOTH",
"1286 -88 LINE",
"910 422 LINE"
);
},
{
closed = 1;
nodes = (
"1381 907.333 OFFCURVE",
"1368.33 990.833 OFFCURVE",
"1343 1066.5 CURVE SMOOTH",
"1317.67 1142.17 OFFCURVE",
"1281.5 1207 OFFCURVE",
"1234.5 1261 CURVE SMOOTH",
"1187.5 1315 OFFCURVE",
"1130.5 1356.83 OFFCURVE",
"1063.5 1386.5 CURVE SMOOTH",
"996.5 1416.17 OFFCURVE",
"921.333 1431 OFFCURVE",
"838 1431 CURVE SMOOTH",
"736 1431 OFFCURVE",
"641.167 1411 OFFCURVE",
"553.5 1371 CURVE SMOOTH",
"465.833 1331 OFFCURVE",
"389.833 1274.5 OFFCURVE",
"325.5 1201.5 CURVE SMOOTH",
"261.167 1128.5 OFFCURVE",
"210.667 1040.83 OFFCURVE",
"174 938.5 CURVE SMOOTH",
"137.333 836.167 OFFCURVE",
"119 723 OFFCURVE",
"119 599 CURVE SMOOTH",
"119 507.667 OFFCURVE",
"131.667 424.333 OFFCURVE",
"157 349 CURVE SMOOTH",
"182.333 273.667 OFFCURVE",
"218.5 209 OFFCURVE",
"265.5 155 CURVE SMOOTH",
"312.5 101 OFFCURVE",
"369.333 59.167 OFFCURVE",
"436 29.5 CURVE SMOOTH",
"502.667 0 OFFCURVE",
"577.333 -15 OFFCURVE",
"660 -15 CURVE SMOOTH",
"762.667 -15 OFFCURVE",
"858 5 OFFCURVE",
"946 45 CURVE SMOOTH",
"1034 85 OFFCURVE",
"1110.33 141.333 OFFCURVE",
"1175 214 CURVE SMOOTH",
"1239.67 286.667 OFFCURVE",
"1290.17 374 OFFCURVE",
"1326.5 476 CURVE SMOOTH",
"1362.83 578 OFFCURVE",
"1381 691.333 OFFCURVE",
"1381 816 CURVE SMOOTH"
);
},
{
closed = 1;
nodes = (
"1278 698.667 OFFCURVE",
"1262.83 595.167 OFFCURVE",
"1232.5 503.5 CURVE SMOOTH",
"1202.17 411.833 OFFCURVE",
"1160 333.667 OFFCURVE",
"1106 269 CURVE SMOOTH",
"1052 204.333 OFFCURVE",
"988 154.833 OFFCURVE",
"914 120.5 CURVE SMOOTH",
"840 86.167 OFFCURVE",
"759 69 OFFCURVE",
"671 69 CURVE SMOOTH",
"602.333 69 OFFCURVE",
"540.333 81.5 OFFCURVE",
"485 106.5 CURVE SMOOTH",
"429.667 131.5 OFFCURVE",
"382.333 167 OFFCURVE",
"343 213 CURVE SMOOTH",
"303.667 259 OFFCURVE",
"273.333 314.833 OFFCURVE",
"252 380.5 CURVE SMOOTH",
"230.667 446.167 OFFCURVE",
"220 520 OFFCURVE",
"220 602 CURVE SMOOTH",
"220 716.667 OFFCURVE",
"235.333 820 OFFCURVE",
"266 912 CURVE SMOOTH",
"296.667 1004 OFFCURVE",
"339.167 1082.33 OFFCURVE",
"393.5 1147 CURVE SMOOTH",
"447.833 1211.67 OFFCURVE",
"512 1261.33 OFFCURVE",
"586 1296 CURVE SMOOTH",
"660 1330.67 OFFCURVE",
"740.333 1348 OFFCURVE",
"827 1348 CURVE SMOOTH",
"895.667 1348 OFFCURVE",
"957.833 1335.5 OFFCURVE",
"1013.5 1310.5 CURVE SMOOTH",
"1069.17 1285.5 OFFCURVE",
"1116.67 1249.83 OFFCURVE",
"1156 1203.5 CURVE SMOOTH",
"1195.33 1157.17 OFFCURVE",
"1225.5 1101.17 OFFCURVE",
"1246.5 1035.5 CURVE SMOOTH",
"1267.5 969.833 OFFCURVE",
"1278 896 OFFCURVE",
"1278 814 CURVE SMOOTH"
);
}
);
width = 1473;
}
);
leftKerningGroup = C;
rightKerningGroup = O;
unicode = 0051;
},
{
glyphname = R;
layers = (
{
layerId = "97227C28-C7C3-40A5-B3DE-4B1AC4F48489";
name = "Light Italic";
paths = (
{
closed = 1;
nodes = (
"302 641 LINE",
"471 641 LINE SMOOTH",
"495.667 641 OFFCURVE",
"513.5 638 OFFCURVE",
"524.5 632 CURVE SMOOTH",
"535.5 626 OFFCURVE",
"545.667 615.667 OFFCURVE",
"555 601 CURVE SMOOTH",
"896 25 LINE SMOOTH",
"901.333 15.6667 OFFCURVE",
"907.5 9.16667 OFFCURVE",
"914.5 5.5 CURVE SMOOTH",
"921.5 1.83333 OFFCURVE",
"930.333 0 OFFCURVE",
"941 0 CURVE SMOOTH",
"1026 0 LINE",
"657 614 LINE SMOOTH",
"647.667 630 OFFCURVE",
"636 643 OFFCURVE",
"622 653 CURVE",
"684.667 661 OFFCURVE",
"741.833 677 OFFCURVE",
"793.5 701 CURVE SMOOTH",
"845.167 725 OFFCURVE",
"889.333 756.167 OFFCURVE",
"926 794.5 CURVE SMOOTH",
"962.667 832.833 OFFCURVE",
"991 877.5 OFFCURVE",
"1011 928.5 CURVE SMOOTH",
"1031 979.5 OFFCURVE",
"1041 1035.67 OFFCURVE",
"1041 1097 CURVE SMOOTH",
"1041 1200.33 OFFCURVE",
"1007.17 1279.17 OFFCURVE",
"939.5 1333.5 CURVE SMOOTH",
"871.833 1387.83 OFFCURVE",
"769.667 1415 OFFCURVE",
"633 1415 CURVE SMOOTH",
"297 1415 LINE",
"124 0 LINE",
"223 0 LINE"
);
},
{
closed = 1;
nodes = (
"388 1336 LINE",
"624 1336 LINE SMOOTH",
"728 1336 OFFCURVE",
"807 1315 OFFCURVE",
"861 1273 CURVE SMOOTH",
"915 1231 OFFCURVE",
"942 1167.33 OFFCURVE",
"942 1082 CURVE SMOOTH",
"942 1026.67 OFFCURVE",
"932.667 976.333 OFFCURVE",
"914 931 CURVE SMOOTH",
"895.333 885.667 OFFCURVE",
"868.333 847 OFFCURVE",
"833 815 CURVE SMOOTH",
"797.667 783 OFFCURVE",
"754.833 758.333 OFFCURVE",
"704.5 741 CURVE SMOOTH",
"654.167 723.667 OFFCURVE",
"597.333 715 OFFCURVE",
"534 715 CURVE SMOOTH",
"311 715 LINE"
);
}
);
width = 1128;
}
);
leftKerningGroup = B;
rightKerningGroup = R;
unicode = 0052;
},
{
glyphname = S;
layers = (
{
layerId = "97227C28-C7C3-40A5-B3DE-4B1AC4F48489";
name = "Light Italic";
paths = (
{
closed = 1;
nodes = (
"938 1284 LINE",
"900.667 1332 OFFCURVE",
"856.333 1368.5 OFFCURVE",
"805 1393.5 CURVE SMOOTH",
"753.667 1418.5 OFFCURVE",
"694 1431 OFFCURVE",
"626 1431 CURVE SMOOTH",
"558.667 1431 OFFCURVE",
"498.667 1419.67 OFFCURVE",
"446 1397 CURVE SMOOTH",
"393.333 1374.33 OFFCURVE",
"348.833 1343.83 OFFCURVE",
"312.5 1305.5 CURVE SMOOTH",
"276.167 1267.17 OFFCURVE",
"248.333 1223 OFFCURVE",
"229 1173 CURVE SMOOTH",
"209.667 1123 OFFCURVE",
"200 1071 OFFCURVE",
"200 1017 CURVE SMOOTH",
"200 967 OFFCURVE",
"208.167 924.833 OFFCURVE",
"224.5 890.5 CURVE SMOOTH",
"240.833 856.167 OFFCURVE",
"262.5 827.167 OFFCURVE",
"289.5 803.5 CURVE SMOOTH",
"316.5 779.833 OFFCURVE",
"347.333 760 OFFCURVE",
"382 744 CURVE SMOOTH",
"416.667 728 OFFCURVE",
"452 713.333 OFFCURVE",
"488 700 CURVE SMOOTH",
"524 686.667 OFFCURVE",
"559.167 673.333 OFFCURVE",
"593.5 660 CURVE SMOOTH",
"627.833 646.667 OFFCURVE",
"658.5 630.333 OFFCURVE",
"685.5 611 CURVE SMOOTH",
"712.5 591.667 OFFCURVE",
"734.333 568.167 OFFCURVE",
"751 540.5 CURVE SMOOTH",
"767.667 512.833 OFFCURVE",
"776 478.333 OFFCURVE",
"776 437 CURVE SMOOTH",
"776 385 OFFCURVE",
"767.5 336.5 OFFCURVE",
"750.5 291.5 CURVE SMOOTH",
"733.5 246.5 OFFCURVE",
"709 207.333 OFFCURVE",
"677 174 CURVE SMOOTH",
"645 140.667 OFFCURVE",
"606.333 114.5 OFFCURVE",
"561 95.5001 CURVE SMOOTH",
"515.667 76.5001 OFFCURVE",
"465 67 OFFCURVE",
"409 67 CURVE SMOOTH",
"371.667 67 OFFCURVE",
"338.833 71 OFFCURVE",
"310.5 79 CURVE SMOOTH",
"282.167 87 OFFCURVE",
"257.333 96.8334 OFFCURVE",
"236 108.5 CURVE SMOOTH",
"214.667 120.167 OFFCURVE",
"196.5 132.833 OFFCURVE",
"181.5 146.5 CURVE SMOOTH",
"166.5 160.167 OFFCURVE",
"153.5 172.833 OFFCURVE",
"142.5 184.5 CURVE SMOOTH",
"131.5 196.167 OFFCURVE",
"122.167 206 OFFCURVE",
"114.5 214 CURVE SMOOTH",
"106.833 222 OFFCURVE",
"100 226 OFFCURVE",
"94 226 CURVE SMOOTH",
"84.6667 226 OFFCURVE",
"75.3334 221.333 OFFCURVE",
"66 212 CURVE",
"33 169 LINE",
"73 111.667 OFFCURVE",
"122.333 66.5001 OFFCURVE",
"181 33.5001 CURVE SMOOTH",
"239.667 0.500061 OFFCURVE",
"311.667 -16 OFFCURVE",
"397 -16 CURVE SMOOTH",
"469.667 -16 OFFCURVE",
"535.333 -3 OFFCURVE",
"594 22 CURVE SMOOTH",
"652.667 47.3334 OFFCURVE",
"702.5 81.5001 OFFCURVE",
"743.5 124.5 CURVE SMOOTH",
"784.5 167.5 OFFCURVE",
"816 217.833 OFFCURVE",
"838 275.5 CURVE SMOOTH",
"860 333.167 OFFCURVE",
"871 394 OFFCURVE",
"871 458 CURVE SMOOTH",
"871 506.667 OFFCURVE",
"862.667 547.667 OFFCURVE",
"846 581 CURVE SMOOTH",
"829.333 614.333 OFFCURVE",
"807.5 642.667 OFFCURVE",
"780.5 666 CURVE SMOOTH",
"753.5 689.333 OFFCURVE",
"722.833 709.167 OFFCURVE",
"688.5 725.5 CURVE SMOOTH",
"654.167 741.833 OFFCURVE",
"618.833 756.833 OFFCURVE",
"582.5 770.5 CURVE SMOOTH",
"546.167 784.167 OFFCURVE",
"510.833 798.167 OFFCURVE",
"476.5 812.5 CURVE SMOOTH",
"442.167 826.833 OFFCURVE",
"411.5 843.833 OFFCURVE",
"384.5 863.5 CURVE SMOOTH",
"357.5 883.167 OFFCURVE",
"335.667 906.833 OFFCURVE",
"319 934.5 CURVE SMOOTH",
"302.333 962.167 OFFCURVE",
"294 996.333 OFFCURVE",
"294 1037 CURVE SMOOTH",
"294 1079.67 OFFCURVE",
"301.333 1119.83 OFFCURVE",
"316 1157.5 CURVE SMOOTH",
"330.667 1195.17 OFFCURVE",
"351.833 1228.17 OFFCURVE",
"379.5 1256.5 CURVE SMOOTH",
"407.167 1284.83 OFFCURVE",
"440.833 1307.17 OFFCURVE",
"480.5 1323.5 CURVE SMOOTH",
"520.167 1339.83 OFFCURVE",
"565.333 1348 OFFCURVE",
"616 1348 CURVE SMOOTH",
"662.667 1348 OFFCURVE",
"701.5 1341.67 OFFCURVE",
"732.5 1329 CURVE SMOOTH",
"763.5 1316.33 OFFCURVE",
"788.833 1302.5 OFFCURVE",
"808.5 1287.5 CURVE SMOOTH",
"828.167 1272.5 OFFCURVE",
"843.667 1258.67 OFFCURVE",
"855 1246 CURVE SMOOTH",
"866.333 1233.33 OFFCURVE",
"876 1227 OFFCURVE",
"884 1227 CURVE SMOOTH",
"894 1227 OFFCURVE",
"902.667 1232.67 OFFCURVE",
"910 1244 CURVE"
);
}
);
width = 996;
}
);
leftKerningGroup = S;
rightKerningGroup = S;
unicode = 0053;
},
{
glyphname = T;
layers = (
{
layerId = "97227C28-C7C3-40A5-B3DE-4B1AC4F48489";
name = "Light Italic";
paths = (
{
closed = 1;
nodes = (
"1137 1415 LINE",
"124 1415 LINE",
"114 1331 LINE",
"572 1331 LINE",
"409 0 LINE",
"508 0 LINE",
"671 1331 LINE",
"1127 1331 LINE"
);
}
);
width = 1065;
}
);
leftKerningGroup = T;
rightKerningGroup = T;
unicode = 0054;
},
{
glyphname = U;
layers = (
{
layerId = "97227C28-C7C3-40A5-B3DE-4B1AC4F48489";
name = "Light Italic";
paths = (
{
closed = 1;
nodes = (
"550 70 OFFCURVE",
"495.833 82 OFFCURVE",
"449.5 106 CURVE SMOOTH",
"403.167 130 OFFCURVE",
"365.667 163.167 OFFCURVE",
"337 205.5 CURVE SMOOTH",
"308.333 247.833 OFFCURVE",
"288.5 297.667 OFFCURVE",
"277.5 355 CURVE SMOOTH",
"266.5 412.333 OFFCURVE",
"265 474 OFFCURVE",
"273 540 CURVE SMOOTH",
"380 1415 LINE",
"281 1415 LINE",
"174 539 LINE SMOOTH",
"164.667 461 OFFCURVE",
"167.333 388.167 OFFCURVE",
"182 320.5 CURVE SMOOTH",
"196.667 252.833 OFFCURVE",
"222.333 194 OFFCURVE",
"259 144 CURVE SMOOTH",
"295.667 94 OFFCURVE",
"342.667 54.6667 OFFCURVE",
"400 26 CURVE SMOOTH",
"457.333 -3 OFFCURVE",
"524 -17 OFFCURVE",
"600 -17 CURVE SMOOTH",
"676.667 -17 OFFCURVE",
"747.333 -3 OFFCURVE",
"812 26 CURVE SMOOTH",
"876.667 54.6667 OFFCURVE",
"933.5 94 OFFCURVE",
"982.5 144 CURVE SMOOTH",
"1031.5 194 OFFCURVE",
"1071.67 252.833 OFFCURVE",
"1103 320.5 CURVE SMOOTH",
"1134.33 388.167 OFFCURVE",
"1155 461 OFFCURVE",
"1165 539 CURVE SMOOTH",
"1272 1415 LINE",
"1173 1415 LINE",
"1065 539 LINE SMOOTH",
"1057 473 OFFCURVE",
"1040.33 411.333 OFFCURVE",
"1015 354 CURVE SMOOTH",
"989.667 296.667 OFFCURVE",
"957.5 247 OFFCURVE",
"918.5 205 CURVE SMOOTH",
"879.5 163 OFFCURVE",
"834.167 130 OFFCURVE",
"782.5 106 CURVE SMOOTH",
"730.833 82 OFFCURVE",
"674 70 OFFCURVE",
"612 70 CURVE SMOOTH"
);
}
);
width = 1353;
}
);
leftKerningGroup = U;
rightKerningGroup = U;
unicode = 0055;
},
{
glyphname = Uacute;
layers = (
{
layerId = "97227C28-C7C3-40A5-B3DE-4B1AC4F48489";
name = "Light Italic";
paths = (
{
closed = 1;
nodes = (
"160 0 LINE"
);
},
{
closed = 1;
nodes = (
"550 70 OFFCURVE",
"495.833 82 OFFCURVE",
"449.5 106 CURVE SMOOTH",
"403.167 130 OFFCURVE",
"365.667 163.167 OFFCURVE",
"337 205.5 CURVE SMOOTH",
"308.333 247.833 OFFCURVE",
"288.5 297.667 OFFCURVE",
"277.5 355 CURVE SMOOTH",
"266.5 412.333 OFFCURVE",
"265 474 OFFCURVE",
"273 540 CURVE SMOOTH",
"380 1415 LINE",
"281 1415 LINE",
"174 539 LINE SMOOTH",
"164.667 461 OFFCURVE",
"167.333 388.167 OFFCURVE",
"182 320.5 CURVE SMOOTH",
"196.667 252.833 OFFCURVE",
"222.333 194 OFFCURVE",
"259 144 CURVE SMOOTH",
"295.667 94 OFFCURVE",
"342.667 54.6667 OFFCURVE",
"400 26 CURVE SMOOTH",
"457.333 -3 OFFCURVE",
"524 -17 OFFCURVE",
"600 -17 CURVE SMOOTH",
"676.667 -17 OFFCURVE",
"747.333 -3 OFFCURVE",
"812 26 CURVE SMOOTH",
"876.667 54.6667 OFFCURVE",
"933.5 94 OFFCURVE",
"982.5 144 CURVE SMOOTH",
"1031.5 194 OFFCURVE",
"1071.67 252.833 OFFCURVE",
"1103 320.5 CURVE SMOOTH",
"1134.33 388.167 OFFCURVE",
"1155 461 OFFCURVE",
"1165 539 CURVE SMOOTH",
"1272 1415 LINE",
"1173 1415 LINE",
"1065 539 LINE SMOOTH",
"1057 473 OFFCURVE",
"1040.33 411.333 OFFCURVE",
"1015 354 CURVE SMOOTH",
"989.667 296.667 OFFCURVE",
"957.5 247 OFFCURVE",
"918.5 205 CURVE SMOOTH",
"879.5 163 OFFCURVE",
"834.167 130 OFFCURVE",
"782.5 106 CURVE SMOOTH",
"730.833 82 OFFCURVE",
"674 70 OFFCURVE",
"612 70 CURVE SMOOTH"
);
},
{
closed = 1;
nodes = (
"1116 1841 LINE",
"1013 1841 LINE SMOOTH",
"998.333 1841 OFFCURVE",
"987.167 1839.67 OFFCURVE",
"979.5 1837 CURVE SMOOTH",
"971.833 1834.33 OFFCURVE",
"963.667 1828.33 OFFCURVE",
"955 1819 CURVE SMOOTH",
"685 1542 LINE",
"745 1542 LINE SMOOTH",
"753 1542 OFFCURVE",
"759.667 1542.67 OFFCURVE",
"765 1544 CURVE SMOOTH",
"770.333 1545.33 OFFCURVE",
"776.333 1548.67 OFFCURVE",
"783 1554 CURVE"
);
}
);
width = 1353;
}
);
leftKerningGroup = U;
rightKerningGroup = U;
unicode = 00DA;
},
{
glyphname = Ucircumflex;
layers = (
{
layerId = "97227C28-C7C3-40A5-B3DE-4B1AC4F48489";
name = "Light Italic";
paths = (
{
closed = 1;
nodes = (
"160 0 LINE"
);
},
{
closed = 1;
nodes = (
"550 70 OFFCURVE",
"495.833 82 OFFCURVE",
"449.5 106 CURVE SMOOTH",
"403.167 130 OFFCURVE",
"365.667 163.167 OFFCURVE",
"337 205.5 CURVE SMOOTH",
"308.333 247.833 OFFCURVE",
"288.5 297.667 OFFCURVE",
"277.5 355 CURVE SMOOTH",
"266.5 412.333 OFFCURVE",
"265 474 OFFCURVE",
"273 540 CURVE SMOOTH",
"380 1415 LINE",
"281 1415 LINE",
"174 539 LINE SMOOTH",
"164.667 461 OFFCURVE",
"167.333 388.167 OFFCURVE",
"182 320.5 CURVE SMOOTH",
"196.667 252.833 OFFCURVE",
"222.333 194 OFFCURVE",
"259 144 CURVE SMOOTH",
"295.667 94 OFFCURVE",
"342.667 54.6667 OFFCURVE",
"400 26 CURVE SMOOTH",
"457.333 -3 OFFCURVE",
"524 -17 OFFCURVE",
"600 -17 CURVE SMOOTH",
"676.667 -17 OFFCURVE",
"747.333 -3 OFFCURVE",
"812 26 CURVE SMOOTH",
"876.667 54.6667 OFFCURVE",
"933.5 94 OFFCURVE",
"982.5 144 CURVE SMOOTH",
"1031.5 194 OFFCURVE",
"1071.67 252.833 OFFCURVE",
"1103 320.5 CURVE SMOOTH",
"1134.33 388.167 OFFCURVE",
"1155 461 OFFCURVE",
"1165 539 CURVE SMOOTH",
"1272 1415 LINE",
"1173 1415 LINE",
"1065 539 LINE SMOOTH",
"1057 473 OFFCURVE",
"1040.33 411.333 OFFCURVE",
"1015 354 CURVE SMOOTH",
"989.667 296.667 OFFCURVE",
"957.5 247 OFFCURVE",
"918.5 205 CURVE SMOOTH",
"879.5 163 OFFCURVE",
"834.167 130 OFFCURVE",
"782.5 106 CURVE SMOOTH",
"730.833 82 OFFCURVE",
"674 70 OFFCURVE",
"612 70 CURVE SMOOTH"
);
},
{
closed = 1;
nodes = (
"1056 1542 LINE",
"870 1809 LINE",
"794 1809 LINE",
"547 1542 LINE",
"611 1542 LINE SMOOTH",
"615.667 1542 OFFCURVE",
"621.333 1543 OFFCURVE",
"628 1545 CURVE SMOOTH",
"634.667 1547 OFFCURVE",
"641.667 1551.67 OFFCURVE",
"649 1559 CURVE",
"817 1745 LINE",
"818.333 1746.33 OFFCURVE",
"819.5 1747.83 OFFCURVE",
"820.5 1749.5 CURVE SMOOTH",
"821.5 1751.17 OFFCURVE",
"822.667 1753 OFFCURVE",
"824 1755 CURVE",
"830 1745 LINE",
"956 1559 LINE SMOOTH",
"961.333 1551.67 OFFCURVE",
"967.167 1547 OFFCURVE",
"973.5 1545 CURVE SMOOTH",
"979.833 1543 OFFCURVE",
"985.333 1542 OFFCURVE",
"990 1542 CURVE SMOOTH"
);
}
);
width = 1353;
}
);
leftKerningGroup = U;
rightKerningGroup = U;
unicode = 00DB;
},
{
glyphname = Udieresis;
layers = (
{
layerId = "97227C28-C7C3-40A5-B3DE-4B1AC4F48489";
name = "Light Italic";
paths = (
{
closed = 1;
nodes = (
"160 0 LINE"
);
},
{
closed = 1;
nodes = (
"550 70 OFFCURVE",
"495.833 82 OFFCURVE",
"449.5 106 CURVE SMOOTH",
"403.167 130 OFFCURVE",
"365.667 163.167 OFFCURVE",
"337 205.5 CURVE SMOOTH",
"308.333 247.833 OFFCURVE",
"288.5 297.667 OFFCURVE",
"277.5 355 CURVE SMOOTH",
"266.5 412.333 OFFCURVE",
"265 474 OFFCURVE",
"273 540 CURVE SMOOTH",
"380 1415 LINE",
"281 1415 LINE",
"174 539 LINE SMOOTH",
"164.667 461 OFFCURVE",
"167.333 388.167 OFFCURVE",
"182 320.5 CURVE SMOOTH",
"196.667 252.833 OFFCURVE",
"222.333 194 OFFCURVE",
"259 144 CURVE SMOOTH",
"295.667 94 OFFCURVE",
"342.667 54.6667 OFFCURVE",
"400 26 CURVE SMOOTH",
"457.333 -3 OFFCURVE",
"524 -17 OFFCURVE",
"600 -17 CURVE SMOOTH",
"676.667 -17 OFFCURVE",
"747.333 -3 OFFCURVE",
"812 26 CURVE SMOOTH",
"876.667 54.6667 OFFCURVE",
"933.5 94 OFFCURVE",
"982.5 144 CURVE SMOOTH",
"1031.5 194 OFFCURVE",
"1071.67 252.833 OFFCURVE",
"1103 320.5 CURVE SMOOTH",
"1134.33 388.167 OFFCURVE",
"1155 461 OFFCURVE",
"1165 539 CURVE SMOOTH",
"1272 1415 LINE",
"1173 1415 LINE",
"1065 539 LINE SMOOTH",
"1057 473 OFFCURVE",
"1040.33 411.333 OFFCURVE",
"1015 354 CURVE SMOOTH",
"989.667 296.667 OFFCURVE",
"957.5 247 OFFCURVE",
"918.5 205 CURVE SMOOTH",
"879.5 163 OFFCURVE",
"834.167 130 OFFCURVE",
"782.5 106 CURVE SMOOTH",
"730.833 82 OFFCURVE",
"674 70 OFFCURVE",
"612 70 CURVE SMOOTH"
);
},
{
closed = 1;
nodes = (
"720 1673.33 OFFCURVE",
"717.667 1684 OFFCURVE",
"713 1694 CURVE SMOOTH",
"708.333 1704 OFFCURVE",
"702.167 1712.83 OFFCURVE",
"694.5 1720.5 CURVE SMOOTH",
"686.833 1728.17 OFFCURVE",
"678 1734.17 OFFCURVE",
"668 1738.5 CURVE SMOOTH",
"658 1742.83 OFFCURVE",
"647.667 1745 OFFCURVE",
"637 1745 CURVE SMOOTH",
"625.667 1745 OFFCURVE",
"615.167 1742.83 OFFCURVE",
"605.5 1738.5 CURVE SMOOTH",
"595.833 1734.17 OFFCURVE",
"587.167 1728.17 OFFCURVE",
"579.5 1720.5 CURVE SMOOTH",
"571.833 1712.83 OFFCURVE",
"565.833 1704 OFFCURVE",
"561.5 1694 CURVE SMOOTH",
"557.167 1684 OFFCURVE",
"555 1673.33 OFFCURVE",
"555 1662 CURVE SMOOTH",
"555 1640 OFFCURVE",
"563.167 1621 OFFCURVE",
"579.5 1605 CURVE SMOOTH",
"595.833 1589 OFFCURVE",
"615 1581 OFFCURVE",
"637 1581 CURVE SMOOTH",
"647.667 1581 OFFCURVE",
"658 1583.17 OFFCURVE",
"668 1587.5 CURVE SMOOTH",
"678 1591.83 OFFCURVE",
"686.833 1597.67 OFFCURVE",
"694.5 1605 CURVE SMOOTH",
"702.167 1612.33 OFFCURVE",
"708.333 1620.83 OFFCURVE",
"713 1630.5 CURVE SMOOTH",
"717.667 1640.17 OFFCURVE",
"720 1650.67 OFFCURVE",
"720 1662 CURVE SMOOTH"
);
},
{
closed = 1;
nodes = (
"1077 1673.33 OFFCURVE",
"1074.67 1684 OFFCURVE",
"1070 1694 CURVE SMOOTH",
"1065.33 1704 OFFCURVE",
"1059.33 1712.83 OFFCURVE",
"1052 1720.5 CURVE SMOOTH",
"1044.67 1728.17 OFFCURVE",
"1036 1734.17 OFFCURVE",
"1026 1738.5 CURVE SMOOTH",
"1016 1742.83 OFFCURVE",
"1005.67 1745 OFFCURVE",
"995 1745 CURVE SMOOTH",
"972.333 1745 OFFCURVE",
"953 1736.83 OFFCURVE",
"937 1720.5 CURVE SMOOTH",
"921 1704.17 OFFCURVE",
"913 1684.67 OFFCURVE",
"913 1662 CURVE SMOOTH",
"913 1640 OFFCURVE",
"921 1621 OFFCURVE",
"937 1605 CURVE SMOOTH",
"953 1589 OFFCURVE",
"972.333 1581 OFFCURVE",
"995 1581 CURVE SMOOTH",
"1005.67 1581 OFFCURVE",
"1016 1583.17 OFFCURVE",
"1026 1587.5 CURVE SMOOTH",
"1036 1591.83 OFFCURVE",
"1044.67 1597.67 OFFCURVE",
"1052 1605 CURVE SMOOTH",
"1059.33 1612.33 OFFCURVE",
"1065.33 1620.83 OFFCURVE",
"1070 1630.5 CURVE SMOOTH",
"1074.67 1640.17 OFFCURVE",
"1077 1650.67 OFFCURVE",
"1077 1662 CURVE SMOOTH"
);
}
);
width = 1353;
}
);
leftKerningGroup = U;
rightKerningGroup = U;
unicode = 00DC;
},
{
glyphname = Ugrave;
layers = (
{
layerId = "97227C28-C7C3-40A5-B3DE-4B1AC4F48489";
name = "Light Italic";
paths = (
{
closed = 1;
nodes = (
"160 0 LINE"
);
},
{
closed = 1;
nodes = (
"550 70 OFFCURVE",
"495.833 82 OFFCURVE",
"449.5 106 CURVE SMOOTH",
"403.167 130 OFFCURVE",
"365.667 163.167 OFFCURVE",
"337 205.5 CURVE SMOOTH",
"308.333 247.833 OFFCURVE",
"288.5 297.667 OFFCURVE",
"277.5 355 CURVE SMOOTH",
"266.5 412.333 OFFCURVE",
"265 474 OFFCURVE",
"273 540 CURVE SMOOTH",
"380 1415 LINE",
"281 1415 LINE",
"174 539 LINE SMOOTH",
"164.667 461 OFFCURVE",
"167.333 388.167 OFFCURVE",
"182 320.5 CURVE SMOOTH",
"196.667 252.833 OFFCURVE",
"222.333 194 OFFCURVE",
"259 144 CURVE SMOOTH",
"295.667 94 OFFCURVE",
"342.667 54.6667 OFFCURVE",
"400 26 CURVE SMOOTH",
"457.333 -3 OFFCURVE",
"524 -17 OFFCURVE",
"600 -17 CURVE SMOOTH",
"676.667 -17 OFFCURVE",
"747.333 -3 OFFCURVE",
"812 26 CURVE SMOOTH",
"876.667 54.6667 OFFCURVE",
"933.5 94 OFFCURVE",
"982.5 144 CURVE SMOOTH",
"1031.5 194 OFFCURVE",
"1071.67 252.833 OFFCURVE",
"1103 320.5 CURVE SMOOTH",
"1134.33 388.167 OFFCURVE",
"1155 461 OFFCURVE",
"1165 539 CURVE SMOOTH",
"1272 1415 LINE",
"1173 1415 LINE",
"1065 539 LINE SMOOTH",
"1057 473 OFFCURVE",
"1040.33 411.333 OFFCURVE",
"1015 354 CURVE SMOOTH",
"989.667 296.667 OFFCURVE",
"957.5 247 OFFCURVE",
"918.5 205 CURVE SMOOTH",
"879.5 163 OFFCURVE",
"834.167 130 OFFCURVE",
"782.5 106 CURVE SMOOTH",
"730.833 82 OFFCURVE",
"674 70 OFFCURVE",
"612 70 CURVE SMOOTH"
);
},
{
closed = 1;
nodes = (
"530 1841 LINE",
"777 1554 LINE SMOOTH",
"781.667 1548.67 OFFCURVE",
"786.5 1545.33 OFFCURVE",
"791.5 1544 CURVE SMOOTH",
"796.5 1542.67 OFFCURVE",
"802.667 1542 OFFCURVE",
"810 1542 CURVE SMOOTH",
"871 1542 LINE",
"682 1819 LINE",
"676 1829 OFFCURVE",
"669.333 1835.17 OFFCURVE",
"662 1837.5 CURVE SMOOTH",
"654.667 1839.83 OFFCURVE",
"643.333 1841 OFFCURVE",
"628 1841 CURVE SMOOTH"
);
}
);
width = 1353;
}
);
leftKerningGroup = U;
rightKerningGroup = U;
unicode = 00D9;
},
{
glyphname = V;
layers = (
{
layerId = "97227C28-C7C3-40A5-B3DE-4B1AC4F48489";
name = "Light Italic";
paths = (
{
closed = 1;
nodes = (
"124 1415 LINE",
"488 0 LINE",
"577 0 LINE",
"1287 1415 LINE",
"1209 1415 LINE SMOOTH",
"1199.67 1415 OFFCURVE",
"1191.5 1412.5 OFFCURVE",
"1184.5 1407.5 CURVE SMOOTH",
"1177.5 1402.5 OFFCURVE",
"1172.33 1396.33 OFFCURVE",
"1169 1389 CURVE SMOOTH",
"586 208 LINE SMOOTH",
"578.667 194 OFFCURVE",
"571.833 179 OFFCURVE",
"565.5 163 CURVE SMOOTH",
"559.167 147 OFFCURVE",
"553 130.333 OFFCURVE",
"547 113 CURVE",
"545 130.333 OFFCURVE",
"542.333 147 OFFCURVE",
"539 163 CURVE SMOOTH",
"535.667 179 OFFCURVE",
"532.333 194 OFFCURVE",
"529 208 CURVE SMOOTH",
"235 1389 LINE",
"233.667 1396.33 OFFCURVE",
"230.333 1402.5 OFFCURVE",
"225 1407.5 CURVE SMOOTH",
"219.667 1412.5 OFFCURVE",
"212.333 1415 OFFCURVE",
"203 1415 CURVE SMOOTH"
);
}
);
width = 1212;
}
);
leftKerningGroup = V;
rightKerningGroup = V;
unicode = 0056;
},
{
glyphname = W;
layers = (
{
layerId = "97227C28-C7C3-40A5-B3DE-4B1AC4F48489";
name = "Light Italic";
paths = (
{
closed = 1;
nodes = (
"142 1415 LINE",
"378 0 LINE",
"466 0 LINE",
"1001 1233 LINE SMOOTH",
"1004.33 1240.33 OFFCURVE",
"1007.5 1248.33 OFFCURVE",
"1010.5 1257 CURVE SMOOTH",
"1013.5 1265.67 OFFCURVE",
"1016.67 1274.67 OFFCURVE",
"1020 1284 CURVE",
"1020.67 1274.67 OFFCURVE",
"1021.5 1265.67 OFFCURVE",
"1022.5 1257 CURVE SMOOTH",
"1023.5 1248.33 OFFCURVE",
"1024.67 1240.33 OFFCURVE",
"1026 1233 CURVE SMOOTH",
"1258 0 LINE",
"1347 0 LINE",
"1930 1415 LINE",
"1854 1415 LINE SMOOTH",
"1844.67 1415 OFFCURVE",
"1836 1412.5 OFFCURVE",
"1828 1407.5 CURVE SMOOTH",
"1820 1402.5 OFFCURVE",
"1815 1396.33 OFFCURVE",
"1813 1389 CURVE",
"1337 213 LINE SMOOTH",
"1332.33 200.333 OFFCURVE",
"1327.83 187.333 OFFCURVE",
"1323.5 174 CURVE SMOOTH",
"1319.17 160.667 OFFCURVE",
"1315 146.667 OFFCURVE",
"1311 132 CURVE",
"1309.67 146.667 OFFCURVE",
"1308.17 160.833 OFFCURVE",
"1306.5 174.5 CURVE SMOOTH",
"1304.83 188.167 OFFCURVE",
"1303 201 OFFCURVE",
"1301 213 CURVE SMOOTH",
"1080 1389 LINE",
"1075.33 1406.33 OFFCURVE",
"1064.33 1415 OFFCURVE",
"1047 1415 CURVE SMOOTH",
"1025 1415 LINE SMOOTH",
"1015.67 1415 OFFCURVE",
"1007.67 1412.5 OFFCURVE",
"1001 1407.5 CURVE SMOOTH",
"994.333 1402.5 OFFCURVE",
"989.333 1396.33 OFFCURVE",
"986 1389 CURVE SMOOTH",
"475 213 LINE SMOOTH",
"465 189 OFFCURVE",
"455.333 162 OFFCURVE",
"446 132 CURVE",
"444.667 146.667 OFFCURVE",
"443.5 160.667 OFFCURVE",
"442.5 174 CURVE SMOOTH",
"441.5 187.333 OFFCURVE",
"440.333 200.333 OFFCURVE",
"439 213 CURVE",
"251 1389 LINE",
"249.667 1406.33 OFFCURVE",
"239 1415 OFFCURVE",
"219 1415 CURVE SMOOTH"
);
}
);
width = 1876;
}
);
leftKerningGroup = W;
rightKerningGroup = W;
unicode = 0057;
},
{
glyphname = X;
layers = (
{
layerId = "97227C28-C7C3-40A5-B3DE-4B1AC4F48489";
name = "Light Italic";
paths = (
{
closed = 1;
nodes = (
"535 756 LINE",
"-49 0 LINE",
"49 0 LINE SMOOTH",
"64.3333 0 OFFCURVE",
"77.6667 8 OFFCURVE",
"89 24 CURVE",
"589 680 LINE",
"592.333 683.333 OFFCURVE",
"595 687 OFFCURVE",
"597 691 CURVE SMOOTH",
"603 703 LINE",
"949 24 LINE",
"952.333 18.6667 OFFCURVE",
"956 13.3333 OFFCURVE",
"960 8 CURVE SMOOTH",
"964 2.66667 OFFCURVE",
"970.667 0 OFFCURVE",
"980 0 CURVE SMOOTH",
"1069 0 LINE",
"673 761 LINE",
"1185 1415 LINE",
"1086 1415 LINE SMOOTH",
"1072.67 1415 OFFCURVE",
"1062 1409 OFFCURVE",
"1054 1397 CURVE",
"622 833 LINE",
"616.667 825 OFFCURVE",
"611.667 816.333 OFFCURVE",
"607 807 CURVE",
"306 1394 LINE SMOOTH",
"302 1401.33 OFFCURVE",
"298 1406.67 OFFCURVE",
"294 1410 CURVE SMOOTH",
"290 1413.33 OFFCURVE",
"283.333 1415 OFFCURVE",
"274 1415 CURVE SMOOTH",
"185 1415 LINE"
);
}
);
width = 1166;
}
);
leftKerningGroup = X;
rightKerningGroup = X;
unicode = 0058;
},
{
glyphname = Y;
layers = (
{
layerId = "97227C28-C7C3-40A5-B3DE-4B1AC4F48489";
name = "Light Italic";
paths = (
{
closed = 1;
nodes = (
"600 583 LINE",
"1183 1415 LINE",
"1100 1415 LINE SMOOTH",
"1090.67 1415 OFFCURVE",
"1083 1412.67 OFFCURVE",
"1077 1408 CURVE SMOOTH",
"1071 1403.33 OFFCURVE",
"1065.67 1397.33 OFFCURVE",
"1061 1390 CURVE",
"597 722 LINE SMOOTH",
"589.667 710.667 OFFCURVE",
"583 699.667 OFFCURVE",
"577 689 CURVE SMOOTH",
"571 678.333 OFFCURVE",
"565.333 667.333 OFFCURVE",
"560 656 CURVE",
"558 666.667 OFFCURVE",
"555.333 677.5 OFFCURVE",
"552 688.5 CURVE SMOOTH",
"548.667 699.5 OFFCURVE",
"545 710.667 OFFCURVE",
"541 722 CURVE",
"242 1390 LINE",
"236.667 1406.67 OFFCURVE",
"225.333 1415 OFFCURVE",
"208 1415 CURVE SMOOTH",
"120 1415 LINE",
"501 584 LINE",
"428 0 LINE",
"527 0 LINE"
);
}
);
width = 1103;
}
);
leftKerningGroup = Y;
rightKerningGroup = Y;
unicode = 0059;
},
{
glyphname = Yacute;
layers = (
{
layerId = "97227C28-C7C3-40A5-B3DE-4B1AC4F48489";
name = "Light Italic";
paths = (
{
closed = 1;
nodes = (
"120 0 LINE"
);
},
{
closed = 1;
nodes = (
"600 583 LINE",
"1183 1415 LINE",
"1100 1415 LINE SMOOTH",
"1090.67 1415 OFFCURVE",
"1083 1412.67 OFFCURVE",
"1077 1408 CURVE SMOOTH",
"1071 1403.33 OFFCURVE",
"1065.67 1397.33 OFFCURVE",
"1061 1390 CURVE",
"597 722 LINE SMOOTH",
"589.667 710.667 OFFCURVE",
"583 699.667 OFFCURVE",
"577 689 CURVE SMOOTH",
"571 678.333 OFFCURVE",
"565.333 667.333 OFFCURVE",
"560 656 CURVE",
"558 666.667 OFFCURVE",
"555.333 677.5 OFFCURVE",
"552 688.5 CURVE SMOOTH",
"548.667 699.5 OFFCURVE",
"545 710.667 OFFCURVE",
"541 722 CURVE",
"242 1390 LINE",
"236.667 1406.67 OFFCURVE",
"225.333 1415 OFFCURVE",
"208 1415 CURVE SMOOTH",
"120 1415 LINE",
"501 584 LINE",
"428 0 LINE",
"527 0 LINE"
);
},
{
closed = 1;
nodes = (
"1003 1841 LINE",
"900 1841 LINE SMOOTH",
"885.333 1841 OFFCURVE",
"874.167 1839.67 OFFCURVE",
"866.5 1837 CURVE SMOOTH",
"858.833 1834.33 OFFCURVE",
"850.667 1828.33 OFFCURVE",
"842 1819 CURVE SMOOTH",
"572 1542 LINE",
"632 1542 LINE SMOOTH",
"640 1542 OFFCURVE",
"646.667 1542.67 OFFCURVE",
"652 1544 CURVE SMOOTH",
"657.333 1545.33 OFFCURVE",
"663.333 1548.67 OFFCURVE",
"670 1554 CURVE"
);
}
);
width = 1103;
}
);
leftKerningGroup = Y;
rightKerningGroup = Y;
unicode = 00DD;
},
{
glyphname = Ydieresis;
layers = (
{
layerId = "97227C28-C7C3-40A5-B3DE-4B1AC4F48489";
name = "Light Italic";
paths = (
{
closed = 1;
nodes = (
"120 0 LINE"
);
},
{
closed = 1;
nodes = (
"600 583 LINE",
"1183 1415 LINE",
"1100 1415 LINE SMOOTH",
"1090.67 1415 OFFCURVE",
"1083 1412.67 OFFCURVE",
"1077 1408 CURVE SMOOTH",
"1071 1403.33 OFFCURVE",
"1065.67 1397.33 OFFCURVE",
"1061 1390 CURVE",
"597 722 LINE SMOOTH",
"589.667 710.667 OFFCURVE",
"583 699.667 OFFCURVE",
"577 689 CURVE SMOOTH",
"571 678.333 OFFCURVE",
"565.333 667.333 OFFCURVE",
"560 656 CURVE",
"558 666.667 OFFCURVE",
"555.333 677.5 OFFCURVE",
"552 688.5 CURVE SMOOTH",
"548.667 699.5 OFFCURVE",
"545 710.667 OFFCURVE",
"541 722 CURVE",
"242 1390 LINE",
"236.667 1406.67 OFFCURVE",
"225.333 1415 OFFCURVE",
"208 1415 CURVE SMOOTH",
"120 1415 LINE",
"501 584 LINE",
"428 0 LINE",
"527 0 LINE"
);
},
{
closed = 1;
nodes = (
"576 1673.33 OFFCURVE",
"573.667 1684 OFFCURVE",
"569 1694 CURVE SMOOTH",
"564.333 1704 OFFCURVE",
"558.167 1712.83 OFFCURVE",
"550.5 1720.5 CURVE SMOOTH",
"542.833 1728.17 OFFCURVE",
"534 1734.17 OFFCURVE",
"524 1738.5 CURVE SMOOTH",
"514 1742.83 OFFCURVE",
"503.667 1745 OFFCURVE",
"493 1745 CURVE SMOOTH",
"481.667 1745 OFFCURVE",
"471.167 1742.83 OFFCURVE",
"461.5 1738.5 CURVE SMOOTH",
"451.833 1734.17 OFFCURVE",
"443.167 1728.17 OFFCURVE",
"435.5 1720.5 CURVE SMOOTH",
"427.833 1712.83 OFFCURVE",
"421.833 1704 OFFCURVE",
"417.5 1694 CURVE SMOOTH",
"413.167 1684 OFFCURVE",
"411 1673.33 OFFCURVE",
"411 1662 CURVE SMOOTH",
"411 1640 OFFCURVE",
"419.167 1621 OFFCURVE",
"435.5 1605 CURVE SMOOTH",
"451.833 1589 OFFCURVE",
"471 1581 OFFCURVE",
"493 1581 CURVE SMOOTH",
"503.667 1581 OFFCURVE",
"514 1583.17 OFFCURVE",
"524 1587.5 CURVE SMOOTH",
"534 1591.83 OFFCURVE",
"542.833 1597.67 OFFCURVE",
"550.5 1605 CURVE SMOOTH",
"558.167 1612.33 OFFCURVE",
"564.333 1620.83 OFFCURVE",
"569 1630.5 CURVE SMOOTH",
"573.667 1640.17 OFFCURVE",
"576 1650.67 OFFCURVE",
"576 1662 CURVE SMOOTH"
);
},
{
closed = 1;
nodes = (
"933 1673.33 OFFCURVE",
"930.667 1684 OFFCURVE",
"926 1694 CURVE SMOOTH",
"921.333 1704 OFFCURVE",
"915.333 1712.83 OFFCURVE",
"908 1720.5 CURVE SMOOTH",
"900.667 1728.17 OFFCURVE",
"892 1734.17 OFFCURVE",
"882 1738.5 CURVE SMOOTH",
"872 1742.83 OFFCURVE",
"861.667 1745 OFFCURVE",
"851 1745 CURVE SMOOTH",
"828.333 1745 OFFCURVE",
"809 1736.83 OFFCURVE",
"793 1720.5 CURVE SMOOTH",
"777 1704.17 OFFCURVE",
"769 1684.67 OFFCURVE",
"769 1662 CURVE SMOOTH",
"769 1640 OFFCURVE",
"777 1621 OFFCURVE",
"793 1605 CURVE SMOOTH",
"809 1589 OFFCURVE",
"828.333 1581 OFFCURVE",
"851 1581 CURVE SMOOTH",
"861.667 1581 OFFCURVE",
"872 1583.17 OFFCURVE",
"882 1587.5 CURVE SMOOTH",
"892 1591.83 OFFCURVE",
"900.667 1597.67 OFFCURVE",
"908 1605 CURVE SMOOTH",
"915.333 1612.33 OFFCURVE",
"921.333 1620.83 OFFCURVE",
"926 1630.5 CURVE SMOOTH",
"930.667 1640.17 OFFCURVE",
"933 1650.67 OFFCURVE",
"933 1662 CURVE SMOOTH"
);
}
);
width = 1103;
}
);
leftKerningGroup = Y;
rightKerningGroup = Y;
unicode = 0178;
},
{
glyphname = Z;
layers = (
{
layerId = "97227C28-C7C3-40A5-B3DE-4B1AC4F48489";
name = "Light Italic";
paths = (
{
closed = 1;
nodes = (
"1128 1415 LINE",
"186 1415 LINE",
"175 1333 LINE",
"982 1333 LINE",
"6 62 LINE",
"2.66667 56.6667 OFFCURVE",
"0 51.8333 OFFCURVE",
"-3 47.5 CURVE SMOOTH",
"-5 43.1667 OFFCURVE",
"-7 38.3333 OFFCURVE",
"-8 33 CURVE",
"-13 0 LINE",
"946 0 LINE",
"957 82 LINE",
"133 82 LINE",
"1107 1351 LINE SMOOTH",
"1111.67 1357 OFFCURVE",
"1115.17 1362.17 OFFCURVE",
"1117.5 1366.5 CURVE SMOOTH",
"1119.83 1370.83 OFFCURVE",
"1121.67 1376 OFFCURVE",
"1123 1382 CURVE"
);
}
);
width = 1097;
}
);
leftKerningGroup = Z;
rightKerningGroup = Z;
unicode = 005A;
},
{
glyphname = a;
layers = (
{
layerId = "97227C28-C7C3-40A5-B3DE-4B1AC4F48489";
name = "Light Italic";
paths = (
{
closed = 1;
nodes = (
"773 0 LINE",
"890 961 LINE",
"856.667 978.333 OFFCURVE",
"822.5 990.5 OFFCURVE",
"787.5 997.5 CURVE SMOOTH",
"752.5 1004.5 OFFCURVE",
"715.333 1008 OFFCURVE",
"676 1008 CURVE SMOOTH",
"621.333 1008 OFFCURVE",
"568.333 999.333 OFFCURVE",
"517 982 CURVE SMOOTH",
"465.667 964.667 OFFCURVE",
"417.333 940.667 OFFCURVE",
"372 910 CURVE SMOOTH",
"326.667 879.333 OFFCURVE",
"285.333 843 OFFCURVE",
"248 801 CURVE SMOOTH",
"210.667 759 OFFCURVE",
"178.667 713 OFFCURVE",
"152 663 CURVE SMOOTH",
"125.333 613 OFFCURVE",
"104.5 560.167 OFFCURVE",
"89.5 504.5 CURVE SMOOTH",
"74.5 448.833 OFFCURVE",
"67 392 OFFCURVE",
"67 334 CURVE SMOOTH",
"67 280.667 OFFCURVE",
"72.3333 232.667 OFFCURVE",
"83 190 CURVE SMOOTH",
"93.6667 147.333 OFFCURVE",
"109.5 111 OFFCURVE",
"130.5 81 CURVE SMOOTH",
"151.5 51 OFFCURVE",
"177.833 27.8333 OFFCURVE",
"209.5 11.5 CURVE SMOOTH",
"241.167 -5 OFFCURVE",
"277.667 -13 OFFCURVE",
"319 -13 CURVE SMOOTH",
"359.667 -13 OFFCURVE",
"399 -4 OFFCURVE",
"437 13 CURVE SMOOTH",
"475 30.3333 OFFCURVE",
"511.333 54.6667 OFFCURVE",
"546 86 CURVE SMOOTH",
"580.667 117.333 OFFCURVE",
"613.167 155.167 OFFCURVE",
"643.5 199.5 CURVE SMOOTH",
"673.833 243.833 OFFCURVE",
"701.667 292.667 OFFCURVE",
"727 346 CURVE",
"693 36 LINE",
"693 26.6667 OFFCURVE",
"695.333 18.3333 OFFCURVE",
"700 11 CURVE SMOOTH",
"704.667 3.66667 OFFCURVE",
"713.667 0 OFFCURVE",
"727 0 CURVE SMOOTH"
);
},
{
closed = 1;
nodes = (
"286 66 OFFCURVE",
"238.833 90.8333 OFFCURVE",
"208.5 140.5 CURVE SMOOTH",
"178.167 190.167 OFFCURVE",
"163 259.667 OFFCURVE",
"163 349 CURVE SMOOTH",
"163 425 OFFCURVE",
"176.667 498.333 OFFCURVE",
"204 569 CURVE SMOOTH",
"231.333 639.667 OFFCURVE",
"268 702.333 OFFCURVE",
"314 757 CURVE SMOOTH",
"360 811.667 OFFCURVE",
"413.333 855.333 OFFCURVE",
"474 888 CURVE SMOOTH",
"534.667 920.667 OFFCURVE",
"598.333 937 OFFCURVE",
"665 937 CURVE SMOOTH",
"710.333 937 OFFCURVE",
"752.667 930.333 OFFCURVE",
"792 917 CURVE",
"741 508 LINE",
"717.667 442 OFFCURVE",
"691.333 381.833 OFFCURVE",
"662 327.5 CURVE SMOOTH",
"632.667 273.167 OFFCURVE",
"601.167 226.667 OFFCURVE",
"567.5 188 CURVE SMOOTH",
"533.833 149.333 OFFCURVE",
"498.667 119.333 OFFCURVE",
"462 98 CURVE SMOOTH",
"425.333 76.6667 OFFCURVE",
"388 66 OFFCURVE",
"350 66 CURVE SMOOTH"
);
}
);
width = 997;
}
);
leftKerningGroup = a;
rightKerningGroup = a;
unicode = 0061;
},
{
glyphname = aacute;
layers = (
{
layerId = "97227C28-C7C3-40A5-B3DE-4B1AC4F48489";
name = "Light Italic";
paths = (
{
closed = 1;
nodes = (
"67 0 LINE"
);
},
{
closed = 1;
nodes = (
"773 0 LINE",
"890 961 LINE",
"856.667 978.333 OFFCURVE",
"822.5 990.5 OFFCURVE",
"787.5 997.5 CURVE SMOOTH",
"752.5 1004.5 OFFCURVE",
"715.333 1008 OFFCURVE",
"676 1008 CURVE SMOOTH",
"621.333 1008 OFFCURVE",
"568.333 999.333 OFFCURVE",
"517 982 CURVE SMOOTH",
"465.667 964.667 OFFCURVE",
"417.333 940.667 OFFCURVE",
"372 910 CURVE SMOOTH",
"326.667 879.333 OFFCURVE",
"285.333 843 OFFCURVE",
"248 801 CURVE SMOOTH",
"210.667 759 OFFCURVE",
"178.667 713 OFFCURVE",
"152 663 CURVE SMOOTH",
"125.333 613 OFFCURVE",
"104.5 560.167 OFFCURVE",
"89.5 504.5 CURVE SMOOTH",
"74.5 448.833 OFFCURVE",
"67 392 OFFCURVE",
"67 334 CURVE SMOOTH",
"67 280.667 OFFCURVE",
"72.3333 232.667 OFFCURVE",
"83 190 CURVE SMOOTH",
"93.6667 147.333 OFFCURVE",
"109.5 111 OFFCURVE",
"130.5 81 CURVE SMOOTH",
"151.5 51 OFFCURVE",
"177.833 27.8333 OFFCURVE",
"209.5 11.5 CURVE SMOOTH",
"241.167 -5 OFFCURVE",
"277.667 -13 OFFCURVE",
"319 -13 CURVE SMOOTH",
"359.667 -13 OFFCURVE",
"399 -4 OFFCURVE",
"437 13 CURVE SMOOTH",
"475 30.3333 OFFCURVE",
"511.333 54.6667 OFFCURVE",
"546 86 CURVE SMOOTH",
"580.667 117.333 OFFCURVE",
"613.167 155.167 OFFCURVE",
"643.5 199.5 CURVE SMOOTH",
"673.833 243.833 OFFCURVE",
"701.667 292.667 OFFCURVE",
"727 346 CURVE",
"693 36 LINE",
"693 26.6667 OFFCURVE",
"695.333 18.3333 OFFCURVE",
"700 11 CURVE SMOOTH",
"704.667 3.66667 OFFCURVE",
"713.667 0 OFFCURVE",
"727 0 CURVE SMOOTH"
);
},
{
closed = 1;
nodes = (
"350 66 LINE SMOOTH",
"286 66 OFFCURVE",
"238.833 90.8333 OFFCURVE",
"208.5 140.5 CURVE SMOOTH",
"178.167 190.167 OFFCURVE",
"163 259.667 OFFCURVE",
"163 349 CURVE SMOOTH",
"163 425 OFFCURVE",
"176.667 498.333 OFFCURVE",
"204 569 CURVE SMOOTH",
"231.333 639.667 OFFCURVE",
"268 702.333 OFFCURVE",
"314 757 CURVE SMOOTH",
"360 811.667 OFFCURVE",
"413.333 855.333 OFFCURVE",
"474 888 CURVE SMOOTH",
"534.667 920.667 OFFCURVE",
"598.333 937 OFFCURVE",
"665 937 CURVE SMOOTH",
"710.333 937 OFFCURVE",
"752.667 930.333 OFFCURVE",
"792 917 CURVE",
"741 508 LINE",
"717.667 442 OFFCURVE",
"691.333 381.833 OFFCURVE",
"662 327.5 CURVE SMOOTH",
"632.667 273.167 OFFCURVE",
"601.167 226.667 OFFCURVE",
"567.5 188 CURVE SMOOTH",
"533.833 149.333 OFFCURVE",
"498.667 119.333 OFFCURVE",
"462 98 CURVE SMOOTH",
"425.333 76.6667 OFFCURVE",
"388 66 OFFCURVE",
"350 66 CURVE SMOOTH"
);
},
{
closed = 1;
nodes = (
"941 1431 LINE",
"854 1431 LINE SMOOTH",
"839.333 1431 OFFCURVE",
"828 1428.67 OFFCURVE",
"820 1424 CURVE SMOOTH",
"812 1419.33 OFFCURVE",
"804 1411 OFFCURVE",
"796 1399 CURVE",
"625 1161 LINE",
"678 1161 LINE SMOOTH",
"685.333 1161 OFFCURVE",
"691.667 1162.17 OFFCURVE",
"697 1164.5 CURVE SMOOTH",
"702.333 1166.83 OFFCURVE",
"707.667 1171.33 OFFCURVE",
"713 1178 CURVE"
);
}
);
width = 997;
}
);
leftKerningGroup = a;
rightKerningGroup = a;
unicode = 00E1;
},
{
glyphname = acircumflex;
layers = (
{
layerId = "97227C28-C7C3-40A5-B3DE-4B1AC4F48489";
name = "Light Italic";
paths = (
{
closed = 1;
nodes = (
"67 0 LINE"
);
},
{
closed = 1;
nodes = (
"773 0 LINE",
"890 961 LINE",
"856.667 978.333 OFFCURVE",
"822.5 990.5 OFFCURVE",
"787.5 997.5 CURVE SMOOTH",
"752.5 1004.5 OFFCURVE",
"715.333 1008 OFFCURVE",
"676 1008 CURVE SMOOTH",
"621.333 1008 OFFCURVE",
"568.333 999.333 OFFCURVE",
"517 982 CURVE SMOOTH",
"465.667 964.667 OFFCURVE",
"417.333 940.667 OFFCURVE",
"372 910 CURVE SMOOTH",
"326.667 879.333 OFFCURVE",
"285.333 843 OFFCURVE",
"248 801 CURVE SMOOTH",
"210.667 759 OFFCURVE",
"178.667 713 OFFCURVE",
"152 663 CURVE SMOOTH",
"125.333 613 OFFCURVE",
"104.5 560.167 OFFCURVE",
"89.5 504.5 CURVE SMOOTH",
"74.5 448.833 OFFCURVE",
"67 392 OFFCURVE",
"67 334 CURVE SMOOTH",
"67 280.667 OFFCURVE",
"72.3333 232.667 OFFCURVE",
"83 190 CURVE SMOOTH",
"93.6667 147.333 OFFCURVE",
"109.5 111 OFFCURVE",
"130.5 81 CURVE SMOOTH",
"151.5 51 OFFCURVE",
"177.833 27.8333 OFFCURVE",
"209.5 11.5 CURVE SMOOTH",
"241.167 -5 OFFCURVE",
"277.667 -13 OFFCURVE",
"319 -13 CURVE SMOOTH",
"359.667 -13 OFFCURVE",
"399 -4 OFFCURVE",
"437 13 CURVE SMOOTH",
"475 30.3333 OFFCURVE",
"511.333 54.6667 OFFCURVE",
"546 86 CURVE SMOOTH",
"580.667 117.333 OFFCURVE",
"613.167 155.167 OFFCURVE",
"643.5 199.5 CURVE SMOOTH",
"673.833 243.833 OFFCURVE",
"701.667 292.667 OFFCURVE",
"727 346 CURVE",
"693 36 LINE",
"693 26.6667 OFFCURVE",
"695.333 18.3333 OFFCURVE",
"700 11 CURVE SMOOTH",
"704.667 3.66667 OFFCURVE",
"713.667 0 OFFCURVE",
"727 0 CURVE SMOOTH"
);
},
{
closed = 1;
nodes = (
"350 66 LINE SMOOTH",
"286 66 OFFCURVE",
"238.833 90.8333 OFFCURVE",
"208.5 140.5 CURVE SMOOTH",
"178.167 190.167 OFFCURVE",
"163 259.667 OFFCURVE",
"163 349 CURVE SMOOTH",
"163 425 OFFCURVE",
"176.667 498.333 OFFCURVE",
"204 569 CURVE SMOOTH",
"231.333 639.667 OFFCURVE",
"268 702.333 OFFCURVE",
"314 757 CURVE SMOOTH",
"360 811.667 OFFCURVE",
"413.333 855.333 OFFCURVE",
"474 888 CURVE SMOOTH",
"534.667 920.667 OFFCURVE",
"598.333 937 OFFCURVE",
"665 937 CURVE SMOOTH",
"710.333 937 OFFCURVE",
"752.667 930.333 OFFCURVE",
"792 917 CURVE",
"741 508 LINE",
"717.667 442 OFFCURVE",
"691.333 381.833 OFFCURVE",
"662 327.5 CURVE SMOOTH",
"632.667 273.167 OFFCURVE",
"601.167 226.667 OFFCURVE",
"567.5 188 CURVE SMOOTH",
"533.833 149.333 OFFCURVE",
"498.667 119.333 OFFCURVE",
"462 98 CURVE SMOOTH",
"425.333 76.6667 OFFCURVE",
"388 66 OFFCURVE",
"350 66 CURVE SMOOTH"
);
},
{
closed = 1;
nodes = (
"883 1169 LINE",
"710 1415 LINE",
"632 1415 LINE",
"404 1169 LINE",
"466 1169 LINE SMOOTH",
"476.667 1169 OFFCURVE",
"486 1173.67 OFFCURVE",
"494 1183 CURVE",
"655 1349 LINE",
"666 1361 LINE",
"667.333 1359 OFFCURVE",
"668.833 1356.83 OFFCURVE",
"670.5 1354.5 CURVE SMOOTH",
"672.167 1352.17 OFFCURVE",
"673.667 1350.33 OFFCURVE",
"675 1349 CURVE",
"798 1183 LINE",
"801.333 1177.67 OFFCURVE",
"805.333 1174 OFFCURVE",
"810 1172 CURVE SMOOTH",
"814.667 1170 OFFCURVE",
"819 1169 OFFCURVE",
"823 1169 CURVE SMOOTH"
);
}
);
width = 997;
}
);
leftKerningGroup = a;
rightKerningGroup = a;
unicode = 00E2;
},
{
glyphname = adieresis;
layers = (
{
layerId = "97227C28-C7C3-40A5-B3DE-4B1AC4F48489";
name = "Light Italic";
paths = (
{
closed = 1;
nodes = (
"67 0 LINE"
);
},
{
closed = 1;
nodes = (
"773 0 LINE",
"890 961 LINE",
"856.667 978.333 OFFCURVE",
"822.5 990.5 OFFCURVE",
"787.5 997.5 CURVE SMOOTH",
"752.5 1004.5 OFFCURVE",
"715.333 1008 OFFCURVE",
"676 1008 CURVE SMOOTH",
"621.333 1008 OFFCURVE",
"568.333 999.333 OFFCURVE",
"517 982 CURVE SMOOTH",
"465.667 964.667 OFFCURVE",
"417.333 940.667 OFFCURVE",
"372 910 CURVE SMOOTH",
"326.667 879.333 OFFCURVE",
"285.333 843 OFFCURVE",
"248 801 CURVE SMOOTH",
"210.667 759 OFFCURVE",
"178.667 713 OFFCURVE",
"152 663 CURVE SMOOTH",
"125.333 613 OFFCURVE",
"104.5 560.167 OFFCURVE",
"89.5 504.5 CURVE SMOOTH",
"74.5 448.833 OFFCURVE",
"67 392 OFFCURVE",
"67 334 CURVE SMOOTH",
"67 280.667 OFFCURVE",
"72.3333 232.667 OFFCURVE",
"83 190 CURVE SMOOTH",
"93.6667 147.333 OFFCURVE",
"109.5 111 OFFCURVE",
"130.5 81 CURVE SMOOTH",
"151.5 51 OFFCURVE",
"177.833 27.8333 OFFCURVE",
"209.5 11.5 CURVE SMOOTH",
"241.167 -5 OFFCURVE",
"277.667 -13 OFFCURVE",
"319 -13 CURVE SMOOTH",
"359.667 -13 OFFCURVE",
"399 -4 OFFCURVE",
"437 13 CURVE SMOOTH",
"475 30.3333 OFFCURVE",
"511.333 54.6667 OFFCURVE",
"546 86 CURVE SMOOTH",
"580.667 117.333 OFFCURVE",
"613.167 155.167 OFFCURVE",
"643.5 199.5 CURVE SMOOTH",
"673.833 243.833 OFFCURVE",
"701.667 292.667 OFFCURVE",
"727 346 CURVE",
"693 36 LINE",
"693 26.6667 OFFCURVE",
"695.333 18.3333 OFFCURVE",
"700 11 CURVE SMOOTH",
"704.667 3.66667 OFFCURVE",
"713.667 0 OFFCURVE",
"727 0 CURVE SMOOTH"
);
},
{
closed = 1;
nodes = (
"350 66 LINE SMOOTH",
"286 66 OFFCURVE",
"238.833 90.8333 OFFCURVE",
"208.5 140.5 CURVE SMOOTH",
"178.167 190.167 OFFCURVE",
"163 259.667 OFFCURVE",
"163 349 CURVE SMOOTH",
"163 425 OFFCURVE",
"176.667 498.333 OFFCURVE",
"204 569 CURVE SMOOTH",
"231.333 639.667 OFFCURVE",
"268 702.333 OFFCURVE",
"314 757 CURVE SMOOTH",
"360 811.667 OFFCURVE",
"413.333 855.333 OFFCURVE",
"474 888 CURVE SMOOTH",
"534.667 920.667 OFFCURVE",
"598.333 937 OFFCURVE",
"665 937 CURVE SMOOTH",
"710.333 937 OFFCURVE",
"752.667 930.333 OFFCURVE",
"792 917 CURVE",
"741 508 LINE",
"717.667 442 OFFCURVE",
"691.333 381.833 OFFCURVE",
"662 327.5 CURVE SMOOTH",
"632.667 273.167 OFFCURVE",
"601.167 226.667 OFFCURVE",
"567.5 188 CURVE SMOOTH",
"533.833 149.333 OFFCURVE",
"498.667 119.333 OFFCURVE",
"462 98 CURVE SMOOTH",
"425.333 76.6667 OFFCURVE",
"388 66 OFFCURVE",
"350 66 CURVE SMOOTH"
);
},
{
closed = 1;
nodes = (
"606 1295.33 OFFCURVE",
"603.667 1306 OFFCURVE",
"599 1316 CURVE SMOOTH",
"594.333 1326 OFFCURVE",
"588.333 1334.83 OFFCURVE",
"581 1342.5 CURVE SMOOTH",
"573.667 1350.17 OFFCURVE",
"564.833 1356.17 OFFCURVE",
"554.5 1360.5 CURVE SMOOTH",
"544.167 1364.83 OFFCURVE",
"533.667 1367 OFFCURVE",
"523 1367 CURVE SMOOTH",
"512.333 1367 OFFCURVE",
"502.167 1364.83 OFFCURVE",
"492.5 1360.5 CURVE SMOOTH",
"482.833 1356.17 OFFCURVE",
"474.167 1350.17 OFFCURVE",
"466.5 1342.5 CURVE SMOOTH",
"458.833 1334.83 OFFCURVE",
"452.833 1326 OFFCURVE",
"448.5 1316 CURVE SMOOTH",
"444.167 1306 OFFCURVE",
"442 1295.33 OFFCURVE",
"442 1284 CURVE SMOOTH",
"442 1273.33 OFFCURVE",
"444.167 1263.17 OFFCURVE",
"448.5 1253.5 CURVE SMOOTH",
"452.833 1243.83 OFFCURVE",
"458.833 1235.33 OFFCURVE",
"466.5 1228 CURVE SMOOTH",
"474.167 1220.67 OFFCURVE",
"482.833 1214.83 OFFCURVE",
"492.5 1210.5 CURVE SMOOTH",
"502.167 1206.17 OFFCURVE",
"512.333 1204 OFFCURVE",
"523 1204 CURVE SMOOTH",
"533.667 1204 OFFCURVE",
"544.167 1206.17 OFFCURVE",
"554.5 1210.5 CURVE SMOOTH",
"564.833 1214.83 OFFCURVE",
"573.667 1220.67 OFFCURVE",
"581 1228 CURVE SMOOTH",
"588.333 1235.33 OFFCURVE",
"594.333 1243.83 OFFCURVE",
"599 1253.5 CURVE SMOOTH",
"603.667 1263.17 OFFCURVE",
"606 1273.33 OFFCURVE",
"606 1284 CURVE SMOOTH"
);
},
{
closed = 1;
nodes = (
"939 1295.33 OFFCURVE",
"936.667 1306 OFFCURVE",
"932 1316 CURVE SMOOTH",
"927.333 1326 OFFCURVE",
"921.333 1334.83 OFFCURVE",
"914 1342.5 CURVE SMOOTH",
"906.667 1350.17 OFFCURVE",
"897.833 1356.17 OFFCURVE",
"887.5 1360.5 CURVE SMOOTH",
"877.167 1364.83 OFFCURVE",
"866.667 1367 OFFCURVE",
"856 1367 CURVE SMOOTH",
"844.667 1367 OFFCURVE",
"834.167 1364.83 OFFCURVE",
"824.5 1360.5 CURVE SMOOTH",
"814.833 1356.17 OFFCURVE",
"806.167 1350.17 OFFCURVE",
"798.5 1342.5 CURVE SMOOTH",
"790.833 1334.83 OFFCURVE",
"784.833 1326 OFFCURVE",
"780.5 1316 CURVE SMOOTH",
"776.167 1306 OFFCURVE",
"774 1295.33 OFFCURVE",
"774 1284 CURVE SMOOTH",
"774 1273.33 OFFCURVE",
"776.167 1263.17 OFFCURVE",
"780.5 1253.5 CURVE SMOOTH",
"784.833 1243.83 OFFCURVE",
"790.833 1235.33 OFFCURVE",
"798.5 1228 CURVE SMOOTH",
"806.167 1220.67 OFFCURVE",
"814.833 1214.83 OFFCURVE",
"824.5 1210.5 CURVE SMOOTH",
"834.167 1206.17 OFFCURVE",
"844.667 1204 OFFCURVE",
"856 1204 CURVE SMOOTH",
"866.667 1204 OFFCURVE",
"877.167 1206.17 OFFCURVE",
"887.5 1210.5 CURVE SMOOTH",
"897.833 1214.83 OFFCURVE",
"906.667 1220.67 OFFCURVE",
"914 1228 CURVE SMOOTH",
"921.333 1235.33 OFFCURVE",
"927.333 1243.83 OFFCURVE",
"932 1253.5 CURVE SMOOTH",
"936.667 1263.17 OFFCURVE",
"939 1273.33 OFFCURVE",
"939 1284 CURVE SMOOTH"
);
}
);
width = 997;
}
);
leftKerningGroup = a;
rightKerningGroup = a;
unicode = 00E4;
},
{
glyphname = agrave;
layers = (
{
layerId = "97227C28-C7C3-40A5-B3DE-4B1AC4F48489";
name = "Light Italic";
paths = (
{
closed = 1;
nodes = (
"67 0 LINE"
);
},
{
closed = 1;
nodes = (
"773 0 LINE",
"890 961 LINE",
"856.667 978.333 OFFCURVE",
"822.5 990.5 OFFCURVE",
"787.5 997.5 CURVE SMOOTH",
"752.5 1004.5 OFFCURVE",
"715.333 1008 OFFCURVE",
"676 1008 CURVE SMOOTH",
"621.333 1008 OFFCURVE",
"568.333 999.333 OFFCURVE",
"517 982 CURVE SMOOTH",
"465.667 964.667 OFFCURVE",
"417.333 940.667 OFFCURVE",
"372 910 CURVE SMOOTH",
"326.667 879.333 OFFCURVE",
"285.333 843 OFFCURVE",
"248 801 CURVE SMOOTH",
"210.667 759 OFFCURVE",
"178.667 713 OFFCURVE",
"152 663 CURVE SMOOTH",
"125.333 613 OFFCURVE",
"104.5 560.167 OFFCURVE",
"89.5 504.5 CURVE SMOOTH",
"74.5 448.833 OFFCURVE",
"67 392 OFFCURVE",
"67 334 CURVE SMOOTH",
"67 280.667 OFFCURVE",
"72.3333 232.667 OFFCURVE",
"83 190 CURVE SMOOTH",
"93.6667 147.333 OFFCURVE",
"109.5 111 OFFCURVE",
"130.5 81 CURVE SMOOTH",
"151.5 51 OFFCURVE",
"177.833 27.8333 OFFCURVE",
"209.5 11.5 CURVE SMOOTH",
"241.167 -5 OFFCURVE",
"277.667 -13 OFFCURVE",
"319 -13 CURVE SMOOTH",
"359.667 -13 OFFCURVE",
"399 -4 OFFCURVE",
"437 13 CURVE SMOOTH",
"475 30.3333 OFFCURVE",
"511.333 54.6667 OFFCURVE",
"546 86 CURVE SMOOTH",
"580.667 117.333 OFFCURVE",
"613.167 155.167 OFFCURVE",
"643.5 199.5 CURVE SMOOTH",
"673.833 243.833 OFFCURVE",
"701.667 292.667 OFFCURVE",
"727 346 CURVE",
"693 36 LINE",
"693 26.6667 OFFCURVE",
"695.333 18.3333 OFFCURVE",
"700 11 CURVE SMOOTH",
"704.667 3.66667 OFFCURVE",
"713.667 0 OFFCURVE",
"727 0 CURVE SMOOTH"
);
},
{
closed = 1;
nodes = (
"350 66 LINE SMOOTH",
"286 66 OFFCURVE",
"238.833 90.8333 OFFCURVE",
"208.5 140.5 CURVE SMOOTH",
"178.167 190.167 OFFCURVE",
"163 259.667 OFFCURVE",
"163 349 CURVE SMOOTH",
"163 425 OFFCURVE",
"176.667 498.333 OFFCURVE",
"204 569 CURVE SMOOTH",
"231.333 639.667 OFFCURVE",
"268 702.333 OFFCURVE",
"314 757 CURVE SMOOTH",
"360 811.667 OFFCURVE",
"413.333 855.333 OFFCURVE",
"474 888 CURVE SMOOTH",
"534.667 920.667 OFFCURVE",
"598.333 937 OFFCURVE",
"665 937 CURVE SMOOTH",
"710.333 937 OFFCURVE",
"752.667 930.333 OFFCURVE",
"792 917 CURVE",
"741 508 LINE",
"717.667 442 OFFCURVE",
"691.333 381.833 OFFCURVE",
"662 327.5 CURVE SMOOTH",
"632.667 273.167 OFFCURVE",
"601.167 226.667 OFFCURVE",
"567.5 188 CURVE SMOOTH",
"533.833 149.333 OFFCURVE",
"498.667 119.333 OFFCURVE",
"462 98 CURVE SMOOTH",
"425.333 76.6667 OFFCURVE",
"388 66 OFFCURVE",
"350 66 CURVE SMOOTH"
);
},
{
closed = 1;
nodes = (
"501 1431 LINE",
"673 1178 LINE",
"676.333 1171.33 OFFCURVE",
"680.5 1166.83 OFFCURVE",
"685.5 1164.5 CURVE SMOOTH",
"690.5 1162.17 OFFCURVE",
"696.667 1161 OFFCURVE",
"704 1161 CURVE SMOOTH",
"754 1161 LINE",
"637 1399 LINE",
"631.667 1411 OFFCURVE",
"625.5 1419.33 OFFCURVE",
"618.5 1424 CURVE SMOOTH",
"611.5 1428.67 OFFCURVE",
"600.667 1431 OFFCURVE",
"586 1431 CURVE SMOOTH"
);
}
);
width = 997;
}
);
leftKerningGroup = a;
rightKerningGroup = a;
unicode = 00E0;
},
{
glyphname = aring;
layers = (
{
layerId = "97227C28-C7C3-40A5-B3DE-4B1AC4F48489";
name = "Light Italic";
paths = (
{
closed = 1;
nodes = (
"67 0 LINE"
);
},
{
closed = 1;
nodes = (
"773 0 LINE",
"890 961 LINE",
"856.667 978.333 OFFCURVE",
"822.5 990.5 OFFCURVE",
"787.5 997.5 CURVE SMOOTH",
"752.5 1004.5 OFFCURVE",
"715.333 1008 OFFCURVE",
"676 1008 CURVE SMOOTH",
"621.333 1008 OFFCURVE",
"568.333 999.333 OFFCURVE",
"517 982 CURVE SMOOTH",
"465.667 964.667 OFFCURVE",
"417.333 940.667 OFFCURVE",
"372 910 CURVE SMOOTH",
"326.667 879.333 OFFCURVE",
"285.333 843 OFFCURVE",
"248 801 CURVE SMOOTH",
"210.667 759 OFFCURVE",
"178.667 713 OFFCURVE",
"152 663 CURVE SMOOTH",
"125.333 613 OFFCURVE",
"104.5 560.167 OFFCURVE",
"89.5 504.5 CURVE SMOOTH",
"74.5 448.833 OFFCURVE",
"67 392 OFFCURVE",
"67 334 CURVE SMOOTH",
"67 280.667 OFFCURVE",
"72.3333 232.667 OFFCURVE",
"83 190 CURVE SMOOTH",
"93.6667 147.333 OFFCURVE",
"109.5 111 OFFCURVE",
"130.5 81 CURVE SMOOTH",
"151.5 51 OFFCURVE",
"177.833 27.8333 OFFCURVE",
"209.5 11.5 CURVE SMOOTH",
"241.167 -5 OFFCURVE",
"277.667 -13 OFFCURVE",
"319 -13 CURVE SMOOTH",
"359.667 -13 OFFCURVE",
"399 -4 OFFCURVE",
"437 13 CURVE SMOOTH",
"475 30.3333 OFFCURVE",
"511.333 54.6667 OFFCURVE",
"546 86 CURVE SMOOTH",
"580.667 117.333 OFFCURVE",
"613.167 155.167 OFFCURVE",
"643.5 199.5 CURVE SMOOTH",
"673.833 243.833 OFFCURVE",
"701.667 292.667 OFFCURVE",
"727 346 CURVE",
"693 36 LINE",
"693 26.6667 OFFCURVE",
"695.333 18.3333 OFFCURVE",
"700 11 CURVE SMOOTH",
"704.667 3.66667 OFFCURVE",
"713.667 0 OFFCURVE",
"727 0 CURVE SMOOTH"
);
},
{
closed = 1;
nodes = (
"350 66 LINE SMOOTH",
"286 66 OFFCURVE",
"238.833 90.8333 OFFCURVE",
"208.5 140.5 CURVE SMOOTH",
"178.167 190.167 OFFCURVE",
"163 259.667 OFFCURVE",
"163 349 CURVE SMOOTH",
"163 425 OFFCURVE",
"176.667 498.333 OFFCURVE",
"204 569 CURVE SMOOTH",
"231.333 639.667 OFFCURVE",
"268 702.333 OFFCURVE",
"314 757 CURVE SMOOTH",
"360 811.667 OFFCURVE",
"413.333 855.333 OFFCURVE",
"474 888 CURVE SMOOTH",
"534.667 920.667 OFFCURVE",
"598.333 937 OFFCURVE",
"665 937 CURVE SMOOTH",
"710.333 937 OFFCURVE",
"752.667 930.333 OFFCURVE",
"792 917 CURVE",
"741 508 LINE",
"717.667 442 OFFCURVE",
"691.333 381.833 OFFCURVE",
"662 327.5 CURVE SMOOTH",
"632.667 273.167 OFFCURVE",
"601.167 226.667 OFFCURVE",
"567.5 188 CURVE SMOOTH",
"533.833 149.333 OFFCURVE",
"498.667 119.333 OFFCURVE",
"462 98 CURVE SMOOTH",
"425.333 76.6667 OFFCURVE",
"388 66 OFFCURVE",
"350 66 CURVE SMOOTH"
);
},
{
closed = 1;
nodes = (
"536.333 1278 OFFCURVE",
"538.167 1256.17 OFFCURVE",
"544.5 1236.5 CURVE SMOOTH",
"550.833 1216.83 OFFCURVE",
"560.333 1199.67 OFFCURVE",
"573 1185 CURVE SMOOTH",
"585.667 1170.33 OFFCURVE",
"601 1159 OFFCURVE",
"619 1151 CURVE SMOOTH",
"637 1143 OFFCURVE",
"657 1139 OFFCURVE",
"679 1139 CURVE SMOOTH",
"700.333 1139 OFFCURVE",
"721.167 1143 OFFCURVE",
"741.5 1151 CURVE SMOOTH",
"761.833 1159 OFFCURVE",
"780 1170.33 OFFCURVE",
"796 1185 CURVE SMOOTH",
"812 1199.67 OFFCURVE",
"825.333 1216.83 OFFCURVE",
"836 1236.5 CURVE SMOOTH",
"846.667 1256.17 OFFCURVE",
"853.667 1278 OFFCURVE",
"857 1302 CURVE SMOOTH",
"859.667 1326 OFFCURVE",
"857.833 1348 OFFCURVE",
"851.5 1368 CURVE SMOOTH",
"845.167 1388 OFFCURVE",
"835.5 1405.17 OFFCURVE",
"822.5 1419.5 CURVE SMOOTH",
"809.5 1433.83 OFFCURVE",
"793.833 1445.17 OFFCURVE",
"775.5 1453.5 CURVE SMOOTH",
"757.167 1461.83 OFFCURVE",
"737.333 1466 OFFCURVE",
"716 1466 CURVE SMOOTH",
"694 1466 OFFCURVE",
"673 1461.83 OFFCURVE",
"653 1453.5 CURVE SMOOTH",
"633 1445.17 OFFCURVE",
"615 1433.83 OFFCURVE",
"599 1419.5 CURVE SMOOTH",
"583 1405.17 OFFCURVE",
"569.667 1388 OFFCURVE",
"559 1368 CURVE SMOOTH",
"548.333 1348 OFFCURVE",
"541.667 1326 OFFCURVE",
"539 1302 CURVE SMOOTH"
);
},
{
closed = 1;
nodes = (
"596.667 1335.33 OFFCURVE",
"609.667 1362.67 OFFCURVE",
"631 1384 CURVE SMOOTH",
"652.333 1405.33 OFFCURVE",
"678.667 1416 OFFCURVE",
"710 1416 CURVE SMOOTH",
"740.667 1416 OFFCURVE",
"764.833 1405.33 OFFCURVE",
"782.5 1384 CURVE SMOOTH",
"800.167 1362.67 OFFCURVE",
"807 1335.33 OFFCURVE",
"803 1302 CURVE SMOOTH",
"799 1268.67 OFFCURVE",
"786 1241.33 OFFCURVE",
"764 1220 CURVE SMOOTH",
"742 1198.67 OFFCURVE",
"715.667 1188 OFFCURVE",
"685 1188 CURVE SMOOTH",
"653 1188 OFFCURVE",
"628.667 1198.67 OFFCURVE",
"612 1220 CURVE SMOOTH",
"595.333 1241.33 OFFCURVE",
"588.667 1268.67 OFFCURVE",
"592 1302 CURVE"
);
}
);
width = 997;
}
);
leftKerningGroup = a;
rightKerningGroup = a;
unicode = 00E5;
},
{
glyphname = atilde;
layers = (
{
layerId = "97227C28-C7C3-40A5-B3DE-4B1AC4F48489";
name = "Light Italic";
paths = (
{
closed = 1;
nodes = (
"67 0 LINE"
);
},
{
closed = 1;
nodes = (
"773 0 LINE",
"890 961 LINE",
"856.667 978.333 OFFCURVE",
"822.5 990.5 OFFCURVE",
"787.5 997.5 CURVE SMOOTH",
"752.5 1004.5 OFFCURVE",
"715.333 1008 OFFCURVE",
"676 1008 CURVE SMOOTH",
"621.333 1008 OFFCURVE",
"568.333 999.333 OFFCURVE",
"517 982 CURVE SMOOTH",
"465.667 964.667 OFFCURVE",
"417.333 940.667 OFFCURVE",
"372 910 CURVE SMOOTH",
"326.667 879.333 OFFCURVE",
"285.333 843 OFFCURVE",
"248 801 CURVE SMOOTH",
"210.667 759 OFFCURVE",
"178.667 713 OFFCURVE",
"152 663 CURVE SMOOTH",
"125.333 613 OFFCURVE",
"104.5 560.167 OFFCURVE",
"89.5 504.5 CURVE SMOOTH",
"74.5 448.833 OFFCURVE",
"67 392 OFFCURVE",
"67 334 CURVE SMOOTH",
"67 280.667 OFFCURVE",
"72.3333 232.667 OFFCURVE",
"83 190 CURVE SMOOTH",
"93.6667 147.333 OFFCURVE",
"109.5 111 OFFCURVE",
"130.5 81 CURVE SMOOTH",
"151.5 51 OFFCURVE",
"177.833 27.8333 OFFCURVE",
"209.5 11.5 CURVE SMOOTH",
"241.167 -5 OFFCURVE",
"277.667 -13 OFFCURVE",
"319 -13 CURVE SMOOTH",
"359.667 -13 OFFCURVE",
"399 -4 OFFCURVE",
"437 13 CURVE SMOOTH",
"475 30.3333 OFFCURVE",
"511.333 54.6667 OFFCURVE",
"546 86 CURVE SMOOTH",
"580.667 117.333 OFFCURVE",
"613.167 155.167 OFFCURVE",
"643.5 199.5 CURVE SMOOTH",
"673.833 243.833 OFFCURVE",
"701.667 292.667 OFFCURVE",
"727 346 CURVE",
"693 36 LINE",
"693 26.6667 OFFCURVE",
"695.333 18.3333 OFFCURVE",
"700 11 CURVE SMOOTH",
"704.667 3.66667 OFFCURVE",
"713.667 0 OFFCURVE",
"727 0 CURVE SMOOTH"
);
},
{
closed = 1;
nodes = (
"350 66 LINE SMOOTH",
"286 66 OFFCURVE",
"238.833 90.8333 OFFCURVE",
"208.5 140.5 CURVE SMOOTH",
"178.167 190.167 OFFCURVE",
"163 259.667 OFFCURVE",
"163 349 CURVE SMOOTH",
"163 425 OFFCURVE",
"176.667 498.333 OFFCURVE",
"204 569 CURVE SMOOTH",
"231.333 639.667 OFFCURVE",
"268 702.333 OFFCURVE",
"314 757 CURVE SMOOTH",
"360 811.667 OFFCURVE",
"413.333 855.333 OFFCURVE",
"474 888 CURVE SMOOTH",
"534.667 920.667 OFFCURVE",
"598.333 937 OFFCURVE",
"665 937 CURVE SMOOTH",
"710.333 937 OFFCURVE",
"752.667 930.333 OFFCURVE",
"792 917 CURVE",
"741 508 LINE",
"717.667 442 OFFCURVE",
"691.333 381.833 OFFCURVE",
"662 327.5 CURVE SMOOTH",
"632.667 273.167 OFFCURVE",
"601.167 226.667 OFFCURVE",
"567.5 188 CURVE SMOOTH",
"533.833 149.333 OFFCURVE",
"498.667 119.333 OFFCURVE",
"462 98 CURVE SMOOTH",
"425.333 76.6667 OFFCURVE",
"388 66 OFFCURVE",
"350 66 CURVE SMOOTH"
);
},
{
closed = 1;
nodes = (
"756 1280 OFFCURVE",
"740.833 1285.5 OFFCURVE",
"726.5 1296.5 CURVE SMOOTH",
"712.167 1307.5 OFFCURVE",
"697.667 1319.5 OFFCURVE",
"683 1332.5 CURVE SMOOTH",
"668.333 1345.5 OFFCURVE",
"652.5 1357.5 OFFCURVE",
"635.5 1368.5 CURVE SMOOTH",
"618.5 1379.5 OFFCURVE",
"599.667 1385 OFFCURVE",
"579 1385 CURVE SMOOTH",
"558.333 1385 OFFCURVE",
"539.167 1380.67 OFFCURVE",
"521.5 1372 CURVE SMOOTH",
"503.833 1363.33 OFFCURVE",
"488.5 1351.33 OFFCURVE",
"475.5 1336 CURVE SMOOTH",
"462.5 1320.67 OFFCURVE",
"451.667 1302.5 OFFCURVE",
"443 1281.5 CURVE SMOOTH",
"434.333 1260.5 OFFCURVE",
"428.667 1238 OFFCURVE",
"426 1214 CURVE",
"482 1214 LINE",
"486 1244 OFFCURVE",
"496 1268.5 OFFCURVE",
"512 1287.5 CURVE SMOOTH",
"528 1306.5 OFFCURVE",
"548.667 1316 OFFCURVE",
"574 1316 CURVE SMOOTH",
"590 1316 OFFCURVE",
"605.333 1310.5 OFFCURVE",
"620 1299.5 CURVE SMOOTH",
"634.667 1288.5 OFFCURVE",
"649.5 1276.5 OFFCURVE",
"664.5 1263.5 CURVE SMOOTH",
"679.5 1250.5 OFFCURVE",
"695.333 1238.5 OFFCURVE",
"712 1227.5 CURVE SMOOTH",
"728.667 1216.5 OFFCURVE",
"747.333 1211 OFFCURVE",
"768 1211 CURVE SMOOTH",
"789.333 1211 OFFCURVE",
"808.667 1215.33 OFFCURVE",
"826 1224 CURVE SMOOTH",
"843.333 1232.67 OFFCURVE",
"858.5 1244.67 OFFCURVE",
"871.5 1260 CURVE SMOOTH",
"884.5 1275.33 OFFCURVE",
"895.167 1293.5 OFFCURVE",
"903.5 1314.5 CURVE SMOOTH",
"911.833 1335.5 OFFCURVE",
"917.333 1358 OFFCURVE",
"920 1382 CURVE",
"865 1382 LINE",
"861 1350.67 OFFCURVE",
"851.167 1325.83 OFFCURVE",
"835.5 1307.5 CURVE SMOOTH",
"819.833 1289.17 OFFCURVE",
"798.667 1280 OFFCURVE",
"772 1280 CURVE SMOOTH"
);
}
);
width = 997;
}
);
leftKerningGroup = a;
rightKerningGroup = a;
unicode = 00E3;
},
{
glyphname = ae;
layers = (
{
layerId = "97227C28-C7C3-40A5-B3DE-4B1AC4F48489";
name = "Light Italic";
paths = (
{
closed = 1;
nodes = (
"1020 1011 OFFCURVE",
"949.833 991 OFFCURVE",
"889.5 951 CURVE SMOOTH",
"829.167 911 OFFCURVE",
"780 855.667 OFFCURVE",
"742 785 CURVE",
"734.667 856.333 OFFCURVE",
"711.667 912 OFFCURVE",
"673 952 CURVE SMOOTH",
"634.333 992 OFFCURVE",
"577 1012 OFFCURVE",
"501 1012 CURVE SMOOTH",
"435 1012 OFFCURVE",
"374.833 998.667 OFFCURVE",
"320.5 972 CURVE SMOOTH",
"266.167 945.333 OFFCURVE",
"212 906 OFFCURVE",
"158 854 CURVE",
"170 826 LINE",
"177.333 814 OFFCURVE",
"186.667 808 OFFCURVE",
"198 808 CURVE SMOOTH",
"207.333 808 OFFCURVE",
"219.667 814.667 OFFCURVE",
"235 828 CURVE SMOOTH",
"250.333 841.333 OFFCURVE",
"269.667 855.833 OFFCURVE",
"293 871.5 CURVE SMOOTH",
"316.333 887.167 OFFCURVE",
"344.167 901.667 OFFCURVE",
"376.5 915 CURVE SMOOTH",
"408.833 928.333 OFFCURVE",
"447 935 OFFCURVE",
"491 935 CURVE SMOOTH",
"561.667 935 OFFCURVE",
"611.833 910.333 OFFCURVE",
"641.5 861 CURVE SMOOTH",
"671.167 811.667 OFFCURVE",
"680.333 740.667 OFFCURVE",
"669 648 CURVE SMOOTH",
"658 563 LINE",
"547.333 560.333 OFFCURVE",
"452.667 550 OFFCURVE",
"374 532 CURVE SMOOTH",
"295.333 514 OFFCURVE",
"231 489.833 OFFCURVE",
"181 459.5 CURVE SMOOTH",
"131 429.167 OFFCURVE",
"94.3334 393.167 OFFCURVE",
"71 351.5 CURVE SMOOTH",
"47.6667 309.833 OFFCURVE",
"36 264 OFFCURVE",
"36 214 CURVE SMOOTH",
"36 174 OFFCURVE",
"42.1667 139.5 OFFCURVE",
"54.5 110.5 CURVE SMOOTH",
"66.8334 81.5 OFFCURVE",
"84.1667 57.6667 OFFCURVE",
"106.5 39 CURVE SMOOTH",
"128.833 20.3333 OFFCURVE",
"155.5 6.5 OFFCURVE",
"186.5 -3 CURVE SMOOTH",
"217.5 -12 OFFCURVE",
"251.667 -16 OFFCURVE",
"289 -16 CURVE SMOOTH",
"321 -16 OFFCURVE",
"355.5 -11 OFFCURVE",
"392.5 -2 CURVE SMOOTH",
"429.5 8.16667 OFFCURVE",
"465.667 23.8333 OFFCURVE",
"501 45.5 CURVE SMOOTH",
"536.333 67.1667 OFFCURVE",
"569.167 95.6667 OFFCURVE",
"599.5 131 CURVE SMOOTH",
"629.833 166.333 OFFCURVE",
"654.333 209.667 OFFCURVE",
"673 261 CURVE",
"692.333 172.333 OFFCURVE",
"728.167 104.5 OFFCURVE",
"780.5 57.5 CURVE SMOOTH",
"832.833 10.5 OFFCURVE",
"897.667 -13 OFFCURVE",
"975 -13 CURVE SMOOTH",
"1013.67 -13 OFFCURVE",
"1050.17 -9 OFFCURVE",
"1084.5 -2 CURVE SMOOTH",
"1118.83 6.16667 OFFCURVE",
"1152 18.1667 OFFCURVE",
"1184 34.5 CURVE SMOOTH",
"1216 50.8333 OFFCURVE",
"1247.33 71.5 OFFCURVE",
"1278 96.5 CURVE SMOOTH",
"1308.67 121.5 OFFCURVE",
"1340 151 OFFCURVE",
"1372 185 CURVE",
"1350 211 LINE SMOOTH",
"1344 217.667 OFFCURVE",
"1337 221 OFFCURVE",
"1329 221 CURVE SMOOTH",
"1321.67 221 OFFCURVE",
"1313.17 217.167 OFFCURVE",
"1303.5 209.5 CURVE SMOOTH",
"1293.83 201.833 OFFCURVE",
"1282.33 192 OFFCURVE",
"1269 180 CURVE SMOOTH",
"1255.67 168 OFFCURVE",
"1240.5 155.333 OFFCURVE",
"1223.5 142 CURVE SMOOTH",
"1206.5 128.667 OFFCURVE",
"1186.67 116 OFFCURVE",
"1164 104 CURVE SMOOTH",
"1141.33 92 OFFCURVE",
"1115.83 82.1667 OFFCURVE",
"1087.5 74.5 CURVE SMOOTH",
"1059.17 66.8333 OFFCURVE",
"1027.33 63 OFFCURVE",
"992 63 CURVE SMOOTH",
"911.333 63 OFFCURVE",
"847.833 93.8333 OFFCURVE",
"801.5 155.5 CURVE SMOOTH",
"755.167 217.167 OFFCURVE",
"732 305.333 OFFCURVE",
"732 420 CURVE SMOOTH",
"732 447.333 OFFCURVE",
"733 474.667 OFFCURVE",
"735 502 CURVE",
"851.667 502.667 OFFCURVE",
"949.667 511 OFFCURVE",
"1029 527 CURVE SMOOTH",
"1108.33 543 OFFCURVE",
"1172 564 OFFCURVE",
"1220 590 CURVE SMOOTH",
"1268 616 OFFCURVE",
"1302.33 646.333 OFFCURVE",
"1323 681 CURVE SMOOTH",
"1343.67 715.667 OFFCURVE",
"1354 752.333 OFFCURVE",
"1354 791 CURVE SMOOTH",
"1354 823 OFFCURVE",
"1347.67 852.5 OFFCURVE",
"1335 879.5 CURVE SMOOTH",
"1322.33 906.5 OFFCURVE",
"1304.67 929.833 OFFCURVE",
"1282 949.5 CURVE SMOOTH",
"1259.33 969.167 OFFCURVE",
"1232.5 984.333 OFFCURVE",
"1201.5 995 CURVE SMOOTH",
"1170.5 1005.67 OFFCURVE",
"1136.67 1011 OFFCURVE",
"1100 1011 CURVE SMOOTH"
);
},
{
closed = 1;
nodes = (
"636 385 LINE SMOOTH",
"629.334 331.667 OFFCURVE",
"616 284.333 OFFCURVE",
"596 243 CURVE SMOOTH",
"576 201.667 OFFCURVE",
"551.167 166.833 OFFCURVE",
"521.5 138.5 CURVE SMOOTH",
"491.834 110.167 OFFCURVE",
"458.5 88.5001 OFFCURVE",
"421.5 73.5001 CURVE SMOOTH",
"384.5 58.5001 OFFCURVE",
"345.667 51 OFFCURVE",
"305 51 CURVE SMOOTH",
"279 51 OFFCURVE",
"255 54.5001 OFFCURVE",
"233 61.5001 CURVE SMOOTH",
"211 68.5001 OFFCURVE",
"192 79.1667 OFFCURVE",
"176 93.5001 CURVE SMOOTH",
"160 107.833 OFFCURVE",
"147.667 126 OFFCURVE",
"139 148 CURVE SMOOTH",
"130.334 170 OFFCURVE",
"126 196.333 OFFCURVE",
"126 227 CURVE SMOOTH",
"126 269 OFFCURVE",
"136.167 306.333 OFFCURVE",
"156.5 339 CURVE SMOOTH",
"176.834 371.667 OFFCURVE",
"208.167 399.5 OFFCURVE",
"250.5 422.5 CURVE SMOOTH",
"292.834 445.5 OFFCURVE",
"347 463.5 OFFCURVE",
"413 476.5 CURVE SMOOTH",
"479 489.5 OFFCURVE",
"558 497.667 OFFCURVE",
"650 501 CURVE"
);
},
{
closed = 1;
nodes = (
"1144.67 940 OFFCURVE",
"1188.33 926.5 OFFCURVE",
"1221 899.5 CURVE SMOOTH",
"1253.67 872.5 OFFCURVE",
"1270 835 OFFCURVE",
"1270 787 CURVE SMOOTH",
"1270 757 OFFCURVE",
"1261.33 729 OFFCURVE",
"1244 703 CURVE SMOOTH",
"1226.67 677 OFFCURVE",
"1197.5 654 OFFCURVE",
"1156.5 634 CURVE SMOOTH",
"1115.5 614 OFFCURVE",
"1061.33 597.5 OFFCURVE",
"994 584.5 CURVE SMOOTH",
"926.667 571.5 OFFCURVE",
"842.667 563.333 OFFCURVE",
"742 560 CURVE",
"750.667 617.333 OFFCURVE",
"764.833 669.5 OFFCURVE",
"784.5 716.5 CURVE SMOOTH",
"804.167 763.5 OFFCURVE",
"828.833 803.5 OFFCURVE",
"858.5 836.5 CURVE SMOOTH",
"888.167 869.5 OFFCURVE",
"922.333 895 OFFCURVE",
"961 913 CURVE SMOOTH",
"999.667 931 OFFCURVE",
"1042.67 940 OFFCURVE",
"1090 940 CURVE SMOOTH"
);
}
);
width = 1474;
}
);
leftKerningGroup = a;
rightKerningGroup = e;
unicode = 00E6;
},
{
glyphname = b;
layers = (
{
layerId = "97227C28-C7C3-40A5-B3DE-4B1AC4F48489";
name = "Light Italic";
paths = (
{
closed = 1;
nodes = (
"81 0 LINE",
"128 0 LINE SMOOTH",
"140 0 OFFCURVE",
"148 2.66667 OFFCURVE",
"152 8 CURVE SMOOTH",
"156 13.3333 OFFCURVE",
"159.667 21.3333 OFFCURVE",
"163 32 CURVE",
"182 140 LINE",
"210 89.3333 OFFCURVE",
"247.333 51.1667 OFFCURVE",
"294 25.5 CURVE SMOOTH",
"340.667 0 OFFCURVE",
"392.333 -13 OFFCURVE",
"449 -13 CURVE SMOOTH",
"497 -13 OFFCURVE",
"542.5 -4 OFFCURVE",
"585.5 15.5 CURVE SMOOTH",
"628.5 34.5 OFFCURVE",
"668 60.3333 OFFCURVE",
"704 93 CURVE SMOOTH",
"740 125.667 OFFCURVE",
"772.167 164 OFFCURVE",
"800.5 208 CURVE SMOOTH",
"828.833 252 OFFCURVE",
"852.833 298.833 OFFCURVE",
"872.5 348.5 CURVE SMOOTH",
"892.167 398.167 OFFCURVE",
"907.333 449.5 OFFCURVE",
"918 502.5 CURVE SMOOTH",
"928.667 555.5 OFFCURVE",
"934 607.667 OFFCURVE",
"934 659 CURVE SMOOTH",
"934 712.333 OFFCURVE",
"928.333 760.667 OFFCURVE",
"917 804 CURVE SMOOTH",
"905.667 847.333 OFFCURVE",
"889 884.167 OFFCURVE",
"867 914.5 CURVE SMOOTH",
"845 944.833 OFFCURVE",
"817.667 968.333 OFFCURVE",
"785 985 CURVE SMOOTH",
"752.333 1001.67 OFFCURVE",
"714.333 1010 OFFCURVE",
"671 1010 CURVE SMOOTH",
"631 1010 OFFCURVE",
"591.5 1001.5 OFFCURVE",
"552.5 984.5 CURVE SMOOTH",
"513.5 967.5 OFFCURVE",
"476.333 943.667 OFFCURVE",
"441 913 CURVE SMOOTH",
"405.667 882.333 OFFCURVE",
"372 845.5 OFFCURVE",
"340 802.5 CURVE SMOOTH",
"308 759.5 OFFCURVE",
"279 711.667 OFFCURVE",
"253 659 CURVE",
"350 1455 LINE",
"257 1455 LINE"
);
},
{
closed = 1;
nodes = (
"705.333 933 OFFCURVE",
"755 908.167 OFFCURVE",
"789 858.5 CURVE SMOOTH",
"823 808.833 OFFCURVE",
"840 739.333 OFFCURVE",
"840 650 CURVE SMOOTH",
"840 606.667 OFFCURVE",
"835.833 562.167 OFFCURVE",
"827.5 516.5 CURVE SMOOTH",
"819.167 470.833 OFFCURVE",
"807.167 426.333 OFFCURVE",
"791.5 383 CURVE SMOOTH",
"775.833 339.667 OFFCURVE",
"756.5 298.5 OFFCURVE",
"733.5 259.5 CURVE SMOOTH",
"710.5 220.5 OFFCURVE",
"684.167 186.333 OFFCURVE",
"654.5 157 CURVE SMOOTH",
"624.833 127.667 OFFCURVE",
"591.833 104.5 OFFCURVE",
"555.5 87.5 CURVE SMOOTH",
"519.167 70.5 OFFCURVE",
"480 62 OFFCURVE",
"438 62 CURVE SMOOTH",
"414.667 62 OFFCURVE",
"391.833 64.5 OFFCURVE",
"369.5 69.5 CURVE SMOOTH",
"347.167 74.5 OFFCURVE",
"325.5 82.6667 OFFCURVE",
"304.5 94 CURVE SMOOTH",
"283.5 105.333 OFFCURVE",
"263.833 120.167 OFFCURVE",
"245.5 138.5 CURVE SMOOTH",
"227.167 156.833 OFFCURVE",
"211 179 OFFCURVE",
"197 205 CURVE",
"232 489 LINE",
"256 555.667 OFFCURVE",
"283.5 616.333 OFFCURVE",
"314.5 671 CURVE SMOOTH",
"345.5 725.667 OFFCURVE",
"378.833 772.333 OFFCURVE",
"414.5 811 CURVE SMOOTH",
"450.167 849.667 OFFCURVE",
"487.167 879.667 OFFCURVE",
"525.5 901 CURVE SMOOTH",
"563.833 922.333 OFFCURVE",
"602 933 OFFCURVE",
"640 933 CURVE SMOOTH"
);
}
);
width = 1031;
}
);
leftKerningGroup = b;
rightKerningGroup = b;
unicode = 0062;
},
{
glyphname = c;
layers = (
{
layerId = "97227C28-C7C3-40A5-B3DE-4B1AC4F48489";
name = "Light Italic";
paths = (
{
closed = 1;
nodes = (
"801 182 LINE",
"780 208 LINE",
"773.333 214.667 OFFCURVE",
"766.333 218 OFFCURVE",
"759 218 CURVE SMOOTH",
"751.667 218 OFFCURVE",
"743.5 214.167 OFFCURVE",
"734.5 206.5 CURVE SMOOTH",
"725.5 198.833 OFFCURVE",
"714.667 189.333 OFFCURVE",
"702 178 CURVE SMOOTH",
"689.333 166.667 OFFCURVE",
"674.833 154.167 OFFCURVE",
"658.5 140.5 CURVE SMOOTH",
"642.167 126.833 OFFCURVE",
"623.167 114.333 OFFCURVE",
"601.5 103 CURVE SMOOTH",
"579.833 91.6667 OFFCURVE",
"555 82.1667 OFFCURVE",
"527 74.5 CURVE SMOOTH",
"499 66.8333 OFFCURVE",
"467.333 63 OFFCURVE",
"432 63 CURVE SMOOTH",
"387.333 63 OFFCURVE",
"348.667 71 OFFCURVE",
"316 87 CURVE SMOOTH",
"283.333 103 OFFCURVE",
"256.167 125.333 OFFCURVE",
"234.5 154 CURVE SMOOTH",
"212.833 182.667 OFFCURVE",
"196.833 216.667 OFFCURVE",
"186.5 256 CURVE SMOOTH",
"176.167 295.333 OFFCURVE",
"171 338 OFFCURVE",
"171 384 CURVE SMOOTH",
"171 456 OFFCURVE",
"181.167 525.167 OFFCURVE",
"201.5 591.5 CURVE SMOOTH",
"221.833 657.833 OFFCURVE",
"249.833 716.333 OFFCURVE",
"285.5 767 CURVE SMOOTH",
"321.167 817.667 OFFCURVE",
"363.167 858 OFFCURVE",
"411.5 888 CURVE SMOOTH",
"459.833 918 OFFCURVE",
"512 933 OFFCURVE",
"568 933 CURVE SMOOTH",
"607.333 933 OFFCURVE",
"640 927.667 OFFCURVE",
"666 917 CURVE SMOOTH",
"692 906.333 OFFCURVE",
"713.167 894.833 OFFCURVE",
"729.5 882.5 CURVE SMOOTH",
"745.833 870.167 OFFCURVE",
"758.833 858.667 OFFCURVE",
"768.5 848 CURVE SMOOTH",
"778.167 837.333 OFFCURVE",
"786.333 832 OFFCURVE",
"793 832 CURVE SMOOTH",
"801 832 OFFCURVE",
"808 835.667 OFFCURVE",
"814 843 CURVE SMOOTH",
"842 876 LINE",
"826.667 896.667 OFFCURVE",
"810 915.333 OFFCURVE",
"792 932 CURVE SMOOTH",
"774 948.667 OFFCURVE",
"754 962.833 OFFCURVE",
"732 974.5 CURVE SMOOTH",
"710 986.167 OFFCURVE",
"685.833 995.167 OFFCURVE",
"659.5 1001.5 CURVE SMOOTH",
"633.167 1007.83 OFFCURVE",
"603.667 1011 OFFCURVE",
"571 1011 CURVE SMOOTH",
"522.333 1011 OFFCURVE",
"476.5 1002.83 OFFCURVE",
"433.5 986.5 CURVE SMOOTH",
"390.5 970.167 OFFCURVE",
"350.667 947.667 OFFCURVE",
"314 919 CURVE SMOOTH",
"277.333 890.333 OFFCURVE",
"244.333 856.333 OFFCURVE",
"215 817 CURVE SMOOTH",
"185.667 777.667 OFFCURVE",
"160.667 734.667 OFFCURVE",
"140 688 CURVE SMOOTH",
"119.333 641.333 OFFCURVE",
"103.5 592.167 OFFCURVE",
"92.5 540.5 CURVE SMOOTH",
"81.5 488.833 OFFCURVE",
"76 436.667 OFFCURVE",
"76 384 CURVE SMOOTH",
"76 326.667 OFFCURVE",
"83 273.667 OFFCURVE",
"97 225 CURVE SMOOTH",
"111 176.333 OFFCURVE",
"132 134.333 OFFCURVE",
"160 99 CURVE SMOOTH",
"188 63.6667 OFFCURVE",
"223.167 36.1667 OFFCURVE",
"265.5 16.5001 CURVE SMOOTH",
"307.833 -3 OFFCURVE",
"357.667 -13 OFFCURVE",
"415 -13 CURVE SMOOTH",
"450.333 -13 OFFCURVE",
"483.667 -10 OFFCURVE",
"515 -5 CURVE SMOOTH",
"546.333 0.333405 OFFCURVE",
"577.167 10.3334 OFFCURVE",
"607.5 25 CURVE SMOOTH",
"637.833 39.6667 OFFCURVE",
"668.833 59.6667 OFFCURVE",
"700.5 85 CURVE SMOOTH",
"732.167 110.333 OFFCURVE",
"765.667 142.667 OFFCURVE",
"801 182 CURVE"
);
}
);
width = 911;
}
);
leftKerningGroup = c;
rightKerningGroup = c;
unicode = 0063;
},
{
glyphname = ccedilla;
layers = (
{
layerId = "97227C28-C7C3-40A5-B3DE-4B1AC4F48489";
name = "Light Italic";
paths = (
{
closed = 1;
nodes = (
"267.667 -276 OFFCURVE",
"262 -280 OFFCURVE",
"258 -287 CURVE",
"244 -315 LINE",
"259.333 -328 OFFCURVE",
"278.333 -338 OFFCURVE",
"301 -346 CURVE SMOOTH",
"323.667 -353 OFFCURVE",
"347.333 -357 OFFCURVE",
"372 -357 CURVE SMOOTH",
"398.667 -357 OFFCURVE",
"423.667 -354 OFFCURVE",
"447 -348 CURVE SMOOTH",
"470.333 -341 OFFCURVE",
"490.333 -332 OFFCURVE",
"507 -320 CURVE SMOOTH",
"523.667 -307 OFFCURVE",
"536.833 -292 OFFCURVE",
"546.5 -275 CURVE SMOOTH",
"556.167 -257 OFFCURVE",
"561 -237 OFFCURVE",
"561 -214 CURVE SMOOTH",
"561 -180 OFFCURVE",
"548 -154 OFFCURVE",
"522 -136 CURVE SMOOTH",
"496 -117 OFFCURVE",
"458 -103 OFFCURVE",
"408 -94 CURVE",
"441 -12 LINE",
"473 -11 OFFCURVE",
"503.5 -8 OFFCURVE",
"532.5 -1 CURVE SMOOTH",
"561.5 5.66669 OFFCURVE",
"590.333 16.3333 OFFCURVE",
"619 31 CURVE SMOOTH",
"647.667 45.6667 OFFCURVE",
"676.833 65.1667 OFFCURVE",
"706.5 89.5 CURVE SMOOTH",
"736.167 113.833 OFFCURVE",
"767.667 144.667 OFFCURVE",
"801 182 CURVE",
"780 208 LINE",
"773.333 214.667 OFFCURVE",
"766.333 218 OFFCURVE",
"759 218 CURVE SMOOTH",
"751.667 218 OFFCURVE",
"743.5 214.167 OFFCURVE",
"734.5 206.5 CURVE SMOOTH",
"725.5 198.833 OFFCURVE",
"714.667 189.333 OFFCURVE",
"702 178 CURVE SMOOTH",
"689.333 166.667 OFFCURVE",
"674.833 154.167 OFFCURVE",
"658.5 140.5 CURVE SMOOTH",
"642.167 126.833 OFFCURVE",
"623.167 114.333 OFFCURVE",
"601.5 103 CURVE SMOOTH",
"579.833 91.6667 OFFCURVE",
"555 82.1667 OFFCURVE",
"527 74.5 CURVE SMOOTH",
"499 66.8333 OFFCURVE",
"467.333 63 OFFCURVE",
"432 63 CURVE SMOOTH",
"387.333 63 OFFCURVE",
"348.667 71 OFFCURVE",
"316 87 CURVE SMOOTH",
"283.333 103 OFFCURVE",
"256.167 125.333 OFFCURVE",
"234.5 154 CURVE SMOOTH",
"212.833 182.667 OFFCURVE",
"196.833 216.667 OFFCURVE",
"186.5 256 CURVE SMOOTH",
"176.167 295.333 OFFCURVE",
"171 338 OFFCURVE",
"171 384 CURVE SMOOTH",
"171 456 OFFCURVE",
"181.167 525.167 OFFCURVE",
"201.5 591.5 CURVE SMOOTH",
"221.833 657.833 OFFCURVE",
"249.833 716.333 OFFCURVE",
"285.5 767 CURVE SMOOTH",
"321.167 817.667 OFFCURVE",
"363.167 858 OFFCURVE",
"411.5 888 CURVE SMOOTH",
"459.833 918 OFFCURVE",
"512 933 OFFCURVE",
"568 933 CURVE SMOOTH",
"607.333 933 OFFCURVE",
"640 927.667 OFFCURVE",
"666 917 CURVE SMOOTH",
"692 906.333 OFFCURVE",
"713.167 894.833 OFFCURVE",
"729.5 882.5 CURVE SMOOTH",
"745.833 870.167 OFFCURVE",
"758.833 858.667 OFFCURVE",
"768.5 848 CURVE SMOOTH",
"778.167 837.333 OFFCURVE",
"786.333 832 OFFCURVE",
"793 832 CURVE SMOOTH",
"801 832 OFFCURVE",
"808 835.667 OFFCURVE",
"814 843 CURVE SMOOTH",
"842 876 LINE",
"826.667 896.667 OFFCURVE",
"810 915.333 OFFCURVE",
"792 932 CURVE SMOOTH",
"774 948.667 OFFCURVE",
"754 962.833 OFFCURVE",
"732 974.5 CURVE SMOOTH",
"710 986.167 OFFCURVE",
"685.833 995.167 OFFCURVE",
"659.5 1001.5 CURVE SMOOTH",
"633.167 1007.83 OFFCURVE",
"603.667 1011 OFFCURVE",
"571 1011 CURVE SMOOTH",
"522.333 1011 OFFCURVE",
"476.5 1002.83 OFFCURVE",
"433.5 986.5 CURVE SMOOTH",
"390.5 970.167 OFFCURVE",
"350.667 947.667 OFFCURVE",
"314 919 CURVE SMOOTH",
"277.333 890.333 OFFCURVE",
"244.333 856.333 OFFCURVE",
"215 817 CURVE SMOOTH",
"185.667 777.667 OFFCURVE",
"160.667 734.667 OFFCURVE",
"140 688 CURVE SMOOTH",
"119.333 641.333 OFFCURVE",
"103.5 592.167 OFFCURVE",
"92.5 540.5 CURVE SMOOTH",
"81.5 488.833 OFFCURVE",
"76 436.667 OFFCURVE",
"76 384 CURVE SMOOTH",
"76 328.667 OFFCURVE",
"82.3334 277.667 OFFCURVE",
"95 231 CURVE SMOOTH",
"107.667 184.333 OFFCURVE",
"126.667 143.5 OFFCURVE",
"152 108.5 CURVE SMOOTH",
"177.333 73.5001 OFFCURVE",
"209.333 45.5001 OFFCURVE",
"248 24.5001 CURVE SMOOTH",
"286.667 3.50008 OFFCURVE",
"332 -9 OFFCURVE",
"384 -12 CURVE",
"334 -131 LINE",
"356 -134 OFFCURVE",
"376.167 -138 OFFCURVE",
"394.5 -142 CURVE SMOOTH",
"412.833 -145 OFFCURVE",
"428.667 -150 OFFCURVE",
"442 -157 CURVE SMOOTH",
"455.333 -164 OFFCURVE",
"465.667 -172 OFFCURVE",
"473 -182 CURVE SMOOTH",
"480.333 -192 OFFCURVE",
"484 -204 OFFCURVE",
"484 -219 CURVE SMOOTH",
"484 -247 OFFCURVE",
"474.667 -269 OFFCURVE",
"456 -286 CURVE SMOOTH",
"437.333 -302 OFFCURVE",
"411 -310 OFFCURVE",
"377 -310 CURVE SMOOTH",
"359.667 -310 OFFCURVE",
"345.333 -308 OFFCURVE",
"334 -305 CURVE SMOOTH",
"322.667 -301 OFFCURVE",
"313.167 -297 OFFCURVE",
"305.5 -293 CURVE SMOOTH",
"297.833 -289 OFFCURVE",
"291.667 -285 OFFCURVE",
"287 -282 CURVE SMOOTH",
"282.333 -278 OFFCURVE",
"278.333 -276 OFFCURVE",
"275 -276 CURVE SMOOTH"
);
}
);
width = 911;
}
);
leftKerningGroup = c;
rightKerningGroup = c;
unicode = 00E7;
},
{
glyphname = d;
lastChange = "2014-08-21 04:38:08 -0500";
layers = (
{
layerId = "97227C28-C7C3-40A5-B3DE-4B1AC4F48489";
name = "Light Italic";
paths = (
{
closed = 1;
nodes = (
"759 0 LINE",
"805 0 LINE",
"983 1455 LINE",
"891 1455 LINE",
"818 868 LINE",
"788.667 915.333 OFFCURVE",
"751.333 950.833 OFFCURVE",
"706 974.5 CURVE SMOOTH",
"660.667 998.167 OFFCURVE",
"611 1010 OFFCURVE",
"557 1010 CURVE SMOOTH",
"508.333 1010 OFFCURVE",
"462.667 1000.5 OFFCURVE",
"420 981.5 CURVE SMOOTH",
"377.333 962.5 OFFCURVE",
"338 936.667 OFFCURVE",
"302 904 CURVE SMOOTH",
"266 871.333 OFFCURVE",
"233.833 833.167 OFFCURVE",
"205.5 789.5 CURVE SMOOTH",
"177.167 745.833 OFFCURVE",
"153.167 699.167 OFFCURVE",
"133.5 649.5 CURVE SMOOTH",
"113.833 599.833 OFFCURVE",
"98.6667 548.5 OFFCURVE",
"88 495.5 CURVE SMOOTH",
"77.3334 442.5 OFFCURVE",
"72 390.667 OFFCURVE",
"72 340 CURVE SMOOTH",
"72 286 OFFCURVE",
"77.6667 237.333 OFFCURVE",
"89 194 CURVE SMOOTH",
"100.333 150.667 OFFCURVE",
"117 113.667 OFFCURVE",
"139 82.9999 CURVE SMOOTH",
"161 52.3333 OFFCURVE",
"188.333 28.6666 OFFCURVE",
"221 11.9999 CURVE SMOOTH",
"253.667 -5 OFFCURVE",
"291.667 -13 OFFCURVE",
"335 -13 CURVE SMOOTH",
"375.667 -13 OFFCURVE",
"415.667 -4 OFFCURVE",
"455 12.9999 CURVE SMOOTH",
"494.333 30.3333 OFFCURVE",
"532 54.8333 OFFCURVE",
"568 86.4999 CURVE SMOOTH",
"604 118.167 OFFCURVE",
"638.167 156.167 OFFCURVE",
"670.5 200.5 CURVE SMOOTH",
"702.833 244.833 OFFCURVE",
"732 294 OFFCURVE",
"758 348 CURVE",
"725 35.9999 LINE",
"725 26.6666 OFFCURVE",
"727.333 18.3333 OFFCURVE",
"732 10.9999 CURVE SMOOTH",
"736.667 3.66661 OFFCURVE",
"750 1 OFFCURVE",
"768 1 CURVE"
);
},
{
closed = 1;
nodes = (
"300.667 63.9999 OFFCURVE",
"251 88.9999 OFFCURVE",
"217 139 CURVE SMOOTH",
"183 189 OFFCURVE",
"166 258.667 OFFCURVE",
"166 348 CURVE SMOOTH",
"166 390.667 OFFCURVE",
"170.167 435 OFFCURVE",
"178.5 481 CURVE SMOOTH",
"186.833 527 OFFCURVE",
"198.833 571.667 OFFCURVE",
"214.5 615 CURVE SMOOTH",
"230.167 658.333 OFFCURVE",
"249.5 699.333 OFFCURVE",
"272.5 738 CURVE SMOOTH",
"295.5 776.667 OFFCURVE",
"321.833 810.667 OFFCURVE",
"351.5 840 CURVE SMOOTH",
"381.167 869.333 OFFCURVE",
"414.167 892.5 OFFCURVE",
"450.5 909.5 CURVE SMOOTH",
"486.833 926.5 OFFCURVE",
"526 935 OFFCURVE",
"568 935 CURVE SMOOTH",
"614 935 OFFCURVE",
"658.333 924.333 OFFCURVE",
"701 903 CURVE SMOOTH",
"743.667 881.667 OFFCURVE",
"779.333 845 OFFCURVE",
"808 793 CURVE",
"773 505 LINE",
"749 439 OFFCURVE",
"721.5 378.833 OFFCURVE",
"690.5 324.5 CURVE SMOOTH",
"659.5 270.167 OFFCURVE",
"626.167 223.667 OFFCURVE",
"590.5 185 CURVE SMOOTH",
"554.833 146.333 OFFCURVE",
"518 116.5 OFFCURVE",
"480 95.5 CURVE SMOOTH",
"442 74.5 OFFCURVE",
"404 64 OFFCURVE",
"366 64 CURVE SMOOTH"
);
}
);
width = 1032;
}
);
leftKerningGroup = d;
rightKerningGroup = d;
unicode = 0064;
},
{
glyphname = eth;
layers = (
{
layerId = "97227C28-C7C3-40A5-B3DE-4B1AC4F48489";
name = "Light Italic";
paths = (
{
closed = 1;
nodes = (
"511 1041 LINE",
"682 1187 LINE",
"741.333 1134.33 OFFCURVE",
"786.333 1067 OFFCURVE",
"817 985 CURVE SMOOTH",
"847.667 903 OFFCURVE",
"861.333 804 OFFCURVE",
"858 688 CURVE",
"843.333 728.667 OFFCURVE",
"824.5 763.667 OFFCURVE",
"801.5 793 CURVE SMOOTH",
"778.5 822.333 OFFCURVE",
"753 846.5 OFFCURVE",
"725 865.5 CURVE SMOOTH",
"697 884.5 OFFCURVE",
"667 898.5 OFFCURVE",
"635 907.5 CURVE SMOOTH",
"603 916.5 OFFCURVE",
"570.667 921 OFFCURVE",
"538 921 CURVE SMOOTH",
"468 921 OFFCURVE",
"404.5 906.833 OFFCURVE",
"347.5 878.5 CURVE SMOOTH",
"290.5 850.167 OFFCURVE",
"241.833 811.667 OFFCURVE",
"201.5 763 CURVE SMOOTH",
"161.167 714.333 OFFCURVE",
"130.167 657.833 OFFCURVE",
"108.5 593.5 CURVE SMOOTH",
"86.8334 529.167 OFFCURVE",
"76 460.667 OFFCURVE",
"76 388 CURVE SMOOTH",
"76 327.333 OFFCURVE",
"84.8334 272.333 OFFCURVE",
"102.5 223 CURVE SMOOTH",
"120.167 173.667 OFFCURVE",
"144.667 131.667 OFFCURVE",
"176 97 CURVE SMOOTH",
"207.333 62.3333 OFFCURVE",
"244.5 35.5 OFFCURVE",
"287.5 16.5 CURVE SMOOTH",
"330.5 -3 OFFCURVE",
"377.333 -12 OFFCURVE",
"428 -12 CURVE SMOOTH",
"512 -12 OFFCURVE",
"585.5 6.33331 OFFCURVE",
"648.5 43 CURVE SMOOTH",
"711.5 79.6667 OFFCURVE",
"764.333 130.667 OFFCURVE",
"807 196 CURVE SMOOTH",
"849.667 261.333 OFFCURVE",
"881.667 338.833 OFFCURVE",
"903 428.5 CURVE SMOOTH",
"924.333 518.167 OFFCURVE",
"935 616 OFFCURVE",
"935 722 CURVE SMOOTH",
"935 781.333 OFFCURVE",
"930.333 836 OFFCURVE",
"921 886 CURVE SMOOTH",
"911.667 936 OFFCURVE",
"898.333 982 OFFCURVE",
"881 1024 CURVE SMOOTH",
"863.667 1066 OFFCURVE",
"843 1104 OFFCURVE",
"819 1138 CURVE SMOOTH",
"795 1172 OFFCURVE",
"768.667 1202.33 OFFCURVE",
"740 1229 CURVE",
"868 1340 LINE",
"874.667 1344.67 OFFCURVE",
"878.167 1350 OFFCURVE",
"878.5 1356 CURVE SMOOTH",
"878.833 1362 OFFCURVE",
"877.667 1367.33 OFFCURVE",
"875 1372 CURVE SMOOTH",
"859 1401 LINE",
"698 1265 LINE",
"653.333 1299 OFFCURVE",
"605.167 1326.17 OFFCURVE",
"553.5 1346.5 CURVE SMOOTH",
"501.833 1366.83 OFFCURVE",
"449 1381.67 OFFCURVE",
"395 1391 CURVE",
"382 1361 LINE SMOOTH",
"373.333 1340.33 OFFCURVE",
"379.667 1327 OFFCURVE",
"401 1321 CURVE",
"446.333 1311 OFFCURVE",
"488.667 1297.67 OFFCURVE",
"528 1281 CURVE SMOOTH",
"567.333 1264.33 OFFCURVE",
"604 1244.33 OFFCURVE",
"638 1221 CURVE",
"498 1100 LINE SMOOTH",
"493.333 1096 OFFCURVE",
"490.667 1091.17 OFFCURVE",
"490 1085.5 CURVE SMOOTH",
"489.333 1079.83 OFFCURVE",
"490.667 1074.67 OFFCURVE",
"494 1070 CURVE"
);
},
{
closed = 1;
nodes = (
"400 61 OFFCURVE",
"364.5 68.6669 OFFCURVE",
"331.5 84 CURVE SMOOTH",
"298.5 99.3336 OFFCURVE",
"270 121.334 OFFCURVE",
"246 150 CURVE SMOOTH",
"222 178.667 OFFCURVE",
"203 213.5 OFFCURVE",
"189 254.5 CURVE SMOOTH",
"175 295.5 OFFCURVE",
"168 341.667 OFFCURVE",
"168 393 CURVE SMOOTH",
"168 455.667 OFFCURVE",
"176.333 514.5 OFFCURVE",
"193 569.5 CURVE SMOOTH",
"209.667 624.5 OFFCURVE",
"234 672.667 OFFCURVE",
"266 714 CURVE SMOOTH",
"298 755.334 OFFCURVE",
"337.5 788 OFFCURVE",
"384.5 812 CURVE SMOOTH",
"431.5 836 OFFCURVE",
"485 848 OFFCURVE",
"545 848 CURVE SMOOTH",
"590.333 848 OFFCURVE",
"629.833 839.834 OFFCURVE",
"663.5 823.5 CURVE SMOOTH",
"697.167 807.167 OFFCURVE",
"725.833 785.834 OFFCURVE",
"749.5 759.5 CURVE SMOOTH",
"773.167 733.167 OFFCURVE",
"792.167 703.334 OFFCURVE",
"806.5 670 CURVE SMOOTH",
"820.833 636.667 OFFCURVE",
"831 603 OFFCURVE",
"837 569 CURVE",
"815 399 OFFCURVE",
"770 271.834 OFFCURVE",
"702 187.5 CURVE SMOOTH",
"634 103.167 OFFCURVE",
"546 61 OFFCURVE",
"438 61 CURVE SMOOTH"
);
}
);
width = 1042;
}
);
leftKerningGroup = eth;
rightKerningGroup = eth;
unicode = 00F0;
},
{
glyphname = e;
layers = (
{
layerId = "97227C28-C7C3-40A5-B3DE-4B1AC4F48489";
name = "Light Italic";
paths = (
{
closed = 1;
nodes = (
"843 825.667 OFFCURVE",
"838.333 847.833 OFFCURVE",
"829 871.5 CURVE SMOOTH",
"819.667 895.167 OFFCURVE",
"804.5 917.167 OFFCURVE",
"783.5 937.5 CURVE SMOOTH",
"762.5 957.833 OFFCURVE",
"735.167 974.833 OFFCURVE",
"701.5 988.5 CURVE SMOOTH",
"667.833 1002.17 OFFCURVE",
"626.667 1009 OFFCURVE",
"578 1009 CURVE SMOOTH",
"525.333 1009 OFFCURVE",
"476.333 1000.33 OFFCURVE",
"431 983 CURVE SMOOTH",
"385.667 965.667 OFFCURVE",
"344.333 942 OFFCURVE",
"307 912 CURVE SMOOTH",
"269.667 882 OFFCURVE",
"236.5 846.667 OFFCURVE",
"207.5 806 CURVE SMOOTH",
"178.5 765.333 OFFCURVE",
"154.167 721.667 OFFCURVE",
"134.5 675 CURVE SMOOTH",
"114.833 628.333 OFFCURVE",
"100 579.667 OFFCURVE",
"90 529 CURVE SMOOTH",
"80 478.333 OFFCURVE",
"75 428 OFFCURVE",
"75 378 CURVE SMOOTH",
"75 318 OFFCURVE",
"82.6666 263.833 OFFCURVE",
"98 215.5 CURVE SMOOTH",
"113.333 167.167 OFFCURVE",
"135.667 126.167 OFFCURVE",
"165 92.5 CURVE SMOOTH",
"194.333 58.8334 OFFCURVE",
"230.5 32.8334 OFFCURVE",
"273.5 14.5 CURVE SMOOTH",
"316.5 -4 OFFCURVE",
"365.667 -13 OFFCURVE",
"421 -13 CURVE SMOOTH",
"459.667 -13 OFFCURVE",
"496 -9 OFFCURVE",
"530 -1 CURVE SMOOTH",
"564 6.16672 OFFCURVE",
"596.833 18 OFFCURVE",
"628.5 34 CURVE SMOOTH",
"660.167 50 OFFCURVE",
"691.5 70.5 OFFCURVE",
"722.5 95.5 CURVE SMOOTH",
"753.5 120.5 OFFCURVE",
"785.333 150.333 OFFCURVE",
"818 185 CURVE",
"796 211 LINE SMOOTH",
"790 217.667 OFFCURVE",
"783 221 OFFCURVE",
"775 221 CURVE SMOOTH",
"767 221 OFFCURVE",
"758.167 217.167 OFFCURVE",
"748.5 209.5 CURVE SMOOTH",
"738.833 201.833 OFFCURVE",
"727.333 192 OFFCURVE",
"714 180 CURVE SMOOTH",
"700.667 168 OFFCURVE",
"685.5 155.333 OFFCURVE",
"668.5 142 CURVE SMOOTH",
"651.5 128.667 OFFCURVE",
"631.833 116 OFFCURVE",
"609.5 104 CURVE SMOOTH",
"587.167 92 OFFCURVE",
"561.833 82.1667 OFFCURVE",
"533.5 74.5 CURVE SMOOTH",
"505.167 66.8334 OFFCURVE",
"473.333 63 OFFCURVE",
"438 63 CURVE SMOOTH",
"347.333 63 OFFCURVE",
"279.5 91 OFFCURVE",
"234.5 147 CURVE SMOOTH",
"189.5 203 OFFCURVE",
"167 280.667 OFFCURVE",
"167 380 CURVE SMOOTH",
"167 393.333 OFFCURVE",
"167.333 406.833 OFFCURVE",
"168 420.5 CURVE SMOOTH",
"168.667 434.167 OFFCURVE",
"169.667 448 OFFCURVE",
"171 462 CURVE",
"264.333 472 OFFCURVE",
"345.667 483.5 OFFCURVE",
"415 496.5 CURVE SMOOTH",
"484.333 509.5 OFFCURVE",
"544 524.167 OFFCURVE",
"594 540.5 CURVE SMOOTH",
"644 556.833 OFFCURVE",
"685 574.833 OFFCURVE",
"717 594.5 CURVE SMOOTH",
"749 614.167 OFFCURVE",
"774.333 635 OFFCURVE",
"793 657 CURVE SMOOTH",
"811.667 679 OFFCURVE",
"824.667 702.333 OFFCURVE",
"832 727 CURVE SMOOTH",
"839.333 751.667 OFFCURVE",
"843 777.667 OFFCURVE",
"843 805 CURVE SMOOTH"
);
},
{
closed = 1;
nodes = (
"607.667 939 OFFCURVE",
"636.833 934.5 OFFCURVE",
"660.5 925.5 CURVE SMOOTH",
"684.167 916.5 OFFCURVE",
"703.333 905.333 OFFCURVE",
"718 892 CURVE SMOOTH",
"732.667 878.667 OFFCURVE",
"743.167 863.833 OFFCURVE",
"749.5 847.5 CURVE SMOOTH",
"755.833 831.167 OFFCURVE",
"759 816 OFFCURVE",
"759 802 CURVE SMOOTH",
"759 782.667 OFFCURVE",
"756.5 764 OFFCURVE",
"751.5 746 CURVE SMOOTH",
"746.5 728 OFFCURVE",
"736.667 710.5 OFFCURVE",
"722 693.5 CURVE SMOOTH",
"707.333 676.5 OFFCURVE",
"686.833 660 OFFCURVE",
"660.5 644 CURVE SMOOTH",
"634.167 628 OFFCURVE",
"599.667 613.167 OFFCURVE",
"557 599.5 CURVE SMOOTH",
"514.333 585.833 OFFCURVE",
"462.333 572.833 OFFCURVE",
"401 560.5 CURVE SMOOTH",
"339.667 548.167 OFFCURVE",
"266.667 537.333 OFFCURVE",
"182 528 CURVE",
"192.667 582 OFFCURVE",
"209.167 633.833 OFFCURVE",
"231.5 683.5 CURVE SMOOTH",
"253.833 733.167 OFFCURVE",
"281.5 776.833 OFFCURVE",
"314.5 814.5 CURVE SMOOTH",
"347.5 852.167 OFFCURVE",
"385.5 882.333 OFFCURVE",
"428.5 905 CURVE SMOOTH",
"471.5 927.667 OFFCURVE",
"519.667 939 OFFCURVE",
"573 939 CURVE SMOOTH"
);
}
);
width = 937;
}
);
leftKerningGroup = c;
rightKerningGroup = e;
unicode = 0065;
},
{
glyphname = eacute;
layers = (
{
layerId = "97227C28-C7C3-40A5-B3DE-4B1AC4F48489";
name = "Light Italic";
paths = (
{
closed = 1;
nodes = (
"75 0 LINE"
);
},
{
closed = 1;
nodes = (
"843 825.667 OFFCURVE",
"838.333 847.833 OFFCURVE",
"829 871.5 CURVE SMOOTH",
"819.667 895.167 OFFCURVE",
"804.5 917.167 OFFCURVE",
"783.5 937.5 CURVE SMOOTH",
"762.5 957.833 OFFCURVE",
"735.167 974.833 OFFCURVE",
"701.5 988.5 CURVE SMOOTH",
"667.833 1002.17 OFFCURVE",
"626.667 1009 OFFCURVE",
"578 1009 CURVE SMOOTH",
"525.333 1009 OFFCURVE",
"476.333 1000.33 OFFCURVE",
"431 983 CURVE SMOOTH",
"385.667 965.667 OFFCURVE",
"344.333 942 OFFCURVE",
"307 912 CURVE SMOOTH",
"269.667 882 OFFCURVE",
"236.5 846.667 OFFCURVE",
"207.5 806 CURVE SMOOTH",
"178.5 765.333 OFFCURVE",
"154.167 721.667 OFFCURVE",
"134.5 675 CURVE SMOOTH",
"114.833 628.333 OFFCURVE",
"100 579.667 OFFCURVE",
"90 529 CURVE SMOOTH",
"80 478.333 OFFCURVE",
"75 428 OFFCURVE",
"75 378 CURVE SMOOTH",
"75 318 OFFCURVE",
"82.6666 263.833 OFFCURVE",
"98 215.5 CURVE SMOOTH",
"113.333 167.167 OFFCURVE",
"135.667 126.167 OFFCURVE",
"165 92.5 CURVE SMOOTH",
"194.333 58.8334 OFFCURVE",
"230.5 32.8334 OFFCURVE",
"273.5 14.5 CURVE SMOOTH",
"316.5 -4 OFFCURVE",
"365.667 -13 OFFCURVE",
"421 -13 CURVE SMOOTH",
"459.667 -13 OFFCURVE",
"496 -9 OFFCURVE",
"530 -1 CURVE SMOOTH",
"564 6.16672 OFFCURVE",
"596.833 18 OFFCURVE",
"628.5 34 CURVE SMOOTH",
"660.167 50 OFFCURVE",
"691.5 70.5 OFFCURVE",
"722.5 95.5 CURVE SMOOTH",
"753.5 120.5 OFFCURVE",
"785.333 150.333 OFFCURVE",
"818 185 CURVE",
"796 211 LINE SMOOTH",
"790 217.667 OFFCURVE",
"783 221 OFFCURVE",
"775 221 CURVE SMOOTH",
"767 221 OFFCURVE",
"758.167 217.167 OFFCURVE",
"748.5 209.5 CURVE SMOOTH",
"738.833 201.833 OFFCURVE",
"727.333 192 OFFCURVE",
"714 180 CURVE SMOOTH",
"700.667 168 OFFCURVE",
"685.5 155.333 OFFCURVE",
"668.5 142 CURVE SMOOTH",
"651.5 128.667 OFFCURVE",
"631.833 116 OFFCURVE",
"609.5 104 CURVE SMOOTH",
"587.167 92 OFFCURVE",
"561.833 82.1667 OFFCURVE",
"533.5 74.5 CURVE SMOOTH",
"505.167 66.8334 OFFCURVE",
"473.333 63 OFFCURVE",
"438 63 CURVE SMOOTH",
"347.333 63 OFFCURVE",
"279.5 91 OFFCURVE",
"234.5 147 CURVE SMOOTH",
"189.5 203 OFFCURVE",
"167 280.667 OFFCURVE",
"167 380 CURVE SMOOTH",
"167 393.333 OFFCURVE",
"167.333 406.833 OFFCURVE",
"168 420.5 CURVE SMOOTH",
"168.667 434.167 OFFCURVE",
"169.667 448 OFFCURVE",
"171 462 CURVE",
"264.333 472 OFFCURVE",
"345.667 483.5 OFFCURVE",
"415 496.5 CURVE SMOOTH",
"484.333 509.5 OFFCURVE",
"544 524.167 OFFCURVE",
"594 540.5 CURVE SMOOTH",
"644 556.833 OFFCURVE",
"685 574.833 OFFCURVE",
"717 594.5 CURVE SMOOTH",
"749 614.167 OFFCURVE",
"774.333 635 OFFCURVE",
"793 657 CURVE SMOOTH",
"811.667 679 OFFCURVE",
"824.667 702.333 OFFCURVE",
"832 727 CURVE SMOOTH",
"839.333 751.667 OFFCURVE",
"843 777.667 OFFCURVE",
"843 805 CURVE SMOOTH"
);
},
{
closed = 1;
nodes = (
"607.667 939 OFFCURVE",
"636.833 934.5 OFFCURVE",
"660.5 925.5 CURVE SMOOTH",
"684.167 916.5 OFFCURVE",
"703.333 905.333 OFFCURVE",
"718 892 CURVE SMOOTH",
"732.667 878.667 OFFCURVE",
"743.167 863.833 OFFCURVE",
"749.5 847.5 CURVE SMOOTH",
"755.833 831.167 OFFCURVE",
"759 816 OFFCURVE",
"759 802 CURVE SMOOTH",
"759 782.667 OFFCURVE",
"756.5 764 OFFCURVE",
"751.5 746 CURVE SMOOTH",
"746.5 728 OFFCURVE",
"736.667 710.5 OFFCURVE",
"722 693.5 CURVE SMOOTH",
"707.333 676.5 OFFCURVE",
"686.833 660 OFFCURVE",
"660.5 644 CURVE SMOOTH",
"634.167 628 OFFCURVE",
"599.667 613.167 OFFCURVE",
"557 599.5 CURVE SMOOTH",
"514.333 585.833 OFFCURVE",
"462.333 572.833 OFFCURVE",
"401 560.5 CURVE SMOOTH",
"339.667 548.167 OFFCURVE",
"266.667 537.333 OFFCURVE",
"182 528 CURVE",
"192.667 582 OFFCURVE",
"209.167 633.833 OFFCURVE",
"231.5 683.5 CURVE SMOOTH",
"253.833 733.167 OFFCURVE",
"281.5 776.833 OFFCURVE",
"314.5 814.5 CURVE SMOOTH",
"347.5 852.167 OFFCURVE",
"385.5 882.333 OFFCURVE",
"428.5 905 CURVE SMOOTH",
"471.5 927.667 OFFCURVE",
"519.667 939 OFFCURVE",
"573 939 CURVE SMOOTH"
);
},
{
closed = 1;
nodes = (
"840 1431 LINE",
"753 1431 LINE SMOOTH",
"738.333 1431 OFFCURVE",
"727 1428.67 OFFCURVE",
"719 1424 CURVE SMOOTH",
"711 1419.33 OFFCURVE",
"703 1411 OFFCURVE",
"695 1399 CURVE",
"524 1161 LINE",
"577 1161 LINE SMOOTH",
"584.333 1161 OFFCURVE",
"590.667 1162.17 OFFCURVE",
"596 1164.5 CURVE SMOOTH",
"601.333 1166.83 OFFCURVE",
"606.667 1171.33 OFFCURVE",
"612 1178 CURVE"
);
}
);
width = 937;
}
);
leftKerningGroup = c;
rightKerningGroup = e;
unicode = 00E9;
},
{
glyphname = ecircumflex;
layers = (
{
layerId = "97227C28-C7C3-40A5-B3DE-4B1AC4F48489";
name = "Light Italic";
paths = (
{
closed = 1;
nodes = (
"75 0 LINE"
);
},
{
closed = 1;
nodes = (
"843 825.667 OFFCURVE",
"838.333 847.833 OFFCURVE",
"829 871.5 CURVE SMOOTH",
"819.667 895.167 OFFCURVE",
"804.5 917.167 OFFCURVE",
"783.5 937.5 CURVE SMOOTH",
"762.5 957.833 OFFCURVE",
"735.167 974.833 OFFCURVE",
"701.5 988.5 CURVE SMOOTH",
"667.833 1002.17 OFFCURVE",
"626.667 1009 OFFCURVE",
"578 1009 CURVE SMOOTH",
"525.333 1009 OFFCURVE",
"476.333 1000.33 OFFCURVE",
"431 983 CURVE SMOOTH",
"385.667 965.667 OFFCURVE",
"344.333 942 OFFCURVE",
"307 912 CURVE SMOOTH",
"269.667 882 OFFCURVE",
"236.5 846.667 OFFCURVE",
"207.5 806 CURVE SMOOTH",
"178.5 765.333 OFFCURVE",
"154.167 721.667 OFFCURVE",
"134.5 675 CURVE SMOOTH",
"114.833 628.333 OFFCURVE",
"100 579.667 OFFCURVE",
"90 529 CURVE SMOOTH",
"80 478.333 OFFCURVE",
"75 428 OFFCURVE",
"75 378 CURVE SMOOTH",
"75 318 OFFCURVE",
"82.6666 263.833 OFFCURVE",
"98 215.5 CURVE SMOOTH",
"113.333 167.167 OFFCURVE",
"135.667 126.167 OFFCURVE",
"165 92.5 CURVE SMOOTH",
"194.333 58.8334 OFFCURVE",
"230.5 32.8334 OFFCURVE",
"273.5 14.5 CURVE SMOOTH",
"316.5 -4 OFFCURVE",
"365.667 -13 OFFCURVE",
"421 -13 CURVE SMOOTH",
"459.667 -13 OFFCURVE",
"496 -9 OFFCURVE",
"530 -1 CURVE SMOOTH",
"564 6.16672 OFFCURVE",
"596.833 18 OFFCURVE",
"628.5 34 CURVE SMOOTH",
"660.167 50 OFFCURVE",
"691.5 70.5 OFFCURVE",
"722.5 95.5 CURVE SMOOTH",
"753.5 120.5 OFFCURVE",
"785.333 150.333 OFFCURVE",
"818 185 CURVE",
"796 211 LINE SMOOTH",
"790 217.667 OFFCURVE",
"783 221 OFFCURVE",
"775 221 CURVE SMOOTH",
"767 221 OFFCURVE",
"758.167 217.167 OFFCURVE",
"748.5 209.5 CURVE SMOOTH",
"738.833 201.833 OFFCURVE",
"727.333 192 OFFCURVE",
"714 180 CURVE SMOOTH",
"700.667 168 OFFCURVE",
"685.5 155.333 OFFCURVE",
"668.5 142 CURVE SMOOTH",
"651.5 128.667 OFFCURVE",
"631.833 116 OFFCURVE",
"609.5 104 CURVE SMOOTH",
"587.167 92 OFFCURVE",
"561.833 82.1667 OFFCURVE",
"533.5 74.5 CURVE SMOOTH",
"505.167 66.8334 OFFCURVE",
"473.333 63 OFFCURVE",
"438 63 CURVE SMOOTH",
"347.333 63 OFFCURVE",
"279.5 91 OFFCURVE",
"234.5 147 CURVE SMOOTH",
"189.5 203 OFFCURVE",
"167 280.667 OFFCURVE",
"167 380 CURVE SMOOTH",
"167 393.333 OFFCURVE",
"167.333 406.833 OFFCURVE",
"168 420.5 CURVE SMOOTH",
"168.667 434.167 OFFCURVE",
"169.667 448 OFFCURVE",
"171 462 CURVE",
"264.333 472 OFFCURVE",
"345.667 483.5 OFFCURVE",
"415 496.5 CURVE SMOOTH",
"484.333 509.5 OFFCURVE",
"544 524.167 OFFCURVE",
"594 540.5 CURVE SMOOTH",
"644 556.833 OFFCURVE",
"685 574.833 OFFCURVE",
"717 594.5 CURVE SMOOTH",
"749 614.167 OFFCURVE",
"774.333 635 OFFCURVE",
"793 657 CURVE SMOOTH",
"811.667 679 OFFCURVE",
"824.667 702.333 OFFCURVE",
"832 727 CURVE SMOOTH",
"839.333 751.667 OFFCURVE",
"843 777.667 OFFCURVE",
"843 805 CURVE SMOOTH"
);
},
{
closed = 1;
nodes = (
"607.667 939 OFFCURVE",
"636.833 934.5 OFFCURVE",
"660.5 925.5 CURVE SMOOTH",
"684.167 916.5 OFFCURVE",
"703.333 905.333 OFFCURVE",
"718 892 CURVE SMOOTH",
"732.667 878.667 OFFCURVE",
"743.167 863.833 OFFCURVE",
"749.5 847.5 CURVE SMOOTH",
"755.833 831.167 OFFCURVE",
"759 816 OFFCURVE",
"759 802 CURVE SMOOTH",
"759 782.667 OFFCURVE",
"756.5 764 OFFCURVE",
"751.5 746 CURVE SMOOTH",
"746.5 728 OFFCURVE",
"736.667 710.5 OFFCURVE",
"722 693.5 CURVE SMOOTH",
"707.333 676.5 OFFCURVE",
"686.833 660 OFFCURVE",
"660.5 644 CURVE SMOOTH",
"634.167 628 OFFCURVE",
"599.667 613.167 OFFCURVE",
"557 599.5 CURVE SMOOTH",
"514.333 585.833 OFFCURVE",
"462.333 572.833 OFFCURVE",
"401 560.5 CURVE SMOOTH",
"339.667 548.167 OFFCURVE",
"266.667 537.333 OFFCURVE",
"182 528 CURVE",
"192.667 582 OFFCURVE",
"209.167 633.833 OFFCURVE",
"231.5 683.5 CURVE SMOOTH",
"253.833 733.167 OFFCURVE",
"281.5 776.833 OFFCURVE",
"314.5 814.5 CURVE SMOOTH",
"347.5 852.167 OFFCURVE",
"385.5 882.333 OFFCURVE",
"428.5 905 CURVE SMOOTH",
"471.5 927.667 OFFCURVE",
"519.667 939 OFFCURVE",
"573 939 CURVE SMOOTH"
);
},
{
closed = 1;
nodes = (
"819 1169 LINE",
"646 1415 LINE",
"568 1415 LINE",
"340 1169 LINE",
"402 1169 LINE SMOOTH",
"412.667 1169 OFFCURVE",
"422 1173.67 OFFCURVE",
"430 1183 CURVE",
"591 1349 LINE",
"602 1361 LINE",
"603.333 1359 OFFCURVE",
"604.833 1356.83 OFFCURVE",
"606.5 1354.5 CURVE SMOOTH",
"608.167 1352.17 OFFCURVE",
"609.667 1350.33 OFFCURVE",
"611 1349 CURVE",
"734 1183 LINE",
"737.333 1177.67 OFFCURVE",
"741.333 1174 OFFCURVE",
"746 1172 CURVE SMOOTH",
"750.667 1170 OFFCURVE",
"755 1169 OFFCURVE",
"759 1169 CURVE SMOOTH"
);
}
);
width = 937;
}
);
leftKerningGroup = c;
rightKerningGroup = e;
unicode = 00EA;
},
{
glyphname = edieresis;
layers = (
{
layerId = "97227C28-C7C3-40A5-B3DE-4B1AC4F48489";
name = "Light Italic";
paths = (
{
closed = 1;
nodes = (
"75 0 LINE"
);
},
{
closed = 1;
nodes = (
"843 825.667 OFFCURVE",
"838.333 847.833 OFFCURVE",
"829 871.5 CURVE SMOOTH",
"819.667 895.167 OFFCURVE",
"804.5 917.167 OFFCURVE",
"783.5 937.5 CURVE SMOOTH",
"762.5 957.833 OFFCURVE",
"735.167 974.833 OFFCURVE",
"701.5 988.5 CURVE SMOOTH",
"667.833 1002.17 OFFCURVE",
"626.667 1009 OFFCURVE",
"578 1009 CURVE SMOOTH",
"525.333 1009 OFFCURVE",
"476.333 1000.33 OFFCURVE",
"431 983 CURVE SMOOTH",
"385.667 965.667 OFFCURVE",
"344.333 942 OFFCURVE",
"307 912 CURVE SMOOTH",
"269.667 882 OFFCURVE",
"236.5 846.667 OFFCURVE",
"207.5 806 CURVE SMOOTH",
"178.5 765.333 OFFCURVE",
"154.167 721.667 OFFCURVE",
"134.5 675 CURVE SMOOTH",
"114.833 628.333 OFFCURVE",
"100 579.667 OFFCURVE",
"90 529 CURVE SMOOTH",
"80 478.333 OFFCURVE",
"75 428 OFFCURVE",
"75 378 CURVE SMOOTH",
"75 318 OFFCURVE",
"82.6666 263.833 OFFCURVE",
"98 215.5 CURVE SMOOTH",
"113.333 167.167 OFFCURVE",
"135.667 126.167 OFFCURVE",
"165 92.5 CURVE SMOOTH",
"194.333 58.8334 OFFCURVE",
"230.5 32.8334 OFFCURVE",
"273.5 14.5 CURVE SMOOTH",
"316.5 -4 OFFCURVE",
"365.667 -13 OFFCURVE",
"421 -13 CURVE SMOOTH",
"459.667 -13 OFFCURVE",
"496 -9 OFFCURVE",
"530 -1 CURVE SMOOTH",
"564 6.16672 OFFCURVE",
"596.833 18 OFFCURVE",
"628.5 34 CURVE SMOOTH",
"660.167 50 OFFCURVE",
"691.5 70.5 OFFCURVE",
"722.5 95.5 CURVE SMOOTH",
"753.5 120.5 OFFCURVE",
"785.333 150.333 OFFCURVE",
"818 185 CURVE",
"796 211 LINE SMOOTH",
"790 217.667 OFFCURVE",
"783 221 OFFCURVE",
"775 221 CURVE SMOOTH",
"767 221 OFFCURVE",
"758.167 217.167 OFFCURVE",
"748.5 209.5 CURVE SMOOTH",
"738.833 201.833 OFFCURVE",
"727.333 192 OFFCURVE",
"714 180 CURVE SMOOTH",
"700.667 168 OFFCURVE",
"685.5 155.333 OFFCURVE",
"668.5 142 CURVE SMOOTH",
"651.5 128.667 OFFCURVE",
"631.833 116 OFFCURVE",
"609.5 104 CURVE SMOOTH",
"587.167 92 OFFCURVE",
"561.833 82.1667 OFFCURVE",
"533.5 74.5 CURVE SMOOTH",
"505.167 66.8334 OFFCURVE",
"473.333 63 OFFCURVE",
"438 63 CURVE SMOOTH",
"347.333 63 OFFCURVE",
"279.5 91 OFFCURVE",
"234.5 147 CURVE SMOOTH",
"189.5 203 OFFCURVE",
"167 280.667 OFFCURVE",
"167 380 CURVE SMOOTH",
"167 393.333 OFFCURVE",
"167.333 406.833 OFFCURVE",
"168 420.5 CURVE SMOOTH",
"168.667 434.167 OFFCURVE",
"169.667 448 OFFCURVE",
"171 462 CURVE",
"264.333 472 OFFCURVE",
"345.667 483.5 OFFCURVE",
"415 496.5 CURVE SMOOTH",
"484.333 509.5 OFFCURVE",
"544 524.167 OFFCURVE",
"594 540.5 CURVE SMOOTH",
"644 556.833 OFFCURVE",
"685 574.833 OFFCURVE",
"717 594.5 CURVE SMOOTH",
"749 614.167 OFFCURVE",
"774.333 635 OFFCURVE",
"793 657 CURVE SMOOTH",
"811.667 679 OFFCURVE",
"824.667 702.333 OFFCURVE",
"832 727 CURVE SMOOTH",
"839.333 751.667 OFFCURVE",
"843 777.667 OFFCURVE",
"843 805 CURVE SMOOTH"
);
},
{
closed = 1;
nodes = (
"607.667 939 OFFCURVE",
"636.833 934.5 OFFCURVE",
"660.5 925.5 CURVE SMOOTH",
"684.167 916.5 OFFCURVE",
"703.333 905.333 OFFCURVE",
"718 892 CURVE SMOOTH",
"732.667 878.667 OFFCURVE",
"743.167 863.833 OFFCURVE",
"749.5 847.5 CURVE SMOOTH",
"755.833 831.167 OFFCURVE",
"759 816 OFFCURVE",
"759 802 CURVE SMOOTH",
"759 782.667 OFFCURVE",
"756.5 764 OFFCURVE",
"751.5 746 CURVE SMOOTH",
"746.5 728 OFFCURVE",
"736.667 710.5 OFFCURVE",
"722 693.5 CURVE SMOOTH",
"707.333 676.5 OFFCURVE",
"686.833 660 OFFCURVE",
"660.5 644 CURVE SMOOTH",
"634.167 628 OFFCURVE",
"599.667 613.167 OFFCURVE",
"557 599.5 CURVE SMOOTH",
"514.333 585.833 OFFCURVE",
"462.333 572.833 OFFCURVE",
"401 560.5 CURVE SMOOTH",
"339.667 548.167 OFFCURVE",
"266.667 537.333 OFFCURVE",
"182 528 CURVE",
"192.667 582 OFFCURVE",
"209.167 633.833 OFFCURVE",
"231.5 683.5 CURVE SMOOTH",
"253.833 733.167 OFFCURVE",
"281.5 776.833 OFFCURVE",
"314.5 814.5 CURVE SMOOTH",
"347.5 852.167 OFFCURVE",
"385.5 882.333 OFFCURVE",
"428.5 905 CURVE SMOOTH",
"471.5 927.667 OFFCURVE",
"519.667 939 OFFCURVE",
"573 939 CURVE SMOOTH"
);
},
{
closed = 1;
nodes = (
"524 1295.33 OFFCURVE",
"521.667 1306 OFFCURVE",
"517 1316 CURVE SMOOTH",
"512.333 1326 OFFCURVE",
"506.333 1334.83 OFFCURVE",
"499 1342.5 CURVE SMOOTH",
"491.667 1350.17 OFFCURVE",
"482.833 1356.17 OFFCURVE",
"472.5 1360.5 CURVE SMOOTH",
"462.167 1364.83 OFFCURVE",
"451.667 1367 OFFCURVE",
"441 1367 CURVE SMOOTH",
"430.333 1367 OFFCURVE",
"420.167 1364.83 OFFCURVE",
"410.5 1360.5 CURVE SMOOTH",
"400.833 1356.17 OFFCURVE",
"392.167 1350.17 OFFCURVE",
"384.5 1342.5 CURVE SMOOTH",
"376.833 1334.83 OFFCURVE",
"370.833 1326 OFFCURVE",
"366.5 1316 CURVE SMOOTH",
"362.167 1306 OFFCURVE",
"360 1295.33 OFFCURVE",
"360 1284 CURVE SMOOTH",
"360 1273.33 OFFCURVE",
"362.167 1263.17 OFFCURVE",
"366.5 1253.5 CURVE SMOOTH",
"370.833 1243.83 OFFCURVE",
"376.833 1235.33 OFFCURVE",
"384.5 1228 CURVE SMOOTH",
"392.167 1220.67 OFFCURVE",
"400.833 1214.83 OFFCURVE",
"410.5 1210.5 CURVE SMOOTH",
"420.167 1206.17 OFFCURVE",
"430.333 1204 OFFCURVE",
"441 1204 CURVE SMOOTH",
"451.667 1204 OFFCURVE",
"462.167 1206.17 OFFCURVE",
"472.5 1210.5 CURVE SMOOTH",
"482.833 1214.83 OFFCURVE",
"491.667 1220.67 OFFCURVE",
"499 1228 CURVE SMOOTH",
"506.333 1235.33 OFFCURVE",
"512.333 1243.83 OFFCURVE",
"517 1253.5 CURVE SMOOTH",
"521.667 1263.17 OFFCURVE",
"524 1273.33 OFFCURVE",
"524 1284 CURVE SMOOTH"
);
},
{
closed = 1;
nodes = (
"857 1295.33 OFFCURVE",
"854.667 1306 OFFCURVE",
"850 1316 CURVE SMOOTH",
"845.333 1326 OFFCURVE",
"839.333 1334.83 OFFCURVE",
"832 1342.5 CURVE SMOOTH",
"824.667 1350.17 OFFCURVE",
"815.833 1356.17 OFFCURVE",
"805.5 1360.5 CURVE SMOOTH",
"795.167 1364.83 OFFCURVE",
"784.667 1367 OFFCURVE",
"774 1367 CURVE SMOOTH",
"762.667 1367 OFFCURVE",
"752.167 1364.83 OFFCURVE",
"742.5 1360.5 CURVE SMOOTH",
"732.833 1356.17 OFFCURVE",
"724.167 1350.17 OFFCURVE",
"716.5 1342.5 CURVE SMOOTH",
"708.833 1334.83 OFFCURVE",
"702.833 1326 OFFCURVE",
"698.5 1316 CURVE SMOOTH",
"694.167 1306 OFFCURVE",
"692 1295.33 OFFCURVE",
"692 1284 CURVE SMOOTH",
"692 1273.33 OFFCURVE",
"694.167 1263.17 OFFCURVE",
"698.5 1253.5 CURVE SMOOTH",
"702.833 1243.83 OFFCURVE",
"708.833 1235.33 OFFCURVE",
"716.5 1228 CURVE SMOOTH",
"724.167 1220.67 OFFCURVE",
"732.833 1214.83 OFFCURVE",
"742.5 1210.5 CURVE SMOOTH",
"752.167 1206.17 OFFCURVE",
"762.667 1204 OFFCURVE",
"774 1204 CURVE SMOOTH",
"784.667 1204 OFFCURVE",
"795.167 1206.17 OFFCURVE",
"805.5 1210.5 CURVE SMOOTH",
"815.833 1214.83 OFFCURVE",
"824.667 1220.67 OFFCURVE",
"832 1228 CURVE SMOOTH",
"839.333 1235.33 OFFCURVE",
"845.333 1243.83 OFFCURVE",
"850 1253.5 CURVE SMOOTH",
"854.667 1263.17 OFFCURVE",
"857 1273.33 OFFCURVE",
"857 1284 CURVE SMOOTH"
);
}
);
width = 937;
}
);
leftKerningGroup = c;
rightKerningGroup = e;
unicode = 00EB;
},
{
glyphname = egrave;
layers = (
{
layerId = "97227C28-C7C3-40A5-B3DE-4B1AC4F48489";
name = "Light Italic";
paths = (
{
closed = 1;
nodes = (
"75 0 LINE"
);
},
{
closed = 1;
nodes = (
"843 825.667 OFFCURVE",
"838.333 847.833 OFFCURVE",
"829 871.5 CURVE SMOOTH",
"819.667 895.167 OFFCURVE",
"804.5 917.167 OFFCURVE",
"783.5 937.5 CURVE SMOOTH",
"762.5 957.833 OFFCURVE",
"735.167 974.833 OFFCURVE",
"701.5 988.5 CURVE SMOOTH",
"667.833 1002.17 OFFCURVE",
"626.667 1009 OFFCURVE",
"578 1009 CURVE SMOOTH",
"525.333 1009 OFFCURVE",
"476.333 1000.33 OFFCURVE",
"431 983 CURVE SMOOTH",
"385.667 965.667 OFFCURVE",
"344.333 942 OFFCURVE",
"307 912 CURVE SMOOTH",
"269.667 882 OFFCURVE",
"236.5 846.667 OFFCURVE",
"207.5 806 CURVE SMOOTH",
"178.5 765.333 OFFCURVE",
"154.167 721.667 OFFCURVE",
"134.5 675 CURVE SMOOTH",
"114.833 628.333 OFFCURVE",
"100 579.667 OFFCURVE",
"90 529 CURVE SMOOTH",
"80 478.333 OFFCURVE",
"75 428 OFFCURVE",
"75 378 CURVE SMOOTH",
"75 318 OFFCURVE",
"82.6666 263.833 OFFCURVE",
"98 215.5 CURVE SMOOTH",
"113.333 167.167 OFFCURVE",
"135.667 126.167 OFFCURVE",
"165 92.5 CURVE SMOOTH",
"194.333 58.8334 OFFCURVE",
"230.5 32.8334 OFFCURVE",
"273.5 14.5 CURVE SMOOTH",
"316.5 -4 OFFCURVE",
"365.667 -13 OFFCURVE",
"421 -13 CURVE SMOOTH",
"459.667 -13 OFFCURVE",
"496 -9 OFFCURVE",
"530 -1 CURVE SMOOTH",
"564 6.16672 OFFCURVE",
"596.833 18 OFFCURVE",
"628.5 34 CURVE SMOOTH",
"660.167 50 OFFCURVE",
"691.5 70.5 OFFCURVE",
"722.5 95.5 CURVE SMOOTH",
"753.5 120.5 OFFCURVE",
"785.333 150.333 OFFCURVE",
"818 185 CURVE",
"796 211 LINE SMOOTH",
"790 217.667 OFFCURVE",
"783 221 OFFCURVE",
"775 221 CURVE SMOOTH",
"767 221 OFFCURVE",
"758.167 217.167 OFFCURVE",
"748.5 209.5 CURVE SMOOTH",
"738.833 201.833 OFFCURVE",
"727.333 192 OFFCURVE",
"714 180 CURVE SMOOTH",
"700.667 168 OFFCURVE",
"685.5 155.333 OFFCURVE",
"668.5 142 CURVE SMOOTH",
"651.5 128.667 OFFCURVE",
"631.833 116 OFFCURVE",
"609.5 104 CURVE SMOOTH",
"587.167 92 OFFCURVE",
"561.833 82.1667 OFFCURVE",
"533.5 74.5 CURVE SMOOTH",
"505.167 66.8334 OFFCURVE",
"473.333 63 OFFCURVE",
"438 63 CURVE SMOOTH",
"347.333 63 OFFCURVE",
"279.5 91 OFFCURVE",
"234.5 147 CURVE SMOOTH",
"189.5 203 OFFCURVE",
"167 280.667 OFFCURVE",
"167 380 CURVE SMOOTH",
"167 393.333 OFFCURVE",
"167.333 406.833 OFFCURVE",
"168 420.5 CURVE SMOOTH",
"168.667 434.167 OFFCURVE",
"169.667 448 OFFCURVE",
"171 462 CURVE",
"264.333 472 OFFCURVE",
"345.667 483.5 OFFCURVE",
"415 496.5 CURVE SMOOTH",
"484.333 509.5 OFFCURVE",
"544 524.167 OFFCURVE",
"594 540.5 CURVE SMOOTH",
"644 556.833 OFFCURVE",
"685 574.833 OFFCURVE",
"717 594.5 CURVE SMOOTH",
"749 614.167 OFFCURVE",
"774.333 635 OFFCURVE",
"793 657 CURVE SMOOTH",
"811.667 679 OFFCURVE",
"824.667 702.333 OFFCURVE",
"832 727 CURVE SMOOTH",
"839.333 751.667 OFFCURVE",
"843 777.667 OFFCURVE",
"843 805 CURVE SMOOTH"
);
},
{
closed = 1;
nodes = (
"607.667 939 OFFCURVE",
"636.833 934.5 OFFCURVE",
"660.5 925.5 CURVE SMOOTH",
"684.167 916.5 OFFCURVE",
"703.333 905.333 OFFCURVE",
"718 892 CURVE SMOOTH",
"732.667 878.667 OFFCURVE",
"743.167 863.833 OFFCURVE",
"749.5 847.5 CURVE SMOOTH",
"755.833 831.167 OFFCURVE",
"759 816 OFFCURVE",
"759 802 CURVE SMOOTH",
"759 782.667 OFFCURVE",
"756.5 764 OFFCURVE",
"751.5 746 CURVE SMOOTH",
"746.5 728 OFFCURVE",
"736.667 710.5 OFFCURVE",
"722 693.5 CURVE SMOOTH",
"707.333 676.5 OFFCURVE",
"686.833 660 OFFCURVE",
"660.5 644 CURVE SMOOTH",
"634.167 628 OFFCURVE",
"599.667 613.167 OFFCURVE",
"557 599.5 CURVE SMOOTH",
"514.333 585.833 OFFCURVE",
"462.333 572.833 OFFCURVE",
"401 560.5 CURVE SMOOTH",
"339.667 548.167 OFFCURVE",
"266.667 537.333 OFFCURVE",
"182 528 CURVE",
"192.667 582 OFFCURVE",
"209.167 633.833 OFFCURVE",
"231.5 683.5 CURVE SMOOTH",
"253.833 733.167 OFFCURVE",
"281.5 776.833 OFFCURVE",
"314.5 814.5 CURVE SMOOTH",
"347.5 852.167 OFFCURVE",
"385.5 882.333 OFFCURVE",
"428.5 905 CURVE SMOOTH",
"471.5 927.667 OFFCURVE",
"519.667 939 OFFCURVE",
"573 939 CURVE SMOOTH"
);
},
{
closed = 1;
nodes = (
"391 1431 LINE",
"563 1178 LINE",
"566.333 1171.33 OFFCURVE",
"570.5 1166.83 OFFCURVE",
"575.5 1164.5 CURVE SMOOTH",
"580.5 1162.17 OFFCURVE",
"586.667 1161 OFFCURVE",
"594 1161 CURVE SMOOTH",
"644 1161 LINE",
"527 1399 LINE",
"521.667 1411 OFFCURVE",
"515.5 1419.33 OFFCURVE",
"508.5 1424 CURVE SMOOTH",
"501.5 1428.67 OFFCURVE",
"490.667 1431 OFFCURVE",
"476 1431 CURVE SMOOTH"
);
}
);
width = 937;
}
);
leftKerningGroup = c;
rightKerningGroup = e;
unicode = 00E8;
},
{
glyphname = f;
layers = (
{
layerId = "97227C28-C7C3-40A5-B3DE-4B1AC4F48489";
name = "Light Italic";
paths = (
{
closed = 1;
nodes = (
"331 894 LINE",
"608 894 LINE",
"618 964 LINE",
"337 964 LINE",
"353 1087 LINE SMOOTH",
"359 1137 OFFCURVE",
"369.333 1179.33 OFFCURVE",
"384 1214 CURVE SMOOTH",
"398.667 1248.67 OFFCURVE",
"416.667 1276.83 OFFCURVE",
"438 1298.5 CURVE SMOOTH",
"459.333 1320.17 OFFCURVE",
"483.333 1336 OFFCURVE",
"510 1346 CURVE SMOOTH",
"536.667 1356 OFFCURVE",
"565.333 1361 OFFCURVE",
"596 1361 CURVE SMOOTH",
"610 1361 OFFCURVE",
"622.333 1360.17 OFFCURVE",
"633 1358.5 CURVE SMOOTH",
"643.667 1356.83 OFFCURVE",
"652.833 1355.5 OFFCURVE",
"660.5 1354.5 CURVE SMOOTH",
"668.167 1353.5 OFFCURVE",
"674.333 1353.5 OFFCURVE",
"679 1354.5 CURVE SMOOTH",
"683.667 1355.5 OFFCURVE",
"686.667 1358.67 OFFCURVE",
"688 1364 CURVE",
"698 1412 LINE",
"682.667 1418.67 OFFCURVE",
"665.833 1423.83 OFFCURVE",
"647.5 1427.5 CURVE SMOOTH",
"629.167 1431.17 OFFCURVE",
"610.667 1433 OFFCURVE",
"592 1433 CURVE SMOOTH",
"550 1433 OFFCURVE",
"510.667 1425.83 OFFCURVE",
"474 1411.5 CURVE SMOOTH",
"437.333 1397.17 OFFCURVE",
"404.5 1375.67 OFFCURVE",
"375.5 1347 CURVE SMOOTH",
"346.5 1318.33 OFFCURVE",
"322.333 1282.5 OFFCURVE",
"303 1239.5 CURVE SMOOTH",
"283.667 1196.5 OFFCURVE",
"270.333 1146.67 OFFCURVE",
"263 1090 CURVE SMOOTH",
"247 964 LINE",
"95 964 LINE",
"91 927 LINE SMOOTH",
"90.3334 919 OFFCURVE",
"92 913 OFFCURVE",
"96 909 CURVE SMOOTH",
"100 905 OFFCURVE",
"106 902.333 OFFCURVE",
"114 901 CURVE",
"239 893 LINE",
"100 -250 LINE",
"134 -250 LINE SMOOTH",
"158.667 -250 OFFCURVE",
"175 -236 OFFCURVE",
"183 -209 CURVE",
"225 20.9998 LINE"
);
}
);
width = 616;
}
);
leftKerningGroup = f;
rightKerningGroup = f;
unicode = 0066;
},
{
glyphname = g;
lastChange = "2014-08-20 23:07:26 -0500";
layers = (
{
layerId = "97227C28-C7C3-40A5-B3DE-4B1AC4F48489";
name = "Light Italic";
paths = (
{
closed = 1;
nodes = (
"913 995 LINE",
"862 995 LINE SMOOTH",
"846 995 OFFCURVE",
"835.667 986.667 OFFCURVE",
"831 970 CURVE",
"809 858 LINE",
"780.333 908.667 OFFCURVE",
"742.333 946.833 OFFCURVE",
"695 972.5 CURVE SMOOTH",
"647.667 998.167 OFFCURVE",
"596.333 1011 OFFCURVE",
"541 1011 CURVE SMOOTH",
"494.333 1011 OFFCURVE",
"450.333 1002 OFFCURVE",
"409 984 CURVE SMOOTH",
"367.667 966 OFFCURVE",
"329.833 941.333 OFFCURVE",
"295.5 910 CURVE SMOOTH",
"261.167 878.667 OFFCURVE",
"230.333 842.167 OFFCURVE",
"203 800.5 CURVE SMOOTH",
"175.667 758.833 OFFCURVE",
"152.667 714.167 OFFCURVE",
"134 666.5 CURVE SMOOTH",
"115.333 618.833 OFFCURVE",
"101 569.5 OFFCURVE",
"91 518.5 CURVE SMOOTH",
"81 467.5 OFFCURVE",
"76 417.333 OFFCURVE",
"76 368 CURVE SMOOTH",
"76 316 OFFCURVE",
"81.5001 268 OFFCURVE",
"92.5001 224 CURVE SMOOTH",
"103.5 180 OFFCURVE",
"120 142.167 OFFCURVE",
"142 110.5 CURVE SMOOTH",
"164 78.8334 OFFCURVE",
"191.333 54.1667 OFFCURVE",
"224 36.5001 CURVE SMOOTH",
"256.667 18.8334 OFFCURVE",
"294.667 10 OFFCURVE",
"338 10 CURVE SMOOTH",
"376.667 10 OFFCURVE",
"414.667 18 OFFCURVE",
"452 34 CURVE SMOOTH",
"489.333 50 OFFCURVE",
"525.167 73 OFFCURVE",
"559.5 103 CURVE SMOOTH",
"593.833 133 OFFCURVE",
"626.333 169.167 OFFCURVE",
"657 211.5 CURVE SMOOTH",
"687.667 253.833 OFFCURVE",
"716 301.333 OFFCURVE",
"742 354 CURVE",
"702 26 LINE SMOOTH",
"696 -22 OFFCURVE",
"684.167 -66 OFFCURVE",
"666.5 -106 CURVE SMOOTH",
"648.833 -146 OFFCURVE",
"625.667 -180 OFFCURVE",
"597 -209 CURVE SMOOTH",
"568.333 -237 OFFCURVE",
"534.333 -259 OFFCURVE",
"495 -275 CURVE SMOOTH",
"455.667 -291 OFFCURVE",
"411.333 -299 OFFCURVE",
"362 -299 CURVE SMOOTH",
"318.667 -299 OFFCURVE",
"282.667 -294 OFFCURVE",
"254 -284 CURVE SMOOTH",
"225.333 -273 OFFCURVE",
"201.333 -262 OFFCURVE",
"182 -250 CURVE SMOOTH",
"162.667 -237 OFFCURVE",
"147.167 -226 OFFCURVE",
"135.5 -216 CURVE SMOOTH",
"123.833 -205 OFFCURVE",
"114 -200 OFFCURVE",
"106 -200 CURVE SMOOTH",
"99.3334 -200 OFFCURVE",
"94 -201 OFFCURVE",
"90 -204 CURVE SMOOTH",
"86 -207 OFFCURVE",
"81.6667 -211 OFFCURVE",
"77 -216 CURVE",
"54 -245 LINE",
"86.6667 -281 OFFCURVE",
"128.167 -311 OFFCURVE",
"178.5 -334 CURVE SMOOTH",
"228.833 -357 OFFCURVE",
"289.333 -368 OFFCURVE",
"360 -368 CURVE SMOOTH",
"424.667 -368 OFFCURVE",
"482.5 -358 OFFCURVE",
"533.5 -339 CURVE SMOOTH",
"584.5 -319 OFFCURVE",
"628.167 -291 OFFCURVE",
"664.5 -256 CURVE SMOOTH",
"700.833 -221 OFFCURVE",
"729.833 -179 OFFCURVE",
"751.5 -130 CURVE SMOOTH",
"773.167 -81 OFFCURVE",
"787.667 -28 OFFCURVE",
"795 31 CURVE SMOOTH"
);
},
{
closed = 1;
nodes = (
"336.333 86 OFFCURVE",
"307.5 93.1667 OFFCURVE",
"282.5 107.5 CURVE SMOOTH",
"257.5 121.833 OFFCURVE",
"236.667 141.667 OFFCURVE",
"220 167 CURVE SMOOTH",
"203.333 192.333 OFFCURVE",
"190.667 222.833 OFFCURVE",
"182 258.5 CURVE SMOOTH",
"173.333 294.167 OFFCURVE",
"169 333.333 OFFCURVE",
"169 376 CURVE SMOOTH",
"169 416.667 OFFCURVE",
"172.833 458.833 OFFCURVE",
"180.5 502.5 CURVE SMOOTH",
"188.167 546.167 OFFCURVE",
"199.333 588.833 OFFCURVE",
"214 630.5 CURVE SMOOTH",
"228.667 672.167 OFFCURVE",
"246.833 711.667 OFFCURVE",
"268.5 749 CURVE SMOOTH",
"290.167 786.333 OFFCURVE",
"315.167 819.167 OFFCURVE",
"343.5 847.5 CURVE SMOOTH",
"371.833 875.833 OFFCURVE",
"403.333 898.167 OFFCURVE",
"438 914.5 CURVE SMOOTH",
"472.667 930.833 OFFCURVE",
"510.333 939 OFFCURVE",
"551 939 CURVE SMOOTH",
"573.667 939 OFFCURVE",
"596.5 936.333 OFFCURVE",
"619.5 931 CURVE SMOOTH",
"642.5 925.667 OFFCURVE",
"664.667 917 OFFCURVE",
"686 905 CURVE SMOOTH",
"707.333 893 OFFCURVE",
"727.333 877.5 OFFCURVE",
"746 858.5 CURVE SMOOTH",
"764.667 839.5 OFFCURVE",
"781 816.333 OFFCURVE",
"795 789 CURVE",
"762 517 LINE",
"738 449.667 OFFCURVE",
"710.833 389.333 OFFCURVE",
"680.5 336 CURVE SMOOTH",
"650.167 282.667 OFFCURVE",
"617.833 237.5 OFFCURVE",
"583.5 200.5 CURVE SMOOTH",
"549.167 163.5 OFFCURVE",
"513.833 135.167 OFFCURVE",
"477.5 115.5 CURVE SMOOTH",
"441.167 95.8334 OFFCURVE",
"405 86 OFFCURVE",
"369 86 CURVE SMOOTH"
);
}
);
width = 1018;
}
);
unicode = 0067;
},
{
glyphname = h;
layers = (
{
layerId = "97227C28-C7C3-40A5-B3DE-4B1AC4F48489";
name = "Light Italic";
paths = (
{
closed = 1;
nodes = (
"81 0 LINE",
"175 0 LINE",
"240 537 LINE",
"264 597 OFFCURVE",
"291.667 651.333 OFFCURVE",
"323 700 CURVE SMOOTH",
"354.333 748.667 OFFCURVE",
"387.5 790.167 OFFCURVE",
"422.5 824.5 CURVE SMOOTH",
"457.5 858.833 OFFCURVE",
"493.667 885.167 OFFCURVE",
"531 903.5 CURVE SMOOTH",
"568.333 921.833 OFFCURVE",
"605 931 OFFCURVE",
"641 931 CURVE SMOOTH",
"707 931 OFFCURVE",
"752 905.5 OFFCURVE",
"776 854.5 CURVE SMOOTH",
"800 803.5 OFFCURVE",
"806.333 730.667 OFFCURVE",
"795 636 CURVE SMOOTH",
"720 -6 LINE",
"814 -6 LINE",
"889 636 LINE SMOOTH",
"896.333 695.333 OFFCURVE",
"897.167 748.167 OFFCURVE",
"891.5 794.5 CURVE SMOOTH",
"885.833 840.833 OFFCURVE",
"874 880 OFFCURVE",
"856 912 CURVE SMOOTH",
"838 944 OFFCURVE",
"813.667 968.333 OFFCURVE",
"783 985 CURVE SMOOTH",
"752.333 1001.67 OFFCURVE",
"715.333 1010 OFFCURVE",
"672 1010 CURVE SMOOTH",
"634 1010 OFFCURVE",
"596.333 1003 OFFCURVE",
"559 989 CURVE SMOOTH",
"521.667 975 OFFCURVE",
"485.167 954.5 OFFCURVE",
"449.5 927.5 CURVE SMOOTH",
"413.833 900.5 OFFCURVE",
"379.833 867.5 OFFCURVE",
"347.5 828.5 CURVE SMOOTH",
"315.167 789.5 OFFCURVE",
"285.667 745 OFFCURVE",
"259 695 CURVE",
"351 1455 LINE",
"257 1455 LINE"
);
}
);
width = 1031;
}
);
leftKerningGroup = b;
rightKerningGroup = h;
unicode = 0068;
},
{
glyphname = i;
layers = (
{
layerId = "97227C28-C7C3-40A5-B3DE-4B1AC4F48489";
name = "Light Italic";
paths = (
{
closed = 1;
nodes = (
"306 995 LINE",
"213 995 LINE",
"92 0 LINE",
"185 0 LINE"
);
},
{
closed = 1;
nodes = (
"379 1350 OFFCURVE",
"376.667 1361.5 OFFCURVE",
"372 1372.5 CURVE SMOOTH",
"367.333 1383.5 OFFCURVE",
"361 1393 OFFCURVE",
"353 1401 CURVE SMOOTH",
"345 1409 OFFCURVE",
"335.833 1415.33 OFFCURVE",
"325.5 1420 CURVE SMOOTH",
"315.167 1424.67 OFFCURVE",
"304.667 1427 OFFCURVE",
"294 1427 CURVE SMOOTH",
"282.667 1427 OFFCURVE",
"272 1424.67 OFFCURVE",
"262 1420 CURVE SMOOTH",
"252 1415.33 OFFCURVE",
"243.167 1408.83 OFFCURVE",
"235.5 1400.5 CURVE SMOOTH",
"227.833 1392.17 OFFCURVE",
"221.667 1382.67 OFFCURVE",
"217 1372 CURVE SMOOTH",
"212.333 1361.33 OFFCURVE",
"210 1350 OFFCURVE",
"210 1338 CURVE SMOOTH",
"210 1326 OFFCURVE",
"212.333 1314.83 OFFCURVE",
"217 1304.5 CURVE SMOOTH",
"221.667 1294.17 OFFCURVE",
"227.667 1285 OFFCURVE",
"235 1277 CURVE SMOOTH",
"242.333 1269 OFFCURVE",
"251 1262.67 OFFCURVE",
"261 1258 CURVE SMOOTH",
"271 1253.33 OFFCURVE",
"281.667 1251 OFFCURVE",
"293 1251 CURVE SMOOTH",
"303.667 1251 OFFCURVE",
"314.167 1253.33 OFFCURVE",
"324.5 1258 CURVE SMOOTH",
"334.833 1262.67 OFFCURVE",
"344 1269 OFFCURVE",
"352 1277 CURVE SMOOTH",
"360 1285 OFFCURVE",
"366.5 1294.17 OFFCURVE",
"371.5 1304.5 CURVE SMOOTH",
"376.5 1314.83 OFFCURVE",
"379 1326 OFFCURVE",
"379 1338 CURVE SMOOTH"
);
}
);
width = 423;
}
);
leftKerningGroup = i;
rightKerningGroup = i;
unicode = 0069;
},
{
glyphname = iacute;
layers = (
{
layerId = "97227C28-C7C3-40A5-B3DE-4B1AC4F48489";
name = "Light Italic";
paths = (
{
closed = 1;
nodes = (
"92 0 LINE"
);
},
{
closed = 1;
nodes = (
"306 995 LINE",
"213 995 LINE",
"92 0 LINE",
"185 0 LINE"
);
},
{
closed = 1;
nodes = (
"512 1431 LINE",
"425 1431 LINE SMOOTH",
"410.333 1431 OFFCURVE",
"399 1428.67 OFFCURVE",
"391 1424 CURVE SMOOTH",
"383 1419.33 OFFCURVE",
"375 1411 OFFCURVE",
"367 1399 CURVE",
"196 1161 LINE",
"249 1161 LINE SMOOTH",
"256.333 1161 OFFCURVE",
"262.667 1162.17 OFFCURVE",
"268 1164.5 CURVE SMOOTH",
"273.333 1166.83 OFFCURVE",
"278.667 1171.33 OFFCURVE",
"284 1178 CURVE"
);
}
);
width = 423;
}
);
leftKerningGroup = i;
rightKerningGroup = i;
unicode = 00ED;
},
{
glyphname = icircumflex;
layers = (
{
layerId = "97227C28-C7C3-40A5-B3DE-4B1AC4F48489";
name = "Light Italic";
paths = (
{
closed = 1;
nodes = (
"41 0 LINE"
);
},
{
closed = 1;
nodes = (
"306 995 LINE",
"213 995 LINE",
"92 0 LINE",
"185 0 LINE"
);
},
{
closed = 1;
nodes = (
"520 1169 LINE",
"347 1415 LINE",
"269 1415 LINE",
"41 1169 LINE",
"103 1169 LINE SMOOTH",
"113.667 1169 OFFCURVE",
"123 1173.67 OFFCURVE",
"131 1183 CURVE",
"292 1349 LINE",
"303 1361 LINE",
"304.333 1359 OFFCURVE",
"305.833 1356.83 OFFCURVE",
"307.5 1354.5 CURVE SMOOTH",
"309.167 1352.17 OFFCURVE",
"310.667 1350.33 OFFCURVE",
"312 1349 CURVE",
"435 1183 LINE",
"438.333 1177.67 OFFCURVE",
"442.333 1174 OFFCURVE",
"447 1172 CURVE SMOOTH",
"451.667 1170 OFFCURVE",
"456 1169 OFFCURVE",
"460 1169 CURVE SMOOTH"
);
}
);
width = 423;
}
);
leftKerningGroup = i;
rightKerningGroup = i;
unicode = 00EE;
},
